<?xml version="1.0" encoding="utf-8"?>
<!-- Generator: Adobe Illustrator 25.2.1, SVG Export Plug-In . SVG Version: 6.00 Build 0)  -->
<svg version="1.1" id="Layer_1" xmlns="http://www.w3.org/2000/svg" xmlns:xlink="http://www.w3.org/1999/xlink" x="0px" y="0px"
	 viewBox="0 0 512 512" style="enable-background:new 0 0 512 512;" xml:space="preserve">
<style type="text/css">
	.st0{fill:none;stroke:#000000;stroke-width:1.5;stroke-miterlimit:10;}
</style>
<g>
	<g>
		<path class="st0" d="M313.4,414.8c-2.3-1.4-4.3-3.3-5.9-5.6c-0.7-1.1-1.4-2.2-1.9-3.3H42.6V146.6h357.1v169.3
			c7.6,0.7,14,5.7,16.7,12.6c2.4-1.3,5-2.1,7.8-2.4c1.9-0.2,3.8,0,5.6,0.3V82c0-13.8-11.2-25.1-25.1-25.1H37.5
			c-13.8,0-25.1,11.2-25.1,25.1v328.9c0,13.8,11.2,25.1,25.1,25.1h273.6c-2.1-4.3-2.6-9.2-1.4-13.9
			C310.5,419.3,311.8,416.9,313.4,414.8z M372.1,99c0-5.1,4.1-9.3,9.3-9.3h9.3c5.1,0,9.3,4.1,9.3,9.3v10.5c0,5.1-4.1,9.3-9.3,9.3
			h-9.3c-5.1,0-9.3-4.1-9.3-9.3V99z M329,99c0-5.1,4.1-9.3,9.3-9.3h9.3c5.1,0,9.3,4.1,9.3,9.3v10.5c0,5.1-4.1,9.3-9.3,9.3h-9.3
			c-5.1,0-9.3-4.1-9.3-9.3V99z M286,99c0-5.1,4.1-9.3,9.3-9.3h9.3c5.1,0,9.3,4.1,9.3,9.3v10.5c0,5.1-4.1,9.3-9.3,9.3h-9.3
			c-5.1,0-9.3-4.1-9.3-9.3V99z"/>
	</g>
	<g>
		<path class="st0" d="M387.6,420.2c0-3.5-2.1-6.8-5.3-8.3l-29.4-13.6l29.4-13.6c3.2-1.5,5.3-4.7,5.3-8.3v-0.2c0-3.1-1.6-6-4.2-7.7
			c-1.5-0.9-3.2-1.4-4.9-1.4c-1.3,0-2.7,0.3-3.8,0.8l-47,21.8c-3.2,1.5-5.3,4.7-5.3,8.3v0.7c0,3.5,2.1,6.8,5.3,8.3l47,21.8
			c1.2,0.6,2.5,0.8,3.8,0.8c1.7,0,3.4-0.5,4.9-1.4c2.6-1.7,4.2-4.6,4.2-7.7L387.6,420.2L387.6,420.2z"/>
		<path class="st0" d="M433.9,344.7c-1.7-2.3-4.5-3.7-7.4-3.7h-0.2c-4,0-7.5,2.5-8.7,6.3l-30.9,95.9c-0.9,2.8-0.4,5.8,1.3,8.2
			c1.7,2.3,4.5,3.7,7.4,3.7h0.2c4,0,7.5-2.6,8.7-6.3l30.9-95.9C436.1,350.1,435.6,347.1,433.9,344.7z"/>
		<path class="st0" d="M494.2,389.7l-47-21.8c-1.2-0.6-2.5-0.8-3.8-0.8c-1.8,0-3.5,0.5-4.9,1.4c-2.6,1.7-4.2,4.6-4.2,7.7v0.2
			c0,3.5,2.1,6.8,5.3,8.3l29.4,13.6l-29.4,13.6c-3.2,1.5-5.3,4.7-5.3,8.3v0.2c0,3.1,1.6,6,4.2,7.7c1.5,0.9,3.2,1.4,4.9,1.4
			c1.3,0,2.6-0.3,3.8-0.8l47-21.8c3.2-1.5,5.3-4.7,5.3-8.3v-0.7C499.5,394.4,497.5,391.2,494.2,389.7z"/>
	</g>
	<g>
		<g>
			<path class="st0" d="M317,261.1v35.4l-15.6,2.9c-1.9,7.5-4.9,14.8-8.9,21.6l8.9,13.1l-25,25l-13.1-8.9c-6.8,4.1-14.1,7-21.6,8.9
				l-3,15.6h-35.3l-3-15.6c-7.5-1.9-14.8-4.9-21.6-8.9l-17.8,4.2l33.3-33.3c1,0.6,2.1,1.3,3.1,1.8v-24.4l-0.7-0.3
				c-3.5-1.4-5.7-4.7-5.7-8.4c0-5.8,5.6-10.5,11.7-8.7c2.7,0.8,5,2.9,5.9,5.6c1.6,4.9-0.8,9.7-5.2,11.5l-0.7,0.3v26.8
				c5.1,2,10.3,3.2,15.7,3.4v-67.3l-0.7-0.3c-3.5-1.4-5.7-4.7-5.7-8.4c0-5,4.1-9.1,9.1-9.1c5,0,9.1,4.1,9.1,9.1c0,3.7-2.3,7-5.7,8.4
				l-0.7,0.3v63.6l15.6-15.5v-25.9l-0.5-0.2c-3.5-1.4-5.7-4.7-5.7-8.4c0-6,5.7-10.6,11.9-8.6c2.7,0.9,5,3.1,5.8,5.8
				c1.5,4.8-1,9.5-5.3,11.2l-0.9,0.3v27.9l-3.6,3.6l-13.1,13.1c10.5-1.4,20.6-6.2,28.6-14.2c16.9-16.9,19.2-42.8,7-62.2l33.3-33.3
				l-4.3,17.7c4.1,6.8,7,14.1,8.9,21.6L317,261.1z"/>
		</g>
		<path class="st0" d="M281.1,203.1l-33.3,33.3c-19.4-12.2-45.3-9.9-62.2,7c-16.9,16.9-19.2,42.8-7,62.2l-33.3,33.3l4.3-17.7
			c-4.1-6.8-7-14.1-8.9-21.6l-13.7-2.6l-1.9-0.3v-35.3l15.5-3c1.9-7.5,4.9-14.8,8.9-21.7l-8.9-13.1l25-25l13.1,8.9
			c6.8-4.1,14.1-7,21.7-9l3-15.5h35.3l0.4,1.9l2.6,13.7c7.5,1.9,14.8,4.9,21.6,8.9L281.1,203.1z"/>
	</g>
</g>
</svg>
