<?xml version="1.0" encoding="utf-8"?>
<!-- Generator: Adobe Illustrator 25.2.1, SVG Export Plug-In . SVG Version: 6.00 Build 0)  -->
<svg version="1.1" id="Layer_1" xmlns="http://www.w3.org/2000/svg" xmlns:xlink="http://www.w3.org/1999/xlink" x="0px" y="0px"
	 viewBox="0 0 800 800" style="enable-background:new 0 0 800 800;" xml:space="preserve">
<style type="text/css">
	.st0{fill:none;stroke:#000000;stroke-miterlimit:10;}
</style>
<g>
	<g>
		<g>
			<path class="st0" d="M175.1,86.3h-10c-3.3,0-6.1-2.7-6.1-6.1c0-3.3,2.7-6.1,6.1-6.1h10.2c3.3,0,6.1,2.7,6.1,6.1
				C181.3,83.6,178.6,86.3,175.1,86.3z"/>
		</g>
		<g>
			<path class="st0" d="M224.4,86.3h-10.2c-3.3,0-6.1-2.7-6.1-6.1c0-3.3,2.7-6.1,6.1-6.1h10.2c3.3,0,6.1,2.7,6.1,6.1
				C230.4,83.6,227.7,86.3,224.4,86.3z"/>
		</g>
		<g>
			<path class="st0" d="M273.5,86.3h-10.2c-3.3,0-6.1-2.7-6.1-6.1c0-3.3,2.7-6.1,6.1-6.1h10.2c3.3,0,6.1,2.7,6.1,6.1
				C279.5,83.6,276.8,86.3,273.5,86.3z"/>
		</g>
	</g>
	<g>
		<path class="st0" d="M634.9,86.3H357.4c-3.3,0-6.1-2.7-6.1-6.1c0-3.3,2.7-6.1,6.1-6.1h277.5c3.3,0,6.1,2.7,6.1,6.1
			C641,83.6,638.2,86.3,634.9,86.3z"/>
	</g>
	<path class="st0" d="M722.5,170.9h-36.8V54.9c0-11.7-9.4-21.2-21.1-21.2H135.4c-11.7,0-21.1,9.4-21.1,21.1v116.1h-37
		c-15,0-27.1,12.1-27.1,27.3v464.8c0,15,12.3,27.3,27.3,27.3h245.2l-29.1,64H276c-3.3,0-6.1,2.7-6.1,6.1s2.7,6.1,6.1,6.1h247.6
		c3.3,0,6.1-2.7,6.1-6.1s-2.7-6.1-6.1-6.1h-17.6l-28.8-64h245.2c15,0,27.3-12.3,27.3-27.3V198.1
		C749.8,183.1,737.5,170.9,722.5,170.9z M126.3,54.8c0-5,4.1-8.9,8.9-8.9h529.4c5,0,8.9,4.1,8.9,9.1v59.7H126.3V54.8z M126.3,126.8
		h547.2v504.8H126.3V126.8z M62.4,198.1c0-8.3,6.7-15.2,15-15.2h36.8v448.4H62.4V198.1z M492.9,754.2H307l28.9-64H464L492.9,754.2z
		 M737.6,662.9c0,8.3-6.8,15.2-15.2,15.2H77.4c-8.3,0-15.2-6.8-15.2-15.2v-19.4h675.4L737.6,662.9L737.6,662.9z M737.6,631.4h-52
		V183h36.8c8.2,0,15.2,7,15.2,15.2V631.4z"/>
	<g>
		<g>
			<g>
				<path class="st0" d="M208.4,452.3c-1.8,0.8-3.8-0.2-4.5-1.8l-28.6-69.1c-0.8-1.7,0.2-3.8,1.8-4.5l12.4-5.2l31.2,75.5
					L208.4,452.3z M235.8,451.8l-38.9-94c-0.8-1.8,0.2-3.8,1.8-4.5l61.8-25.6l41.5,100.2l-61.7,25.6l0,0h-0.2
					C238.6,454.3,236.6,453.5,235.8,451.8z M296.5,443.5c-0.2,0.9-0.5,2-0.8,3.2c-3.3,12.7,0.8,22.9,12.3,29.6
					c6.7,3.9,8.6,8.5,6.7,16.1c-3.3,12.7,0.8,23,12.3,29.7c6.8,3.9,8.6,8.6,6.7,16.1c-3.3,12.7,0.8,22.9,12.3,29.6
					c1.1,0.6,2,1.1,2.7,1.7l-41.4,17.1c-2.4,1.1-5.2-0.2-6.2-2.6l-50.3-121.5C252.2,461.8,297.1,443.2,296.5,443.5z M314.2,425.5
					L271,321l132.1-149.7c-1.2,41.2,19.4,103.1,35.5,141.5c16.1,38.8,45.2,96.8,75,125.2L314.2,425.5z M433.8,265.4l2.7-1.1
					c23.2-9.5,50,1.5,59.6,24.7c9.5,23.2-1.5,50-24.7,59.6l-2.7,1.1c-6.7-13-13-27-18.9-41.5C443.8,293.8,438.3,279.4,433.8,265.4z
					 M542.1,439.4c-18,7.6-58.5-61.5-67.7-79l1.8-0.8c29.4-12.1,43.5-46.1,31.2-75.5c-12.1-29.4-46.1-43.5-75.5-31.2l-1.8,0.8
					c-5.8-18.9-26.1-96.2-7.9-103.8c24.1-10,77,94.3,92.3,131.2C551.7,371.1,555.6,433.9,542.1,439.4z"/>
			</g>
		</g>
		<g>
			<g>
				<path class="st0" d="M615,370.6l-30-11.2c-3.2-1.2-4.7-4.7-3.5-7.9c1.2-3.2,4.7-4.7,7.9-3.5l30,11.2c3.2,1.2,4.7,4.7,3.5,7.9
					C621.6,370.3,618.1,371.8,615,370.6z"/>
			</g>
			<g>
				<path class="st0" d="M596,308.5c-3.3,0-5.9-2.6-6.1-5.9c-0.2-3.3,2.6-6.1,5.9-6.2l32.1-0.8h0.2c3.3,0,5.9,2.6,6.1,5.9
					c0.2,3.3-2.6,6.1-5.9,6.2C627.5,307.9,593.8,308.6,596,308.5z"/>
			</g>
			<g>
				<path class="st0" d="M579.9,255.6c-1.2-3,0.2-6.7,3.3-7.9l29.6-12.3c3-1.2,6.7,0.2,7.9,3.3c1.2,3-0.2,6.7-3.3,7.9l-29.6,12.3
					C584.7,260.1,581.1,258.6,579.9,255.6z"/>
			</g>
			<g>
				<path class="st0" d="M553.7,215.3c-2.3-2.4-2.3-6.2,0.2-8.6l23.2-22.1c2.4-2.3,6.2-2.3,8.6,0.2c2.3,2.4,2.3,6.2-0.2,8.6
					l-23.3,22.1C559.7,217.7,555.9,217.7,553.7,215.3z"/>
			</g>
			<g>
				<path class="st0" d="M513.1,186.5c-3-1.4-4.4-5-3-8l13.2-29.2c1.4-3,5-4.4,8-3c3,1.4,4.4,5,3,8l-13.2,29.2
					C519.7,186.6,516.1,187.8,513.1,186.5z"/>
			</g>
		</g>
	</g>
</g>
</svg>
