<?xml version="1.0" encoding="utf-8"?>
<!-- Generator: Adobe Illustrator 25.2.1, SVG Export Plug-In . SVG Version: 6.00 Build 0)  -->
<svg version="1.1" id="Layer_1" xmlns="http://www.w3.org/2000/svg" xmlns:xlink="http://www.w3.org/1999/xlink" x="0px" y="0px"
	 viewBox="0 0 800 800" style="enable-background:new 0 0 800 800;" xml:space="preserve">
<style type="text/css">
	.st0{fill:none;stroke:#000000;stroke-width:1.5;stroke-miterlimit:10;}
</style>
<g>
	<g>
		<g>
			<path class="st0" d="M728.6,47.1H72.7c-36.4,0-66,31.6-66,70.4V502c0,38.8,29.6,70.4,66,70.4h223.1l-22.4,71.7
				c-21.2,5.9-36.9,26.4-36.9,50.8v17.5h-49.2c-9.1,0-16.4,7.8-16.4,17.5c0,9.7,7.3,17.5,16.4,17.5h74.9h0h276.9H614
				c9.1,0,16.4-7.8,16.4-17.5s-7.3-17.5-16.4-17.5h-49.2V695c0-24.4-15.7-45-36.9-50.8l-22.4-71.7h223.1c36.4,0,66-31.6,66-70.4
				V117.5C794.5,78.7,764.9,47.1,728.6,47.1z M515.5,677.5c9.1,0,16.4,7.9,16.4,17.5v17.5H269.4V695c0-9.7,7.4-17.5,16.4-17.5H515.5
				L515.5,677.5z M308.5,642.4l21.9-70h140.5l21.9,70H308.5z M761.7,502c0,19.5-14.9,35.3-33.1,35.3H482.7H318.6H72.7
				c-18.3,0-33.1-15.9-33.1-35.3v-17.2H663c9.1,0,16.4-7.8,16.4-17.5c0-9.7-7.3-17.5-16.4-17.5H39.6V117.5
				c0-19.5,14.9-35.3,33.1-35.3h655.9c18.2,0,32.9,15.7,33.1,35H140.9c-9.1,0-16.4,7.8-16.4,17.5c0,9.7,7.3,17.5,16.4,17.5h620.8
				L761.7,502L761.7,502z"/>
			<path class="st0" d="M303.4,334.6L303.4,334.6c1.3,7.8,7.4,13.9,15.1,14.4l125.1,8.9l0,0c8.6,0.6,16.2-6,17.3-15.2l10.5-88.4
				l3.1-26.5l21.8,0.1c9,0,16.4-7.7,16.4-17.4c0-9.6-7.3-17.5-16.3-17.5l-36.3-0.2c-8.4,0-15.3,6.6-16.3,15.3l-5,41.8l-8.6,72.1
				l-97-6.9l-9.1-54.2h65.2c9.1,0,16.4-7.8,16.4-17.5c0-9.7-7.3-17.5-16.4-17.5h-84.8v0c-0.9,0-1.9,0.1-2.8,0.3
				c-8.9,1.7-14.9,10.7-13.3,20.2L303.4,334.6z"/>
			<path class="st0" d="M344.3,374.2c-9,0-16.4,7.9-16.4,17.5c0,9.6,7.4,17.5,16.4,17.5c9,0,16.4-7.9,16.4-17.5
				C360.7,382.1,353.3,374.2,344.3,374.2z"/>
			<path class="st0" d="M428,374.2c-9,0-16.4,7.9-16.4,17.5c0,9.6,7.4,17.5,16.4,17.5c9,0,16.4-7.9,16.4-17.5
				C444.4,382.1,437,374.2,428,374.2z"/>
			<path class="st0" d="M90.6,117.2h-7.4c-9.1,0-16.4,7.8-16.4,17.5c0,9.7,7.3,17.5,16.4,17.5h7.4c9.1,0,16.4-7.8,16.4-17.5
				C107,125,99.6,117.2,90.6,117.2z"/>
			<path class="st0" d="M710.4,484.9h6.9c9.1,0,16.4-7.8,16.4-17.5c0-9.7-7.3-17.5-16.4-17.5h-6.9c-9.1,0-16.4,7.8-16.4,17.5
				C694,477,701.4,484.9,710.4,484.9z"/>
		</g>
	</g>
</g>
</svg>
