<?xml version="1.0" encoding="utf-8"?>
<!-- Generator: Adobe Illustrator 25.2.1, SVG Export Plug-In . SVG Version: 6.00 Build 0)  -->
<svg version="1.1" id="Layer_1" xmlns="http://www.w3.org/2000/svg" xmlns:xlink="http://www.w3.org/1999/xlink" x="0px" y="0px"
	 viewBox="0 0 512 512" style="enable-background:new 0 0 512 512;" xml:space="preserve">
<style type="text/css">
	.st0{fill:none;stroke:#000000;stroke-width:1.5;stroke-miterlimit:10;}
</style>
<g>
	<path class="st0" d="M337.1,445.7c0-12.5,0-24.8,0-37.5c4.6,0,8.7,0,13.6,0c0,2.3,0,4.6,0,6.8c0,15.9,0.1,31.7,0,47.6
		c-0.2,22.5-14.2,40.6-34.2,44.6c-2.9,0.6-6,0.6-9,0.7c-70,0-140.1,0-210.1,0c-23.3,0-41.6-17.3-43.2-40.8c-0.2-2.5-0.2-5-0.2-7.5
		c0-135.8,0-271.6-0.1-407.4c0-12.6,2.9-24,11.2-33.7c8-9.3,18-14.4,30.4-14.4c71.3,0,142.6-0.1,213.9,0c22.7,0,40.3,18.3,41.2,43.3
		c0.7,19.4,0.1,38.8,0.1,58.3c0,0.5-0.3,1-0.5,1.7c-4,0-8,0-12.6,0c-0.1-2-0.2-3.8-0.2-5.7c0-16.9-0.3-33.9,0.1-50.8
		c0.4-15.6-10.6-33.8-32.3-32.3c-8.5,0.6-17,0.1-26.2,0.1c0,3.8,0.1,7,0,10.1c-0.5,10.9-6.9,17-17.8,17c-39,0-78.1,0-117.1,0
		c-11.7,0-18.1-6.5-18.2-18.2c0-2.6,0-5.3,0-8.5c-2.1-0.1-3.8-0.4-5.5-0.4c-7.8,0-15.7-0.1-23.5,0c-15.5,0.1-27.4,11-29.1,26.4
		c-0.3,2.7-0.3,5.3-0.3,8c0,128.5,0,257,0,385.5c0,2.3,0,4.6,0,6.9C157.5,445.7,247,445.7,337.1,445.7z M202.4,489
		c9.6,0,19.2,0.1,28.8,0c8.6-0.1,14.1-5.3,14.1-13.3c0-7.9-5.6-13.5-14-13.5c-19.4-0.1-38.8-0.1-58.2,0c-8.5,0-14.2,5.5-14.2,13.3
		c-0.1,7.8,5.7,13.4,14,13.4C182.8,489.1,192.6,489,202.4,489z"/>
	<path class="st0" d="M118.7,154.6c0-18.6,0-36.7,0-55.6c1.9-0.1,3.8-0.3,5.6-0.3c50.6,0,101.2,0,151.8-0.1c3.9,0,6.6,1.1,9.3,3.9
		c6.6,7,13.4,13.8,20.5,20.3c2,1.8,5.2,3.2,7.8,3.2c45.8,0.2,91.6,0.1,137.4,0.1c2.1,0,4.2,0,6.7,0c0,9.6,0,18.8,0,28.3
		C345,154.6,232.1,154.6,118.7,154.6z M145.9,115.9c-0.1-4.6-4.1-8.4-8.8-8.2c-4.5,0.1-8.2,3.8-8.2,8.2c-0.1,4.6,3.8,8.5,8.5,8.5
		C142.1,124.4,146,120.5,145.9,115.9z M195,115.9c-0.1-4.6-4.1-8.3-8.8-8.2c-4.4,0.1-8.1,3.9-8.2,8.3c0,4.6,3.9,8.5,8.5,8.5
		C191.1,124.4,195.1,120.5,195,115.9z M162.1,124.5c4.6-0.1,8.5-4.1,8.3-8.7c-0.2-4.6-4.2-8.3-8.9-8.1c-4.4,0.2-8.1,4-8.1,8.4
		C153.4,120.6,157.5,124.5,162.1,124.5z"/>
	<path class="st0" d="M118.8,163.6c113.3,0,226,0,339.4,0c0,2.1,0,4,0,5.9c0,66.4,0,132.9,0,199.3c0,14.2-6.4,20.7-20.5,20.7
		c-99.6,0-199.1,0-298.7,0c-13.4,0-20.5-6.7-20.5-19.7c0-67.2,0-134.3,0-201.5C118.5,166.9,118.7,165.5,118.8,163.6z"/>
</g>
</svg>
