<?xml version="1.0" encoding="utf-8"?>
<!-- Generator: Adobe Illustrator 25.2.1, SVG Export Plug-In . SVG Version: 6.00 Build 0)  -->
<svg version="1.1" id="Layer_1" xmlns="http://www.w3.org/2000/svg" xmlns:xlink="http://www.w3.org/1999/xlink" x="0px" y="0px"
	 viewBox="0 0 800 800" style="enable-background:new 0 0 800 800;" xml:space="preserve">
<style type="text/css">
	.st0{fill:none;stroke:#000000;stroke-width:1.5;stroke-miterlimit:10;}
</style>
<g>
	<g>
		<path class="st0" d="M467.2,470.3c-18.6,18.6-23.2,39.5,4.6,67.4c27.9,27.9,76.7,11.6,79,51.1c27.9-44.1,11.6-88.3-16.2-116.2
			C506.7,444.7,483.5,451.7,467.2,470.3z"/>
		<path class="st0" d="M464.9,463.3c9.3-9.3,11.6-23.2,2.3-34.8C453.3,407.6,258.1,238,258.1,238c-9.3-9.3-23.2-11.6-27.9-4.6
			c-4.6,4.6-2.3,18.6,4.6,27.9c0,0,132.4,162.6,190.5,209.1c11.6,7,25.6,7,34.9-2.4L464.9,463.3z"/>
		<path class="st0" d="M701.9,31.2H97.8c-39.5,0-69.7,30.2-69.7,69.7v604.1c0,39.5,30.2,69.7,69.7,69.7h604.1
			c39.5,0,69.7-30.2,69.7-69.7V100.9C771.6,61.4,741.4,31.2,701.9,31.2z M288.3,80c13.9,0,27.9,11.6,27.9,27.9
			c0,16.3-11.6,27.9-27.9,27.9c-14,0-27.9-11.6-27.9-27.9S272,80,288.3,80z M209.3,80c13.9,0,27.9,11.6,27.9,27.9
			c0,16.3-11.6,27.9-27.9,27.9s-27.9-11.6-27.9-27.9C181.4,91.6,195.4,80,209.3,80z M132.6,80c13.9,0,27.9,11.6,27.9,27.9
			c0,16.3-11.6,27.9-27.9,27.9s-27.9-11.6-27.9-27.9S118.7,80,132.6,80z M690.2,646.9c0,25.6-20.9,46.5-46.5,46.5H155.9
			c-25.6,0-46.5-20.9-46.5-46.5V228.7c0-25.6,20.9-46.5,46.5-46.5h197.5c44.1,0,46.5,0,46.5-23.2c0-30.2,20.9-46.5,46.5-46.5h197.5
			c25.6,0,46.5,20.9,46.5,46.5L690.2,646.9L690.2,646.9z"/>
	</g>
</g>
</svg>
