<?xml version="1.0" encoding="utf-8"?>
<!-- Generator: Adobe Illustrator 25.2.1, SVG Export Plug-In . SVG Version: 6.00 Build 0)  -->
<svg version="1.1" id="Layer_1" xmlns="http://www.w3.org/2000/svg" xmlns:xlink="http://www.w3.org/1999/xlink" x="0px" y="0px"
	 viewBox="0 0 800 800" style="enable-background:new 0 0 800 800;" xml:space="preserve">
<style type="text/css">
	.st0{fill:none;stroke:#000000;stroke-width:1.5;stroke-miterlimit:10;}
</style>
<g>
	<g>
		<g>
			<path class="st0" d="M532.6,660.8c-4-2.5-7.6-5.8-10.4-9.7c-1.3-1.8-2.4-3.8-3.3-5.8H60.1V193h622.8v295.3
				c13.3,1.2,24.5,9.9,29.1,21.9c4.1-2.3,8.8-3.7,13.6-4.1c3.3-0.3,6.6-0.1,9.7,0.5V80.3c0-24.1-19.6-43.7-43.7-43.7H51.3
				c-24.1,0-43.7,19.6-43.7,43.7V654c0,24.1,19.6,43.7,43.7,43.7h477.3c-3.7-7.5-4.6-16.1-2.4-24.2
				C527.4,668.8,529.6,664.5,532.6,660.8z M634.9,110c0-8.9,7.2-16.2,16.1-16.2h16.1c8.9,0,16.1,7.2,16.1,16.2v18.3
				c0,8.9-7.2,16.1-16.1,16.1H651c-8.9,0-16.1-7.2-16.1-16.1V110z M559.8,110c0-8.9,7.2-16.2,16.1-16.2h16.2
				c8.9,0,16.1,7.2,16.1,16.2v18.3c0,8.9-7.2,16.1-16.1,16.1h-16.2c-8.9,0-16.1-7.2-16.1-16.1V110z M484.7,110
				c0-8.9,7.2-16.2,16.1-16.2H517c8.9,0,16.2,7.2,16.2,16.2v18.3c0,8.9-7.2,16.1-16.2,16.1h-16.1c-8.9,0-16.1-7.2-16.1-16.1V110z"/>
			<path class="st0" d="M786.8,630l-4.9-27.5c-0.7-3.7-4.2-6.2-7.9-5.5l-24.5,4.3c-2.9-6.9-6.7-13.4-11.1-19.3l16-19.1
				c1.2-1.4,1.7-3.2,1.6-5c-0.2-1.8-1-3.5-2.4-4.6l-21.4-18c-1.4-1.2-3.2-1.7-5-1.6c-1.8,0.2-3.5,1-4.6,2.4l-16,19
				c-6.6-3.3-13.6-5.9-20.9-7.6v-24.9c0-3.8-3.1-6.8-6.8-6.8h-27.9c-3.8,0-6.8,3.1-6.8,6.8v24.9c-7.4,1.7-14.4,4.3-20.9,7.6l-16-19
				c-2.4-2.9-6.7-3.3-9.6-0.8l-21.4,18c-1.4,1.2-2.3,2.8-2.4,4.6c-0.2,1.8,0.4,3.6,1.6,5l16,19.1c-4.4,5.9-8.2,12.4-11.1,19.3
				l-24.5-4.3c-3.7-0.7-7.2,1.8-7.9,5.5L543,630c-0.3,1.8,0.1,3.6,1.1,5.1c1,1.5,2.6,2.5,4.4,2.8l24.5,4.3
				c0.4,7.6,1.7,14.9,3.8,21.9l-21.5,12.4c-1.6,0.9-2.7,2.4-3.2,4.1c-0.5,1.7-0.2,3.6,0.7,5.2l14,24.2c0.9,1.6,2.4,2.7,4.1,3.2
				c0.6,0.2,1.2,0.2,1.8,0.2c1.2,0,2.4-0.3,3.4-0.9l21.5-12.4c5.1,5.4,10.8,10.2,17,14.3l-8.5,23.4c-0.6,1.7-0.5,3.6,0.2,5.2
				c0.8,1.6,2.1,2.9,3.8,3.5l26.3,9.6c0.8,0.3,1.5,0.4,2.3,0.4c1,0,2-0.2,2.9-0.6c1.6-0.8,2.9-2.1,3.5-3.8l8.5-23.4
				c3.6,0.4,7.4,0.7,11.1,0.7c3.8,0,7.5-0.2,11.1-0.7l8.5,23.4c0.6,1.7,1.9,3.1,3.5,3.8c0.9,0.4,1.9,0.6,2.9,0.6
				c0.8,0,1.6-0.1,2.3-0.4l26.3-9.6c1.7-0.6,3.1-1.9,3.8-3.5c0.8-1.6,0.8-3.5,0.2-5.2l-8.5-23.4c6.2-4.1,12-8.9,17-14.3l21.5,12.4
				c1,0.6,2.2,0.9,3.4,0.9c0.6,0,1.2-0.1,1.8-0.2c1.7-0.5,3.2-1.6,4.1-3.2l14-24.2c0.9-1.6,1.1-3.4,0.7-5.2
				c-0.5-1.7-1.6-3.2-3.2-4.1l-21.5-12.4c2.1-7,3.4-14.3,3.8-21.9l24.5-4.3c1.8-0.3,3.4-1.3,4.4-2.8
				C786.7,633.6,787.1,631.8,786.8,630z M664.9,673.7c-20.7,0-37.5-16.8-37.5-37.5c0-20.7,16.8-37.5,37.5-37.5
				c20.7,0,37.5,16.8,37.5,37.5C702.4,656.9,685.6,673.7,664.9,673.7z"/>
			<g>
				<path class="st0" d="M313.2,443.7c0-8.8-5.2-16.9-13.2-20.6l-73.2-34l73.2-34c8-3.7,13.2-11.8,13.2-20.6v-0.6
					c0-7.8-3.9-15-10.5-19.2c-3.6-2.3-7.9-3.6-12.3-3.6c-3.3,0-6.6,0.7-9.6,2.1l-117.1,54.4c-8,3.7-13.2,11.8-13.2,20.6v1.6
					c0,8.8,5.2,16.9,13.2,20.6l117.1,54.4c3,1.4,6.3,2.1,9.6,2.1c4.3,0,8.6-1.2,12.2-3.6c6.6-4.2,10.5-11.4,10.5-19.2L313.2,443.7
					L313.2,443.7z"/>
				<path class="st0" d="M428.7,255.6c-4.3-5.8-11.1-9.3-18.4-9.3h-0.6c-9.9,0-18.6,6.4-21.7,15.8L311,501c-2.2,6.9-1,14.5,3.3,20.3
					c4.3,5.8,11.1,9.3,18.4,9.3h0.6c9.9,0,18.6-6.4,21.7-15.8l77.1-239C434.2,269,433,261.4,428.7,255.6z"/>
				<path class="st0" d="M579.2,367.6l-117.1-54.4c-3-1.4-6.3-2.1-9.6-2.1c-4.4,0-8.6,1.2-12.3,3.5c-6.6,4.2-10.5,11.4-10.5,19.2
					v0.6c0,8.8,5.2,16.9,13.2,20.6l73.2,34l-73.2,34c-8,3.7-13.2,11.8-13.2,20.6v0.6c0,7.8,3.9,15,10.5,19.2
					c3.7,2.3,7.9,3.6,12.2,3.6c3.3,0,6.5-0.7,9.6-2.1l117.1-54.4c8-3.7,13.2-11.8,13.2-20.6v-1.6
					C592.3,379.4,587.2,371.3,579.2,367.6z"/>
			</g>
		</g>
	</g>
</g>
</svg>
