<?xml version="1.0" encoding="utf-8"?>
<!-- Generator: Adobe Illustrator 25.2.1, SVG Export Plug-In . SVG Version: 6.00 Build 0)  -->
<svg version="1.1" id="Layer_1" xmlns="http://www.w3.org/2000/svg" xmlns:xlink="http://www.w3.org/1999/xlink" x="0px" y="0px"
	 viewBox="0 0 640 500" style="enable-background:new 0 0 640 500;" xml:space="preserve">
<style type="text/css">
	.st0{clip-path:url(#SVGID_2_);fill:#FFD5BD;}
	.st1{clip-path:url(#SVGID_2_);}
	.st2{fill:#FFD5BD;}
	.st3{fill:#EFB296;}
	.st4{clip-path:url(#SVGID_2_);fill:none;}
	.st5{fill:#FFE1CF;}
	.st6{fill:#573B39;}
	.st7{fill:#FFB296;}
	.st8{fill:#0A0A0A;}
	.st9{fill:#EB5B5B;}
	.st10{fill:#8C3033;}
	.st11{fill:#FFFFFF;}
	.st12{fill:#894D3E;}
	.st13{fill:#D99D85;}
	.st14{fill:#270B04;}
	.st15{fill:#FFFEFE;}
	.st16{fill:#5C231F;}
	.st17{fill:#5E2B16;}
	.st18{fill:#240A04;}
	.st19{clip-path:url(#SVGID_2_);fill:#BF8958;}
	.st20{fill:#2D2D2D;}
	.st21{fill:#424242;}
	.st22{clip-path:url(#SVGID_2_);fill:#432F38;}
	.st23{clip-path:url(#SVGID_2_);fill:#063530;}
	.st24{fill:#EAEAEA;}
	.st25{fill:none;stroke:#000000;stroke-width:0.25;stroke-miterlimit:10;}
</style>
<g>
	<defs>
		<rect id="SVGID_1_" x="-4.5" y="1.4" width="644.1" height="499.1"/>
	</defs>
	<clipPath id="SVGID_2_">
		<use xlink:href="#SVGID_1_"  style="overflow:visible;"/>
	</clipPath>
	<path class="st0" d="M185.9,385c-3.7,5.4-9.9,11.3-17.4,12.1c-9.1,1-20.8-15-30.2-43.8c-8.5-25.7-25.7-100.6-25.7-100.6s0,0,0-0.1
		l0,0l0.4-28.2l20,1.6l7.8,21.2c14.5,35.2,34.9,75.9,49.3,111.1C192.7,364.3,189.6,379.4,185.9,385z"/>
	<g class="st1">
		<g>
			<g>
				<g>
					<g>
						<path class="st2" d="M140.7,219.1c0,0-1.9-21.1-1.8-36.3c0.1-7.6,1.7-15.1-1-16.6c-4.8-2.7-9.8-0.3-12.2,8
							c-2.1,6.8-1,18.8-2.3,21.9c-3.2,7.6-13.1,19.1-14.2,21C108.3,218.9,140.5,226.7,140.7,219.1z"/>
					</g>
					<g>
						<path class="st3" d="M132.1,198.5c0,0-31.6-5.9-36.3-9.9c-3.1-2.6-14.8,29.4-16.1,33.2c-2.1,5.8-1.5,12.9,11.3,20.4
							c11.3,6.7,23.1,16.6,39,8.9C147.2,242.8,136,202.4,132.1,198.5z"/>
					</g>
				</g>
			</g>
		</g>
	</g>
	<path class="st0" d="M482.7,383.5c3.5,5,9.4,10.5,16.5,11.2c8.6,0.9,19.8-13.9,28.8-40.7c8.1-23.8,24.4-93.5,24.4-93.5s0,0,0-0.1
		l0,0l-0.4-26.2l-19,1.4l-7.4,19.7c-13.8,32.7-33.2,70.5-47,103.3C476.2,364.2,479.1,378.3,482.7,383.5z"/>
	<rect x="106.1" y="-1.8" class="st4" width="442.5" height="505.1"/>
	<g class="st1">
		<path class="st5" d="M421.9,584.6c0,0-11.8,74.5-14,86s-39.7,17-51.3-1.7c0.1-10,0.8-41.3-0.9-64.6c-1.8-23.3-2-51.4-3.6-88.6
			c-1.6-37.2,82.5-68,78-21.6C425.7,540.5,421.9,584.6,421.9,584.6z"/>
		<g>
			<path class="st2" d="M355.7,683.3c0,0,6.3,58.5,10.1,127.6c2.6,46.8,3.9,98.4,1.4,140.1c0,0-1,40.4-3.7,79.9
				c0.9,11.8,34.7,5.1,40.2,4.3c5.5-0.8-9-83.3-9-83.3s1.1-9.9-1.6-24.2s-4.8-12.6,3.2-47.6c8.4-36.7,25.7-124.7,25-148.7
				c-0.8-26.7-7-77.8-24.7-95.6c0,0-5.3-1.7-24.3,0.9C353.2,639.3,355.7,683.3,355.7,683.3z"/>
			<path class="st6" d="M367.1,955.1c0,0-9,59.6-9.6,73.9c-0.4,10.5,11.9,26.9,21.3,26.9c6.8,0,17.5,0.6,21.7-0.9
				c6-2.2,16.8-22.6,12.9-35c-7.5-23.9-18.8-68.1-18.8-68.1s10.6,60.8,8.6,71.3c-1.2,6.1-35.5,4.3-36.4,0
				C364.7,1013.1,367.1,955.1,367.1,955.1z"/>
			<path class="st7" d="M369.4,668.3c0,0,19.1,12.4,29.2,6.6C398.6,674.9,375.8,672.2,369.4,668.3z"/>
		</g>
	</g>
	<g class="st1">
		<path class="st5" d="M262.9,584.6c0,0,11.8,74.5,14,86s39.7,17,51.3-1.7c-0.1-10-0.8-41.3,0.9-64.6c1.8-23.3,2-51.4,3.6-88.6
			c1.6-37.2-82.5-68-78-21.6C259.1,540.5,262.9,584.6,262.9,584.6z"/>
		<g>
			<path class="st2" d="M329.1,683.3c0,0-6.3,58.5-10.1,127.6c-2.6,46.8-3.9,98.4-1.4,140.1c0,0,1,40.4,3.8,79.9
				c-0.9,11.8-34.7,5.1-40.2,4.3c-5.5-0.8,9-83.3,9-83.3s-1.1-9.9,1.6-24.2s4.8-12.6-3.2-47.6c-8.4-36.7-25.7-124.7-25-148.7
				c0.8-26.7,7-77.8,24.7-95.6c0,0,5.3-1.7,24.3,0.9C331.6,639.3,329.1,683.3,329.1,683.3z"/>
			<path class="st6" d="M317.8,955.1c0,0,9,59.6,9.6,73.9c0.4,10.5-11.9,26.9-21.3,26.9c-6.8,0-17.5,0.6-21.7-0.9
				c-6-2.2-16.8-22.6-12.9-35c7.5-23.9,18.8-68.1,18.8-68.1s-10.6,60.8-8.6,71.3c1.2,6.1,35.5,4.3,36.4,0
				C320.1,1013.1,317.8,955.1,317.8,955.1z"/>
			<path class="st7" d="M315.4,668.3c0,0-19.1,12.4-29.2,6.6C286.2,674.9,309,672.2,315.4,668.3z"/>
		</g>
	</g>
	<g class="st1">
		<path class="st8" d="M309.9,129.4c8.2-5.5,13.8-16,11.2-25.7l1.6-11.3c-8.7-14.1-20-27.3-34.9-33.3c-15.9-6.4-36.6-2.4-45.3,13.5
			c-8.2,3.4-14.2,12.9-14.3,22.5c-0.1,11.9,7.2,22.9,16.7,29.3c9.5,6.4,20.9,8.9,32.1,10.2c10.4,1.1,21.4,1.2,30.7-3.9
			C308.5,130.3,309.2,129.8,309.9,129.4z"/>
		<path class="st8" d="M239.2,76.7c0,0-0.1,0-0.3-0.1s-0.5-0.2-0.8-0.5c-0.7-0.5-1.7-1.3-2.4-2.9c-0.4-0.7-0.6-1.7-0.8-2.7
			s-0.2-2.2,0-3.4s0.5-2.5,1.2-3.8c0.2-0.3,0.4-0.6,0.6-1c0.2-0.3,0.4-0.6,0.6-0.9c0.2-0.3,0.5-0.6,0.7-0.9c0.3-0.3,0.5-0.6,0.8-0.8
			c2.3-2.2,5.4-3.8,8.7-5c1.7-0.6,3.4-1,5.1-1.4c0.9-0.2,1.8-0.4,2.7-0.5c0.9-0.2,1.9-0.3,2.8-0.4c7.6-1,16.2-0.6,24.8,1.9
			c8.6,2.4,16.1,6.7,22,11.6s10.2,10.4,13.1,15.2c3,4.9,4.6,9.1,5.6,12.1c0.2,0.7,0.4,1.4,0.6,2c0.1,0.6,0.3,1.1,0.4,1.5
			c0.2,0.8,0.3,1.2,0.3,1.2s-0.2-0.4-0.6-1.1c-0.2-0.3-0.5-0.8-0.8-1.3s-0.7-1.1-1.1-1.7c-1.7-2.5-4.2-6.1-7.8-10.1
			c-3.6-3.9-8.3-8.1-14-11.9s-12.5-7-20-9.1c-7.5-2.1-15-3-21.8-2.9c-0.9,0-1.7,0-2.5,0.1c-0.8,0-1.7,0.1-2.5,0.2
			c-1.6,0.1-3.2,0.3-4.6,0.6c-2.9,0.5-5.5,1.3-7.4,2.6c-4.1,2.4-5.1,6.9-4.5,9.6c0.2,1.4,0.8,2.4,1.3,3c0.2,0.3,0.5,0.5,0.6,0.7
			C239.2,76.6,239.2,76.7,239.2,76.7z"/>
		<path class="st8" d="M237.5,82.1c0,0-0.1,0-0.4,0.1c-0.3,0-0.7,0.1-1.2,0.2c-1,0.2-2.6,0.6-4.3,1.6c-1.7,0.9-3.6,2.4-5.3,4.6
			c-1.6,2.1-3,5-3.4,8.2c-0.4,3.3,0,6.9,1.5,10.5c0.7,1.8,1.7,3.6,2.8,5.2c1.2,1.7,2.5,3.3,4.1,4.8c3.2,3,7.1,5.6,11.6,7.8
			c4.4,2.2,9.3,4.1,14.4,5.6c10.1,3,20.2,3.8,29.2,2.4c8.9-1.4,16.4-5.3,21.9-9.6c2.7-2.2,5-4.5,6.7-6.6c0.4-0.6,0.8-1.1,1.3-1.6
			c0.4-0.5,0.7-1.1,1.1-1.6c0.7-1,1.2-2,1.7-2.9c0.3-0.4,0.5-0.9,0.6-1.3c0.2-0.4,0.4-0.8,0.5-1.1c0.4-0.7,0.6-1.3,0.8-1.8
			c0.4-1,0.6-1.5,0.6-1.5s-0.1,0.6-0.3,1.6c-0.1,0.5-0.2,1.2-0.4,2c-0.1,0.4-0.2,0.8-0.3,1.2c-0.1,0.4-0.2,0.9-0.4,1.4
			c-0.4,1-0.7,2.1-1.2,3.2c-0.3,0.6-0.5,1.2-0.8,1.8c-0.3,0.6-0.7,1.2-1,1.9c-1.5,2.6-3.5,5.4-6.1,8.1c-2.6,2.7-5.9,5.4-9.8,7.7
			s-8.4,4.3-13.4,5.5c-0.6,0.1-1.3,0.3-1.9,0.4l-1,0.2l-1,0.2c-0.6,0.1-1.3,0.2-2,0.3s-1.3,0.1-2,0.2l-1,0.1l-1,0.1
			c-0.7,0-1.4,0.1-2,0.1c-0.7,0-1.4,0-2.1,0h-1h-1c-2.8-0.1-5.6-0.4-8.4-0.9s-5.6-1.1-8.4-2c-5.6-1.7-10.8-3.9-15.6-6.5
			c-4.8-2.7-9.3-5.9-12.8-9.8c-1.8-1.9-3.3-4-4.5-6.2s-2.2-4.5-2.8-6.7c-1.3-4.5-1.3-9.1-0.2-13c0.5-1.9,1.3-3.7,2.3-5.2
			c0.9-1.5,2-2.8,3.2-3.9c2.2-2.1,4.6-3.4,6.6-4.1s3.7-0.8,4.7-0.8c0.5,0,1,0.1,1.2,0.1C237.3,82.1,237.5,82.1,237.5,82.1z"/>
	</g>
	<g class="st1">
		<g>
			<g>
				<path class="st2" d="M271.6,210.8c9.2-1.9,34.8-15.3,37.9-21.5c1.3-2.4,1.4-5.1,1.6-7.6c1.1-15.5,3.3-46.6,3.3-46.6h50.1
					c0,0,2.2,31.1,3.3,46.6c0.2,2.6,0.4,5.2,1.6,7.6c3.2,6.2,28.7,19.6,37.9,21.5c9.2,1.9-66.8,41.6-66.8,41.6
					S262.4,212.7,271.6,210.8z"/>
			</g>
		</g>
		<g>
			<g>
				<path class="st3" d="M349,182.6c6.4-5.9,12.1-12.3,17.6-18.9c-1-14.1-2-28.7-2-28.7h-50.1c0,0-2.2,31.1-3.3,46.6
					c-0.2,2.6-0.4,5.2-1.6,7.6c-1.2,2.4-5.8,5.9-11.5,9.4C316.5,199.4,334.5,196.1,349,182.6z"/>
			</g>
		</g>
	</g>
	<path class="st0" d="M292.3,140.1c-4.2-3.5-8.5-7-12.1-11.4c-3.6-4.3-6.4-9.5-7.2-15.1c-0.8-5.6-0.9-12.5,4.7-14.9
		c4.7-2,14.3,11.4,14.3,11.4L292.3,140.1z"/>
	<path class="st0" d="M282.5,69.2c0-25.8,33.8-46.1,53.2-46.4l0,0h7l0,0c19.3,0.3,53.2,20.7,53.2,46.4c0,0-3,47.6-6.3,68.3
		s-37.9,44.6-50.4,44.6s-47.1-23.9-50.4-44.6C285.5,116.8,282.5,69.2,282.5,69.2z"/>
	<path class="st0" d="M386.1,140.1c4.2-3.5,8.5-7,12.1-11.4c3.6-4.3,6.4-9.5,7.2-15.1c0.8-5.6,0.9-12.5-4.7-14.9
		c-4.7-2-14.3,11.4-14.3,11.4L386.1,140.1z"/>
	<g class="st1">
		<g>
			<g>
				<g>
					<path class="st9" d="M361.1,141.1c-1.8,0.9-5.8,5.1-9.1,8.8c-2.9,3.2-6.2,6.6-12.3,6.6c-5.6,0-10-3.3-13.2-6.7
						c-3.6-4-7.7-8.1-10-9.3c-0.3-0.1,2.1,0.7,6.4-0.4c4.5-1.1,12.1-0.3,14.9-0.3c2.4,0,9-1.8,19.7,1
						C360,141.2,361.4,141,361.1,141.1z"/>
				</g>
				<path class="st10" d="M321.7,142c0,0,2.4,0.1,7.6,0.4c3.3,0.2,7.3,1.1,10.1,1.1c3.2,0,6.9-1,10.6-1.2c4.6-0.3,7.1-0.3,7.1-0.4
					c-2,1.6-3.9,3.2-5.6,5c-3.7,2.9-7.5,4-12.7,4c-5.1,0-9-2.2-10.8-3.8C326,145.3,323.9,143.6,321.7,142z"/>
				<path class="st11" d="M338.9,148.8c10.2,0,15.2-6.7,15.3-6.7c-1.1,0.1-2.5,0.1-4.3,0.2c-3.7,0.2-7.4,1.2-10.6,1.2
					c-2.7,0-6.8-0.9-10.1-1.1c-2-0.1-3.6-0.2-4.8-0.3C324.6,142,331.8,148.7,338.9,148.8z"/>
			</g>
		</g>
		<path class="st3" d="M338,134.8c-0.3-0.2-0.6-0.4-0.9-0.6c-1.4-1.1-2.7-2.4-3.9-3.8c-0.8-1-1.5-2.2-1.4-3.5
			c0.2-1.4,1.3-2.3,2.2-3.2c2.6-2.4,4.4-5.9,5.3-9.7c0.4,2.7-0.1,5.6-1.4,7.8c-0.5,0.8-1.1,1.7-1.3,2.7c-0.2,1.4,0.6,2.7,1.5,3.6
			c0.9,0.9,1.9,1.6,2.7,2.7c0.7,1.1,1,2.8,0.2,3.8C340.2,135.6,339,135.4,338,134.8z"/>
		<g>
			<path class="st12" d="M326.3,98.5c0,0,0.1-2.8-1.9-4.3c-1.9-1.5-11.3-1.2-15.6-1c-4.3,0.2-17.4,5-17.4,5s12.2-1.7,17-1.2
				C313.3,97.5,326.3,98.5,326.3,98.5z"/>
			<g>
				<path class="st13" d="M325,114.9c0,0-0.5-17.5-19.4-16.5c-10.3,0.7-10.2,7.3-10.2,7.3L325,114.9z"/>
				<path class="st14" d="M324,112.5c0,0-3.4-6-13.5-6.2c-6.4,0.1-12.3,2.4-16.2,0.2c0,0,3.5,0.2,7.7-0.4
					C308.5,105.2,317.6,103,324,112.5z"/>
				<path class="st13" d="M325.9,118.1c0,0-10.9,0.9-14.6,1c-4.8,0.1-11.3-4.5-11.3-4.5s2.3,6,11.3,5.7
					C317,120.2,322,118.6,325.9,118.1z"/>
				<path class="st15" d="M325.9,118.1c0,0-0.3-13.9-18.4-12.9c-5,0.3-11.3,2.2-11.3,2.2s4.4,12.6,15.6,11.8
					C322.4,118.4,325.9,118.1,325.9,118.1z"/>
				<g>
					<g>
						<path class="st16" d="M319.9,111.7c0,3.9-3.4,7.1-7.5,7.1s-7.5-3.2-7.5-7.1s3.4-7.1,7.5-7.1
							C316.5,104.6,319.9,107.8,319.9,111.7z"/>
						
							<image style="overflow:visible;enable-background:new    ;" width="63" height="58" xlink:href="C969A71C.png"  transform="matrix(0.2299 0 0 0.2299 305.1928 104.5064)">
						</image>
					</g>
					<path class="st17" d="M308.6,111.5c0-2.1,1.8-3.8,4-3.8s4,1.7,4,3.8c0,2.1-1.8,3.8-4,3.8C310.4,115.3,308.6,113.6,308.6,111.5z
						"/>
					<path class="st11" d="M306.5,111.7c0,1.2,1.6,2.2,2.3,2.2c0.6,0,2.6-0.9,2.6-2.2c0-1.3-1.5-2.4-2.6-2.4
						C307.7,109.4,306.5,110.5,306.5,111.7z"/>
					<path class="st11" d="M314.5,115.2c0,0.4,0.6,0.8,0.8,0.8c0.2,0,0.9-0.3,0.9-0.8c0-0.4-0.5-0.8-0.9-0.8
						C314.9,114.4,314.5,114.7,314.5,115.2z"/>
				</g>
				<path class="st16" d="M325.9,118.1c0,0-0.9-12.5-16-12.7c-9.6,0.6-12.6,4.7-18-1c0,0,2,2.1,10.4-1
					C311,100.3,325.6,102.3,325.9,118.1z"/>
				<path class="st16" d="M291.8,104.5c0,0,3.9,9,12.3,12.9c0,0-7.2-8-5.4-10.1L291.8,104.5z"/>
				<path class="st18" d="M302.8,116.3c0,0,4.2,3.5,11.6,2.7c0,0-7.5,2-13.7-3.6L302.8,116.3z"/>
			</g>
		</g>
		<g>
			
				<image style="overflow:visible;enable-background:new    ;" width="142" height="92" xlink:href="C969A71D.png"  transform="matrix(0.2341 0 0 0.2341 293.6529 120.3247)">
			</image>
			
				<image style="overflow:visible;enable-background:new    ;" width="142" height="92" xlink:href="C969A71B.png"  transform="matrix(0.2341 0 0 0.2341 354.6129 120.3247)">
			</image>
		</g>
		<g>
			<path class="st12" d="M353.7,98.5c0,0-0.1-2.8,1.9-4.3c1.9-1.5,11.3-1.2,15.6-1c4.3,0.2,17.4,5,17.4,5s-12.2-1.7-17-1.2
				C366.7,97.5,353.7,98.5,353.7,98.5z"/>
			<g>
				<path class="st13" d="M355,114.9c0,0,0.5-17.5,19.4-16.5c10.3,0.7,10.2,7.3,10.2,7.3L355,114.9z"/>
				<path class="st14" d="M356,112.5c0,0,3.4-6,13.5-6.2c6.4,0.1,12.3,2.4,16.2,0.2c0,0-3.5,0.2-7.7-0.4
					C371.6,105.2,362.4,103,356,112.5z"/>
				<path class="st13" d="M354.2,118.1c0,0,10.9,0.9,14.6,1c4.8,0.1,11.3-4.5,11.3-4.5s-2.3,6-11.3,5.7
					C363,120.2,358,118.6,354.2,118.1z"/>
				<path class="st15" d="M354.2,118.1c0,0,0.3-13.9,18.4-12.9c5,0.3,11.3,2.2,11.3,2.2s-4.4,12.6-15.6,11.8
					C357.6,118.4,354.2,118.1,354.2,118.1z"/>
				<g>
					<g>
						<path class="st16" d="M360.1,111.7c0,3.9,3.4,7.1,7.5,7.1s7.5-3.2,7.5-7.1s-3.4-7.1-7.5-7.1S360.1,107.8,360.1,111.7z"/>
						
							<image style="overflow:visible;enable-background:new    ;" width="63" height="58" xlink:href="C969A724.png"  transform="matrix(0.2299 0 0 0.2299 360.3928 104.5064)">
						</image>
					</g>
					<path class="st17" d="M371.4,111.5c0-2.1-1.8-3.8-4-3.8s-4,1.7-4,3.8c0,2.1,1.8,3.8,4,3.8C369.6,115.3,371.4,113.6,371.4,111.5
						z"/>
					<path class="st11" d="M371.2,109.4c-1.1,0-2.6,1.1-2.6,2.4c0,1.2,2,2.1,2.6,2.2c0.8,0,2.3-1,2.3-2.2
						C373.5,110.5,372.3,109.4,371.2,109.4z"/>
					<path class="st11" d="M364.7,114.4c-0.4,0-0.9,0.4-0.9,0.8s0.7,0.8,0.9,0.8c0.3,0,0.8-0.3,0.8-0.8S365.1,114.4,364.7,114.4z"/>
				</g>
				<path class="st16" d="M354.2,118.1c0,0,0.9-12.5,16-12.7c9.6,0.6,12.6,4.7,18-1c0,0-2,2.1-10.4-1
					C369,100.3,354.4,102.3,354.2,118.1z"/>
				<path class="st16" d="M388.3,104.5c0,0-3.9,9-12.3,12.9c0,0,7.2-8,5.4-10.1L388.3,104.5z"/>
				<path class="st18" d="M377.2,116.3c0,0-4.2,3.5-11.6,2.7c0,0,7.5,2,13.7-3.6L377.2,116.3z"/>
			</g>
		</g>
	</g>
	<path class="st0" d="M473.6,386.1c0,0-32.7-58.9-41.5-72.1s-33.5-63.1-19.8-76.4c13.7-13.2,37.5-3.1,52.1,24.2
		c14.5,27.3,35.8,92.9,45.6,111.9C519.9,392.7,486.1,408.5,473.6,386.1z"/>
	<path class="st19" d="M400,215.5c0,0,32.3-7.3,43.3,7.7c11.1,15.1,36.9,51.3,40,62.4s-36.2,32.9-59.2,37.7
		C424,323.3,391.1,215.5,400,215.5z"/>
	<path class="st0" d="M193.1,388.9c0,0,34.8-57.7,44-70.6c9.2-13,35.8-61.9,22.6-75.6c-13.2-13.7-37.4-4.5-52.9,22.4
		c-15.5,26.8-39.1,91.6-49.6,110.2C146.6,393.9,179.7,410.8,193.1,388.9z"/>
	<path class="st19" d="M275,215.5c0,0-32.3-7.3-43.3,7.7c-11.1,15.1-36.9,51.3-40,62.4c-3.1,11.1,36.2,32.9,59.2,37.7
		C251,323.3,283.9,215.5,275,215.5z"/>
	<g class="st1">
		<path class="st8" d="M409.5,74c-1.3-16.7-7.7-29.7-17.9-43.2c-10.2-13.6-26.4-23.5-43.9-24c-16-0.5-32.5,8.2-39.3,21.9
			c-9.9-2.4-21.5,1.5-28.6,8.8c-2.3,2.4-4.2,5-5.8,7.8c-4.6,8.2-6.4,17.9-6.7,27.4c-0.1,4.7,0.1,9.5,0.3,14.2
			c0,4.6,0.1,18.8,0.6,36.1c0.6,24.8,15.3,55.2,15.3,55.2c-9.8-37.5,0.7-74.1,9.8-96c8.5-6.6,15.9-14.4,22.4-23.7
			c0,0,18.6,18.2,37.9,29.6c19.9,11.8,36.8,15.2,55.8,17.2C409.5,105.2,410.6,87.5,409.5,74z"/>
		<path class="st20" d="M314.2,50.8c-3.8-21,15-37.5,34.5-39.8c7.9-1.1,15.8-0.1,23.3,2.5c-7.4-4.1-15.6-6.6-24.2-6.8
			c-16-0.5-32.5,8.2-39.3,21.9c-9.9-2.4-21.5,1.5-28.6,8.8c-2.3,2.4-4.2,5-5.8,7.8c-4.6,8.2-6.4,17.9-6.7,27.4c0,1.6,0,3.2,0,4.8
			c3.5-9.6,3.2-21.8,8.1-30.3C283.8,32.8,307.4,36.6,314.2,50.8z"/>
		<g>
			<path class="st8" d="M382,165.8c14-30.8,17.6-71.3,10-104.2c0,0,0.2,0.3,0.6,0.9c19,29.8,15.7,77.6-9.9,102.6
				C382.2,165.6,382,165.8,382,165.8z"/>
			<path class="st8" d="M385,184.2c-0.1,0.3,2.6-4.7,3.3-6.3c5.3-11.3,8.2-24.2,9.5-36.7c0.2-2.4,0.4-4.9,0.6-7.4
				c0.1-2.5,0.2-5.1,0.4-7.6c0-2.6,0.1-5,0.1-7.6c0-2.4,0-4.8,0-7.2c-0.2-7.6-0.4-15.2-0.6-22.8c-0.2-5.1-0.3-10.2-0.3-14.9
				c0-1-0.1-1.9-0.1-2.7c-0.1-3.3,0-5.2,0-5.2c-0.1-0.3,3.1,4.7,3.9,6.3c2.2,4.4,4.1,9.3,5.4,14.4c0.2,0.8,0.4,1.6,0.5,2.4
				c0.4,2.1,0.8,4.3,1.2,6.4c0.7,5.3,0.9,10.8,0.8,16.2c-0.2,2.7-0.3,5.3-0.6,8c-0.3,2.7-0.8,5.4-1.2,8.2c-0.6,2.7-1.1,5.4-1.8,8
				c-0.7,2.5-1.4,5-2.1,7.5c-2.5,7.6-5.5,14.9-8.9,22c-2.2,4.4-4.5,8.8-6.7,12.7C387.6,179.6,384.8,184.5,385,184.2z"/>
		</g>
		<g>
			<path class="st21" d="M419.2,136.4c0,0,0.1-0.5,0.4-1.5c0.2-1,0.5-2.4,0.5-4.3c0-1.9-0.2-4.1-0.8-6.7c-0.7-2.5-1.8-5.3-3.5-8
				c-0.9-1.3-1.8-2.7-3-4c-0.5-0.7-1.2-1.3-1.8-1.9c-0.3-0.3-0.7-0.6-1-0.9l-0.5-0.5c-0.2-0.1-0.4-0.3-0.5-0.4
				c-1.4-1.2-3-2.3-4.7-3.3s-3.5-2-5.5-2.9c-3.9-1.7-8.2-3.1-12.8-4.3c-4.6-1.2-9.5-2.1-14.6-3.2c-5.1-1-10.2-2.2-15-3.7
				c-2.4-0.8-4.8-1.6-7.1-2.6c-1.1-0.5-2.3-1-3.4-1.5c-1.1-0.6-2.2-1.1-3.2-1.7c-4.1-2.3-7.8-4.9-11-7.6s-5.9-5.5-8.1-8.2
				c-3.1-3.7-6.2-8-7.8-10.9c0,0,8.1,6,10.6,8.2c2.5,2.2,5.3,4.5,8.5,6.7s6.8,4.2,10.7,6c1,0.5,2,0.8,3,1.3c1,0.4,2.1,0.8,3.1,1.2
				c2.1,0.7,4.3,1.4,6.6,2c4.6,1.2,9.5,2.2,14.6,3.2s10.2,2.1,15,3.6c4.9,1.5,9.5,3.3,13.7,5.6c2.1,1.1,4.1,2.4,5.9,3.8
				s3.5,2.8,5,4.4c0.2,0.2,0.4,0.4,0.6,0.6s0.4,0.4,0.5,0.6c0.3,0.4,0.7,0.8,1,1.2c0.6,0.8,1.3,1.6,1.8,2.5c1.1,1.7,2,3.4,2.7,5
				c1.4,3.3,2.2,6.6,2.4,9.4c0.3,2.8,0,5.3-0.4,7.2c-0.5,1.9-1,3.3-1.4,4.3C419.5,136,419.2,136.4,419.2,136.4z"/>
			<path class="st21" d="M289.6,192.5c-2.4-2.3-4.6-4.9-6.5-7.7s-3.4-5.7-4.7-8.8c-1.3-3.1-2.3-6.2-3.1-9.4
				c-0.8-3.2-1.3-6.4-1.6-9.6c-0.3-3.2-0.5-6.5-0.5-9.7s0.2-6.4,0.5-9.6c0.2-1.6,0.4-3.2,0.6-4.8c0.2-1.6,0.5-3.1,0.8-4.7l0.2-1.2
				l0.2-1.2l0.5-2.3c0.2-0.8,0.3-1.6,0.5-2.3l0.6-2.3c6.3-24.7,15.4-38.6,33.7-56.3l4.8-4.1c-1.8,5-7.7,12.9-10.7,17.1
				c-13,15.9-22.4,35-26.9,55.6c-1.2,5.1-2,10.4-2.3,15.7s-0.2,10.7,0.5,16s2,10.7,4.2,15.7C282.6,183.5,285.7,188.4,289.6,192.5z"
				/>
		</g>
	</g>
	<path class="st19" d="M270.7,438.9c13.6-24.9,13.9-56.7,0.8-81.9c-9.2-7.6-17-16.5-20.1-27.8c-1.7-6-1.9-12.3-2.1-18.5
		c-0.8-23.7,19.7-52.7,2.4-90.6c15-11.4,38.6-19.4,38.6-19.4c-0.5,8.5,3.9,17.1,10.1,23.1c7.5,7.2,17.2,11.5,26.8,15.6
		c4,1.7,8.1,3.4,12.3,4.9c4.2-1.5,8.4-3.2,12.3-4.9c9.6-4.1,19.3-8.4,26.8-15.6c6.2-6,10.5-14.6,10.1-23.1c0,0,23.6,8.1,38.6,19.4
		c-14.3,42.6,3.2,67,2.4,90.6c-0.2,6.2-0.4,12.5-2.1,18.5c-3.1,11.3-10.9,20.2-20.1,27.8c-13.1,25.2-12.8,56.9,0.8,81.9
		c0,0-44.7,6.1-68.8,6.1C315.5,445,270.7,438.9,270.7,438.9z"/>
	<path class="st22" d="M286.8,385.1c-3-6-4.9-19.1,2.6-22.1c9-3.8,18.8,1.5,28.5-1.5c1.5-0.8,2.3-3,0-3.8
		c-23.3-10.5-60.8-11.3-63-42.8c-1.1-15,3.1-30.3,2.1-45.2c-2.8,15.4-8,28.9-7.6,41c0.2,6.2,0.4,12.5,2.1,18.5
		c3.1,11.3,10.9,20.2,20.1,27.8c8.3,16.1,11.2,34.8,8.7,52.8C284.4,407.6,287.3,393.7,286.8,385.1z"/>
	<path class="st22" d="M422.9,268.9c-1.4,2.4-2.6,4.9-3,7.8c-3,18.8,7.5,37.5,0,54c-9.8,21-54.8,27.7-54.8,30.8c0,3,33-6,31.5,9.8
		c-1.5,9-11.3,17.3-6,24.8c2.5,3.4,5.1,6.6,7.7,9.8c-1.6-16.7,1.5-33.9,9.2-48.8c9.2-7.6,17-16.5,20.1-27.8c1.7-6,1.9-12.3,2.1-18.5
		C430.2,298,425.3,284.9,422.9,268.9z"/>
	<path class="st23" d="M434.4,488.9c0-15.2-34.2-71.1-39-79.8c-41.1,17.1-70.6,12.1-112.4-2.8c0,0-20.1,51.7-33.8,77.8
		c-2.7,7.1-3.8,45.3-2.2,79.8c2.4,49.5,5.4,137.3,5.4,137.3s30.2,10.3,80.2,10.1c58.6-0.3,97.2-9.4,97.2-9.4
		S434.4,497.2,434.4,488.9z"/>
	<g class="st1">
		<g>
			<g>
				<g>
					<g>
						<g>
							<path class="st2" d="M528,222.9c0,0,1.9-21.1,1.8-36.3c-0.1-7.6-1.7-15.1,1-16.6c4.8-2.7,9.8-0.3,12.2,8
								c2.1,6.8,1,18.8,2.3,21.9c3.2,7.6,13.1,19.1,14.2,21C560.3,222.6,528.1,230.5,528,222.9z"/>
						</g>
						<g>
							<path class="st3" d="M533.1,198.8c0,0,35.2-2.3,39.8-6.3c3.1-2.6,14.8,29.4,16.1,33.2c2.1,5.8,1.5,12.9-11.3,20.4
								c-11.3,6.7-23.1,16.6-39,8.9C521.4,246.6,529.1,202.6,533.1,198.8z"/>
						</g>
					</g>
				</g>
			</g>
		</g>
	</g>
	<g class="st1">
		<path class="st24" d="M560.7,191.9h-454c-4.5,0-8.1,3.6-8.1,8.1v286.1c0,4.5,3.6,8.1,8.1,8.1h454c4.5,0,8.1-3.6,8.1-8V200.1
			C568.8,195.5,565.2,191.9,560.7,191.9z M549.9,477.7H111.4v-269h438.5V477.7z"/>
		<ellipse transform="matrix(0.1602 -0.9871 0.9871 0.1602 130.5135 839.7601)" class="st25" cx="558.8" cy="343.2" rx="7" ry="7"/>
	</g>
	<rect x="-4.5" y="1.4" class="st4" width="639.5" height="502.9"/>
	<g class="st1">
		<g>
			<path class="st2" d="M93.3,186.9c0,0,7.3,13.4,8.5,14.9c1,1.5,7.7,9.9,10.8,14.3s-2.2,12.2-12.9,2.8c-7.7-7.1-9.7-8.9-12.1-12.6
				c-2.4-3.6-9.3-14.8-8.6-18.9C79.9,183.4,89.1,177.4,93.3,186.9z"/>
		</g>
		<g>
			<path class="st2" d="M101.3,180.7c0,0,7.3,13.4,8.5,14.9c1,1.5,7.7,9.9,10.8,14.3s-2.2,12.2-12.9,2.8c-7.7-7.1-9.7-8.9-12.1-12.6
				c-2.4-3.6-9.3-14.8-8.6-18.9C87.8,177.3,97.1,171.2,101.3,180.7z"/>
		</g>
		<g>
			<path class="st2" d="M87.8,204c0,0,7.1,11.7,8.1,13c1,1.3,7.5,8.4,10.4,12.1c3,3.7-2.2,11.6-12.4,4c-7.5-5.8-9.3-7.3-11.6-10.4
				c-2.4-3.1-9-12.9-8.2-16.7C74.9,202.2,83.7,195.7,87.8,204z"/>
		</g>
		<g>
			<path class="st2" d="M81.3,216.3c0,0,5.7,9.7,6.6,10.8c0.9,1.2,6.2,6.8,8.5,9.9c2.3,3.1-2.6,10.2-11.3,4.1
				c-6.3-4.5-7.9-5.8-9.8-8.2c-1.9-2.6-7.2-10.6-6.3-13.9C69.9,215.4,78.1,209.2,81.3,216.3z"/>
		</g>
	</g>
</g>
<g>
	<g>
		<path class="st2" d="M579,187.4c0,0-7.3,13.4-8.5,14.9c-1.2,1.5-7.7,9.9-10.8,14.3s2.2,12.2,12.9,2.8c7.7-7.1,9.7-8.9,12.1-12.6
			c2.4-3.6,9.3-14.8,8.6-18.9C592.5,183.9,583.3,177.8,579,187.4z"/>
	</g>
	<g>
		<path class="st2" d="M571,181.2c0,0-7.3,13.4-8.5,14.9c-1,1.5-7.7,9.9-10.8,14.3c-3.1,4.4,2.2,12.2,12.9,2.8
			c7.7-7.1,9.7-8.9,12.1-12.6c2.4-3.6,9.3-14.8,8.6-18.9C584.6,177.7,575.4,171.6,571,181.2z"/>
	</g>
	<g>
		<path class="st2" d="M584.6,204.6c0,0-7.1,11.7-8.1,13S569,226,566,229.7c-3,3.7,2.2,11.6,12.4,4c7.5-5.8,9.3-7.3,11.6-10.4
			c2.4-3.1,9-12.9,8.2-16.7C597.6,202.7,588.7,196.1,584.6,204.6z"/>
	</g>
	<g>
		<path class="st2" d="M591,216.7c0,0-5.7,9.7-6.6,10.8c-0.9,1.2-6.2,6.8-8.5,9.9c-2.3,3.1,2.6,10.2,11.3,4.1
			c6.3-4.5,7.9-5.8,9.8-8.2c1.9-2.6,7.2-10.6,6.3-13.9C602.6,216,594.2,209.8,591,216.7z"/>
	</g>
</g>
</svg>
