<?xml version="1.0" encoding="utf-8"?>
<!-- Generator: Adobe Illustrator 25.2.1, SVG Export Plug-In . SVG Version: 6.00 Build 0)  -->
<svg version="1.1" id="Layer_1" xmlns="http://www.w3.org/2000/svg" xmlns:xlink="http://www.w3.org/1999/xlink" x="0px" y="0px"
	 viewBox="0 0 450 300" style="enable-background:new 0 0 450 300;" xml:space="preserve">
<style type="text/css">
	.st0{clip-path:url(#SVGID_2_);fill:#FFD5BD;}
	.st1{clip-path:url(#SVGID_2_);}
	.st2{fill:#FFD5BD;}
	.st3{fill:#EFB296;}
	.st4{clip-path:url(#SVGID_2_);fill:none;}
	.st5{fill:#FFE1CF;}
	.st6{fill:#573B39;}
	.st7{fill:#FFB296;}
	.st8{fill:#0A0A0A;}
	.st9{fill:#EB5B5B;}
	.st10{fill:#8C3033;}
	.st11{fill:#FFFFFF;}
	.st12{fill:#894D3E;}
	.st13{fill:#D99D85;}
	.st14{fill:#270B04;}
	.st15{fill:#FFFEFE;}
	.st16{fill:#5C231F;}
	.st17{fill:#5E2B16;}
	.st18{fill:#240A04;}
	.st19{clip-path:url(#SVGID_2_);fill:#BF8958;}
	.st20{fill:#2D2D2D;}
	.st21{fill:#424242;}
	.st22{clip-path:url(#SVGID_2_);fill:#432F38;}
	.st23{clip-path:url(#SVGID_2_);fill:#063530;}
	.st24{fill:#EAEAEA;}
	.st25{fill:none;stroke:#000000;stroke-width:0.25;stroke-miterlimit:10;}
</style>
<g>
	<defs>
		<rect id="SVGID_1_" x="-4.7" y="-2.4" width="454.2" height="303.9"/>
	</defs>
	<clipPath id="SVGID_2_">
		<use xlink:href="#SVGID_1_"  style="overflow:visible;"/>
	</clipPath>
	<path class="st0" d="M140.2,229c-2.2,3.2-5.9,6.7-10.3,7.2c-5.4,0.6-12.3-8.9-17.9-26c-5.1-15.2-15.2-59.7-15.2-59.7s0,0,0-0.1l0,0
		l0.2-16.7l11.9,0.9l4.6,12.6c8.6,20.9,20.7,45,29.3,65.9C144.2,216.7,142.4,225.7,140.2,229z"/>
	<g class="st1">
		<g>
			<g>
				<g>
					<g>
						<path class="st2" d="M110.1,133.5c0,0-1.1-11.6-1-20c0.1-4.2,0.9-8.3-0.6-9.2c-2.6-1.5-5.4-0.1-6.7,4.4
							c-1.1,3.8-0.6,10.4-1.3,12.1c-1.8,4.2-7.2,10.5-7.8,11.6C92.2,133.3,110,137.7,110.1,133.5z"/>
					</g>
					<g>
						<path class="st3" d="M106.8,122.1c0,0-17.4-3.3-20-5.5c-1.7-1.4-8.2,16.2-8.9,18.3c-1.1,3.2-0.9,7.1,6.3,11.2
							c6.3,3.7,12.7,9.2,21.5,4.9C115.2,146.5,109,124.2,106.8,122.1z"/>
					</g>
				</g>
			</g>
		</g>
	</g>
	<path class="st0" d="M316.3,228.1c2.1,3,5.6,6.2,9.8,6.7c5.1,0.5,11.7-8.3,17.1-24.1c4.8-14.1,14.5-55.5,14.5-55.5s0,0,0-0.1l0,0
		l-0.2-15.5l-11.3,0.9l-4.4,11.7c-8.2,19.4-19.7,41.8-27.9,61.3C312.5,216.7,314.2,225.1,316.3,228.1z"/>
	<rect x="92.9" y="-0.5" class="st4" width="262.6" height="299.7"/>
	<g class="st1">
		<path class="st5" d="M280.3,347.5c0,0-7,44.2-8.3,51s-23.6,10.1-30.4-1c0.1-5.9,0.5-24.5-0.5-38.3c-1.1-13.8-1.2-30.5-2.1-52.6
			c-0.9-22.1,49-40.4,46.3-12.8C282.5,321.3,280.3,347.5,280.3,347.5z"/>
		<g>
			<path class="st2" d="M241,406c0,0,3.7,34.7,6,75.7c1.5,27.8,2.3,58.4,0.8,83.1c0,0-0.6,24-2.2,47.4c0.5,7,20.6,3,23.9,2.6
				c3.3-0.5-5.3-49.4-5.3-49.4s0.7-5.9-0.9-14.4c-1.6-8.5-2.8-7.5,1.9-28.2c5-21.8,15.3-74,14.8-88.2c-0.5-15.8-4.2-46.2-14.7-56.7
				c0,0-3.1-1-14.4,0.5C239.5,379.9,241,406,241,406z"/>
			<path class="st6" d="M247.7,567.3c0,0-5.3,35.4-5.7,43.9c-0.2,6.2,7.1,16,12.6,16c4,0,10.4,0.4,12.9-0.5
				c3.6-1.3,10-13.4,7.7-20.8c-4.5-14.2-11.2-40.4-11.2-40.4s6.3,36.1,5.1,42.3c-0.7,3.6-21.1,2.6-21.6,0
				C246.3,601.7,247.7,567.3,247.7,567.3z"/>
			<path class="st7" d="M249.1,397.1c0,0,11.3,7.4,17.3,3.9C266.4,401,252.9,399.4,249.1,397.1z"/>
		</g>
	</g>
	<g class="st1">
		<path class="st5" d="M185.9,347.5c0,0,7,44.2,8.3,51s23.6,10.1,30.4-1c-0.1-5.9-0.5-24.5,0.5-38.3c1.1-13.8,1.2-30.5,2.1-52.6
			c0.9-22.1-49-40.4-46.3-12.8C183.6,321.3,185.9,347.5,185.9,347.5z"/>
		<g>
			<path class="st2" d="M225.2,406c0,0-3.7,34.7-6,75.7c-1.5,27.8-2.3,58.4-0.8,83.1c0,0,0.6,24,2.3,47.4c-0.5,7-20.6,3-23.9,2.6
				c-3.3-0.5,5.3-49.4,5.3-49.4s-0.7-5.9,0.9-14.4c1.6-8.5,2.8-7.5-1.9-28.2c-5-21.8-15.3-74-14.8-88.2c0.5-15.8,4.2-46.2,14.7-56.7
				c0,0,3.1-1,14.4,0.5C226.7,379.9,225.2,406,225.2,406z"/>
			<path class="st6" d="M218.5,567.3c0,0,5.3,35.4,5.7,43.9c0.2,6.2-7.1,16-12.6,16c-4,0-10.4,0.4-12.9-0.5
				c-3.6-1.3-10-13.4-7.7-20.8c4.5-14.2,11.2-40.4,11.2-40.4s-6.3,36.1-5.1,42.3c0.7,3.6,21.1,2.6,21.6,0
				C219.8,601.7,218.5,567.3,218.5,567.3z"/>
			<path class="st7" d="M217.1,397.1c0,0-11.3,7.4-17.3,3.9C199.7,401,213.3,399.4,217.1,397.1z"/>
		</g>
	</g>
	<g class="st1">
		<path class="st8" d="M213.8,77.3c4.9-3.3,8.2-9.5,6.6-15.3l0.9-6.7c-5.2-8.4-11.9-16.2-20.7-19.8c-9.4-3.8-21.7-1.4-26.9,8
			c-4.9,2-8.4,7.7-8.5,13.4c-0.1,7.1,4.3,13.6,9.9,17.4c5.6,3.8,12.4,5.3,19,6.1c6.2,0.7,12.7,0.7,18.2-2.3
			C213,77.9,213.4,77.6,213.8,77.3z"/>
		<path class="st8" d="M171.8,46.1c0,0-0.1,0-0.2-0.1c-0.1-0.1-0.3-0.1-0.5-0.3c-0.4-0.3-1-0.8-1.4-1.7c-0.2-0.4-0.4-1-0.5-1.6
			s-0.1-1.3,0-2c0.1-0.7,0.3-1.5,0.7-2.3c0.1-0.2,0.2-0.4,0.4-0.6c0.1-0.2,0.2-0.4,0.4-0.5c0.1-0.2,0.3-0.4,0.4-0.5
			c0.2-0.2,0.3-0.4,0.5-0.5c1.4-1.3,3.2-2.3,5.2-3c1-0.4,2-0.6,3-0.8c0.5-0.1,1.1-0.2,1.6-0.3c0.5-0.1,1.1-0.2,1.7-0.2
			c4.5-0.6,9.6-0.4,14.7,1.1c5.1,1.4,9.6,4,13.1,6.9c3.5,2.9,6.1,6.2,7.8,9c1.8,2.9,2.7,5.4,3.3,7.2c0.1,0.4,0.2,0.8,0.4,1.2
			c0.1,0.4,0.2,0.7,0.2,0.9c0.1,0.5,0.2,0.7,0.2,0.7s-0.1-0.2-0.4-0.7c-0.1-0.2-0.3-0.5-0.5-0.8c-0.2-0.3-0.4-0.7-0.7-1
			c-1-1.5-2.5-3.6-4.6-6c-2.1-2.3-4.9-4.8-8.3-7.1c-3.4-2.3-7.4-4.2-11.9-5.4s-8.9-1.8-12.9-1.7c-0.5,0-1,0-1.5,0.1
			c-0.5,0-1,0.1-1.5,0.1c-0.9,0.1-1.9,0.2-2.7,0.4c-1.7,0.3-3.3,0.8-4.4,1.5c-2.4,1.4-3,4.1-2.7,5.7c0.1,0.8,0.5,1.4,0.8,1.8
			C171.6,45.8,171.8,45.9,171.8,46.1C171.8,46,171.8,46.1,171.8,46.1z"/>
		<path class="st8" d="M170.8,49.3c0,0-0.1,0-0.2,0.1c-0.2,0-0.4,0.1-0.7,0.1c-0.6,0.1-1.5,0.4-2.6,0.9c-1,0.5-2.1,1.4-3.1,2.7
			c-0.9,1.2-1.8,3-2,4.9c-0.2,2,0,4.1,0.9,6.2c0.4,1.1,1,2.1,1.7,3.1c0.7,1,1.5,2,2.4,2.8c1.9,1.8,4.2,3.3,6.9,4.6
			c2.6,1.3,5.5,2.4,8.5,3.3c6,1.8,12,2.3,17.3,1.4c5.3-0.8,9.7-3.1,13-5.7c1.6-1.3,3-2.7,4-3.9c0.2-0.4,0.5-0.7,0.8-0.9
			c0.2-0.3,0.4-0.7,0.7-0.9c0.4-0.6,0.7-1.2,1-1.7c0.2-0.2,0.3-0.5,0.4-0.8c0.1-0.2,0.2-0.5,0.3-0.7c0.2-0.4,0.4-0.8,0.5-1.1
			c0.2-0.6,0.4-0.9,0.4-0.9s-0.1,0.4-0.2,0.9c-0.1,0.3-0.1,0.7-0.2,1.2c-0.1,0.2-0.1,0.5-0.2,0.7c-0.1,0.2-0.1,0.5-0.2,0.8
			c-0.2,0.6-0.4,1.2-0.7,1.9c-0.2,0.4-0.3,0.7-0.5,1.1c-0.2,0.4-0.4,0.7-0.6,1.1c-0.9,1.5-2.1,3.2-3.6,4.8c-1.5,1.6-3.5,3.2-5.8,4.6
			c-2.3,1.4-5,2.6-8,3.3c-0.4,0.1-0.8,0.2-1.1,0.2l-0.6,0.1l-0.6,0.1c-0.4,0.1-0.8,0.1-1.2,0.2c-0.4,0.1-0.8,0.1-1.2,0.1l-0.6,0.1
			l-0.6,0.1c-0.4,0-0.8,0.1-1.2,0.1c-0.4,0-0.8,0-1.2,0h-0.6h-0.6c-1.7-0.1-3.3-0.2-5-0.5c-1.7-0.3-3.3-0.7-5-1.2
			c-3.3-1-6.4-2.3-9.3-3.9c-2.8-1.6-5.5-3.5-7.6-5.8c-1.1-1.1-2-2.4-2.7-3.7c-0.7-1.3-1.3-2.7-1.7-4c-0.8-2.7-0.8-5.4-0.1-7.7
			c0.3-1.1,0.8-2.2,1.4-3.1c0.5-0.9,1.2-1.7,1.9-2.3c1.3-1.2,2.7-2,3.9-2.4c1.2-0.4,2.2-0.5,2.8-0.5c0.3,0,0.6,0.1,0.7,0.1
			C170.7,49.3,170.8,49.3,170.8,49.3z"/>
	</g>
	<g class="st1">
		<g>
			<g>
				<path class="st2" d="M191.1,125.6c5.5-1.1,20.7-9.1,22.5-12.8c0.8-1.4,0.8-3,0.9-4.5c0.7-9.2,2-27.7,2-27.7h29.7
					c0,0,1.3,18.5,2,27.7c0.1,1.5,0.2,3.1,0.9,4.5c1.9,3.7,17,11.6,22.5,12.8S232,150.3,232,150.3S185.6,126.8,191.1,125.6z"/>
			</g>
		</g>
		<g>
			<g>
				<path class="st3" d="M237,108.9c3.8-3.5,7.2-7.3,10.4-11.2c-0.6-8.4-1.2-17-1.2-17h-29.7c0,0-1.3,18.5-2,27.7
					c-0.1,1.5-0.2,3.1-0.9,4.5c-0.7,1.4-3.4,3.5-6.8,5.6C217.7,118.9,228.4,116.9,237,108.9z"/>
			</g>
		</g>
	</g>
	<path class="st0" d="M203.4,83.7c-2.5-2.1-5-4.2-7.2-6.8c-2.1-2.6-3.8-5.6-4.3-9c-0.5-3.3-0.5-7.4,2.8-8.8c2.8-1.2,8.5,6.8,8.5,6.8
		L203.4,83.7z"/>
	<path class="st0" d="M197.5,41.6c0-15.3,20.1-27.4,31.6-27.5l0,0h4.2l0,0c11.5,0.2,31.6,12.3,31.6,27.5c0,0-1.8,28.2-3.7,40.5
		c-2,12.3-22.5,26.5-29.9,26.5s-28-14.2-29.9-26.5C199.3,69.9,197.5,41.6,197.5,41.6z"/>
	<path class="st0" d="M259,83.7c2.5-2.1,5-4.2,7.2-6.8c2.1-2.6,3.8-5.6,4.3-9s0.5-7.4-2.8-8.8c-2.8-1.2-8.5,6.8-8.5,6.8L259,83.7z"
		/>
	<g class="st1">
		<g>
			<g>
				<g>
					<path class="st9" d="M244.2,84.3c-1.1,0.5-3.4,3-5.4,5.2c-1.7,1.9-3.7,3.9-7.3,3.9c-3.3,0-5.9-2-7.8-4
						c-2.1-2.4-4.6-4.8-5.9-5.5c-0.2-0.1,1.2,0.4,3.8-0.2c2.7-0.7,7.2-0.2,8.8-0.2c1.4,0,5.3-1.1,11.7,0.6
						C243.5,84.3,244.4,84.2,244.2,84.3z"/>
				</g>
				<path class="st10" d="M220.8,84.8c0,0,1.4,0.1,4.5,0.2c2,0.1,4.3,0.7,6,0.7c1.9,0,4.1-0.6,6.3-0.7c2.7-0.2,4.2-0.2,4.2-0.2
					c-1.2,0.9-2.3,1.9-3.3,3c-2.2,1.7-4.5,2.4-7.5,2.4c-3,0-5.3-1.3-6.4-2.3C223.4,86.8,222.1,85.8,220.8,84.8z"/>
				<path class="st11" d="M231,88.8c6.1,0,9-4,9.1-4c-0.7,0.1-1.5,0.1-2.6,0.1c-2.2,0.1-4.4,0.7-6.3,0.7c-1.6,0-4-0.5-6-0.7
					c-1.2-0.1-2.1-0.1-2.8-0.2C222.5,84.8,226.8,88.8,231,88.8z"/>
			</g>
		</g>
		<path class="st3" d="M230.5,80.5c-0.2-0.1-0.4-0.2-0.5-0.4c-0.8-0.7-1.6-1.4-2.3-2.3c-0.5-0.6-0.9-1.3-0.8-2.1
			c0.1-0.8,0.8-1.4,1.3-1.9c1.5-1.4,2.6-3.5,3.1-5.8c0.2,1.6-0.1,3.3-0.8,4.6c-0.3,0.5-0.7,1-0.8,1.6c-0.1,0.8,0.4,1.6,0.9,2.1
			c0.5,0.5,1.1,0.9,1.6,1.6c0.4,0.7,0.6,1.7,0.1,2.3C231.8,81,231.1,80.9,230.5,80.5z"/>
		<g>
			<path class="st12" d="M223.5,59c0,0,0.1-1.7-1.1-2.6c-1.1-0.9-6.7-0.7-9.3-0.6c-2.6,0.1-10.3,3-10.3,3s7.2-1,10.1-0.7
				C215.8,58.4,223.5,59,223.5,59z"/>
			<g>
				<path class="st13" d="M222.8,68.7c0,0-0.3-10.4-11.5-9.8c-6.1,0.4-6.1,4.3-6.1,4.3L222.8,68.7z"/>
				<path class="st14" d="M222.2,67.3c0,0-2-3.6-8-3.7c-3.8,0.1-7.3,1.4-9.6,0.1c0,0,2.1,0.1,4.6-0.2C213,63,218.4,61.7,222.2,67.3z
					"/>
				<path class="st13" d="M223.3,70.6c0,0-6.5,0.5-8.7,0.6c-2.8,0.1-6.7-2.7-6.7-2.7s1.4,3.6,6.7,3.4C218,71.9,221,70.9,223.3,70.6z
					"/>
				<path class="st15" d="M223.3,70.6c0,0-0.2-8.2-10.9-7.7c-3,0.2-6.7,1.3-6.7,1.3s2.6,7.5,9.3,7C221.2,70.8,223.3,70.6,223.3,70.6
					z"/>
				<g>
					<g>
						<path class="st16" d="M219.7,66.8c0,2.3-2,4.2-4.5,4.2c-2.4,0-4.5-1.9-4.5-4.2s2-4.2,4.5-4.2
							C217.7,62.6,219.7,64.5,219.7,66.8z"/>
						
							<image style="overflow:visible;enable-background:new    ;" width="63" height="58" xlink:href="C969A71C.png"  transform="matrix(0.2299 0 0 0.2299 213.9575 1.2123)">
						</image>
					</g>
					<path class="st17" d="M213,66.7c0-1.2,1.1-2.3,2.4-2.3s2.4,1,2.4,2.3c0,1.2-1.1,2.3-2.4,2.3C214.1,69,213,68,213,66.7z"/>
					<path class="st11" d="M211.8,66.8c0,0.7,0.9,1.3,1.4,1.3c0.4,0,1.5-0.5,1.5-1.3s-0.9-1.4-1.5-1.4
						C212.5,65.5,211.8,66.1,211.8,66.8z"/>
					<path class="st11" d="M216.5,68.9c0,0.2,0.4,0.5,0.5,0.5c0.1,0,0.5-0.2,0.5-0.5c0-0.2-0.3-0.5-0.5-0.5
						C216.8,68.4,216.5,68.6,216.5,68.9z"/>
				</g>
				<path class="st16" d="M223.3,70.6c0,0-0.5-7.4-9.5-7.5c-5.7,0.4-7.5,2.8-10.7-0.6c0,0,1.2,1.2,6.2-0.6
					C214.4,60.1,223.1,61.3,223.3,70.6z"/>
				<path class="st16" d="M203.1,62.6c0,0,2.3,5.3,7.3,7.7c0,0-4.3-4.7-3.2-6L203.1,62.6z"/>
				<path class="st18" d="M209.6,69.6c0,0,2.5,2.1,6.9,1.6c0,0-4.5,1.2-8.1-2.1L209.6,69.6z"/>
			</g>
		</g>
		<g>
			
				<image style="overflow:visible;enable-background:new    ;" width="142" height="92" xlink:href="C969A71D.png"  transform="matrix(0.2341 0 0 0.2341 202.4176 17.0306)">
			</image>
			
				<image style="overflow:visible;enable-background:new    ;" width="142" height="92" xlink:href="C969A71B.png"  transform="matrix(0.2341 0 0 0.2341 263.3776 17.0306)">
			</image>
		</g>
		<g>
			<path class="st12" d="M239.8,59c0,0-0.1-1.7,1.1-2.6c1.1-0.9,6.7-0.7,9.3-0.6s10.3,3,10.3,3s-7.2-1-10.1-0.7
				C247.5,58.4,239.8,59,239.8,59z"/>
			<g>
				<path class="st13" d="M240.6,68.7c0,0,0.3-10.4,11.5-9.8c6.1,0.4,6.1,4.3,6.1,4.3L240.6,68.7z"/>
				<path class="st14" d="M241.2,67.3c0,0,2-3.6,8-3.7c3.8,0.1,7.3,1.4,9.6,0.1c0,0-2.1,0.1-4.6-0.2C250.4,63,245,61.7,241.2,67.3z"
					/>
				<path class="st13" d="M240.1,70.6c0,0,6.5,0.5,8.7,0.6c2.8,0.1,6.7-2.7,6.7-2.7s-1.4,3.6-6.7,3.4
					C245.3,71.9,242.3,70.9,240.1,70.6z"/>
				<path class="st15" d="M240.1,70.6c0,0,0.2-8.2,10.9-7.7c3,0.2,6.7,1.3,6.7,1.3s-2.6,7.5-9.3,7C242.1,70.8,240.1,70.6,240.1,70.6
					z"/>
				<g>
					<g>
						<path class="st16" d="M243.6,66.8c0,2.3,2,4.2,4.5,4.2c2.4,0,4.5-1.9,4.5-4.2s-2-4.2-4.5-4.2
							C245.6,62.6,243.6,64.5,243.6,66.8z"/>
						
							<image style="overflow:visible;enable-background:new    ;" width="63" height="58" xlink:href="C969A724.png"  transform="matrix(0.2299 0 0 0.2299 269.1575 1.2123)">
						</image>
					</g>
					<path class="st17" d="M250.3,66.7c0-1.2-1.1-2.3-2.4-2.3s-2.4,1-2.4,2.3c0,1.2,1.1,2.3,2.4,2.3C249.2,69,250.3,68,250.3,66.7z"
						/>
					<path class="st11" d="M250.2,65.5c-0.7,0-1.5,0.7-1.5,1.4c0,0.7,1.2,1.2,1.5,1.3c0.5,0,1.4-0.6,1.4-1.3
						C251.5,66.1,250.8,65.5,250.2,65.5z"/>
					<path class="st11" d="M246.3,68.4c-0.2,0-0.5,0.2-0.5,0.5c0,0.2,0.4,0.5,0.5,0.5c0.2,0,0.5-0.2,0.5-0.5
						C246.8,68.6,246.6,68.4,246.3,68.4z"/>
				</g>
				<path class="st16" d="M240.1,70.6c0,0,0.5-7.4,9.5-7.5c5.7,0.4,7.5,2.8,10.7-0.6c0,0-1.2,1.2-6.2-0.6
					C248.9,60.1,240.2,61.3,240.1,70.6z"/>
				<path class="st16" d="M260.3,62.6c0,0-2.3,5.3-7.3,7.7c0,0,4.3-4.7,3.2-6L260.3,62.6z"/>
				<path class="st18" d="M253.7,69.6c0,0-2.5,2.1-6.9,1.6c0,0,4.5,1.2,8.1-2.1L253.7,69.6z"/>
			</g>
		</g>
	</g>
	<path class="st0" d="M310.9,229.7c0,0-19.4-35-24.6-42.8s-19.9-37.4-11.7-45.3c8.1-7.8,22.3-1.8,30.9,14.4
		c8.6,16.2,21.2,55.1,27.1,66.4C338.4,233.6,318.4,243,310.9,229.7z"/>
	<path class="st19" d="M267.3,128.4c0,0,19.2-4.3,25.7,4.6c6.6,9,21.9,30.4,23.7,37c1.8,6.6-21.5,19.5-35.1,22.4
		C281.5,192.4,262,128.4,267.3,128.4z"/>
	<path class="st0" d="M144.5,231.3c0,0,20.7-34.2,26.1-41.9c5.5-7.7,21.2-36.7,13.4-44.9c-7.8-8.1-22.2-2.7-31.4,13.3
		c-9.2,15.9-23.2,54.4-29.4,65.4C116.9,234.3,136.5,244.3,144.5,231.3z"/>
	<path class="st19" d="M193.1,128.4c0,0-19.2-4.3-25.7,4.6c-6.6,9-21.9,30.4-23.7,37c-1.8,6.6,21.5,19.5,35.1,22.4
		C178.8,192.4,198.4,128.4,193.1,128.4z"/>
	<g class="st1">
		<path class="st8" d="M272.9,44.5c-0.8-9.9-4.6-17.6-10.6-25.6c-6.1-8.1-15.7-13.9-26.1-14.2c-9.5-0.3-19.3,4.9-23.3,13
			c-5.9-1.4-12.8,0.9-17,5.2c-1.4,1.4-2.5,3-3.4,4.6c-2.7,4.9-3.8,10.6-4,16.3c-0.1,2.8,0.1,5.6,0.2,8.4c0,2.7,0.1,11.2,0.4,21.4
			c0.4,14.7,9.1,32.8,9.1,32.8c-5.8-22.3,0.4-44,5.8-57c5-3.9,9.4-8.5,13.3-14.1c0,0,11,10.8,22.5,17.6c11.8,7,21.8,9,33.1,10.2
			C272.9,63,273.6,52.5,272.9,44.5z"/>
		<path class="st20" d="M216.3,30.7c-2.3-12.5,8.9-22.3,20.5-23.6c4.7-0.7,9.4-0.1,13.8,1.5c-4.4-2.4-9.3-3.9-14.4-4
			c-9.5-0.3-19.3,4.9-23.3,13c-5.9-1.4-12.8,0.9-17,5.2c-1.4,1.4-2.5,3-3.4,4.6c-2.7,4.9-3.8,10.6-4,16.3c0,0.9,0,1.9,0,2.8
			c2.1-5.7,1.9-12.9,4.8-18C198.3,20,212.3,22.3,216.3,30.7z"/>
		<g>
			<path class="st8" d="M256.6,98.9c8.3-18.3,10.4-42.3,5.9-61.8c0,0,0.1,0.2,0.4,0.5c11.3,17.7,9.3,46-5.9,60.9
				C256.7,98.8,256.6,98.9,256.6,98.9z"/>
			<path class="st8" d="M258.4,109.9c-0.1,0.2,1.5-2.8,2-3.7c3.1-6.7,4.9-14.4,5.6-21.8c0.1-1.4,0.2-2.9,0.4-4.4
				c0.1-1.5,0.1-3,0.2-4.5c0-1.5,0.1-3,0.1-4.5c0-1.4,0-2.8,0-4.3c-0.1-4.5-0.2-9-0.4-13.5c-0.1-3-0.2-6.1-0.2-8.8
				c0-0.6-0.1-1.1-0.1-1.6c-0.1-2,0-3.1,0-3.1c-0.1-0.2,1.8,2.8,2.3,3.7c1.3,2.6,2.4,5.5,3.2,8.5c0.1,0.5,0.2,0.9,0.3,1.4
				c0.2,1.2,0.5,2.6,0.7,3.8c0.4,3.1,0.5,6.4,0.5,9.6c-0.1,1.6-0.2,3.1-0.4,4.7c-0.2,1.6-0.5,3.2-0.7,4.9c-0.4,1.6-0.7,3.2-1.1,4.7
				c-0.4,1.5-0.8,3-1.2,4.5c-1.5,4.5-3.3,8.8-5.3,13.1c-1.3,2.6-2.7,5.2-4,7.5C259.9,107.1,258.2,110,258.4,109.9z"/>
		</g>
		<g>
			<path class="st21" d="M278.7,81.5c0,0,0.1-0.3,0.2-0.9c0.1-0.6,0.3-1.4,0.3-2.6c0-1.1-0.1-2.4-0.5-4c-0.4-1.5-1.1-3.1-2.1-4.7
				c-0.5-0.8-1.1-1.6-1.8-2.4c-0.3-0.4-0.7-0.8-1.1-1.1c-0.2-0.2-0.4-0.4-0.6-0.5l-0.3-0.3c-0.1-0.1-0.2-0.2-0.3-0.2
				c-0.8-0.7-1.8-1.4-2.8-2s-2.1-1.2-3.3-1.7c-2.3-1-4.9-1.8-7.6-2.6c-2.7-0.7-5.6-1.2-8.7-1.9c-3-0.6-6.1-1.3-8.9-2.2
				c-1.4-0.5-2.8-0.9-4.2-1.5c-0.7-0.3-1.4-0.6-2-0.9c-0.7-0.4-1.3-0.7-1.9-1c-2.4-1.4-4.6-2.9-6.5-4.5c-1.9-1.6-3.5-3.3-4.8-4.9
				c-1.8-2.2-3.7-4.7-4.6-6.5c0,0,4.8,3.6,6.3,4.9c1.5,1.3,3.1,2.7,5,4s4,2.5,6.3,3.6c0.6,0.3,1.2,0.5,1.8,0.8
				c0.6,0.2,1.2,0.5,1.8,0.7c1.2,0.4,2.6,0.8,3.9,1.2c2.7,0.7,5.6,1.3,8.7,1.9s6.1,1.2,8.9,2.1c2.9,0.9,5.6,2,8.1,3.3
				c1.2,0.7,2.4,1.4,3.5,2.3c1.1,0.8,2.1,1.7,3,2.6c0.1,0.1,0.2,0.2,0.4,0.4c0.1,0.1,0.2,0.2,0.3,0.4c0.2,0.2,0.4,0.5,0.6,0.7
				c0.4,0.5,0.8,0.9,1.1,1.5c0.7,1,1.2,2,1.6,3c0.8,2,1.3,3.9,1.4,5.6c0.2,1.7,0,3.1-0.2,4.3c-0.3,1.1-0.6,2-0.8,2.6
				C278.8,81.3,278.7,81.5,278.7,81.5z"/>
			<path class="st21" d="M201.7,114.8c-1.4-1.4-2.7-2.9-3.9-4.6c-1.1-1.7-2-3.4-2.8-5.2c-0.8-1.8-1.4-3.7-1.8-5.6
				c-0.5-1.9-0.8-3.8-0.9-5.7c-0.2-1.9-0.3-3.9-0.3-5.8c0-1.9,0.1-3.8,0.3-5.7c0.1-0.9,0.2-1.9,0.4-2.8c0.1-0.9,0.3-1.8,0.5-2.8
				l0.1-0.7l0.1-0.7l0.3-1.4c0.1-0.5,0.2-0.9,0.3-1.4l0.4-1.4c3.7-14.7,9.1-22.9,20-33.4l2.8-2.4c-1.1,3-4.6,7.7-6.3,10.1
				c-7.7,9.4-13.3,20.8-16,33c-0.7,3-1.2,6.2-1.4,9.3c-0.2,3.1-0.1,6.3,0.3,9.5s1.2,6.3,2.5,9.3
				C197.6,109.4,199.4,112.3,201.7,114.8z"/>
		</g>
	</g>
	<path class="st19" d="M190.5,261c8.1-14.8,8.2-33.6,0.5-48.6c-5.5-4.5-10.1-9.8-11.9-16.5c-1-3.6-1.1-7.3-1.2-11
		c-0.5-14.1,11.7-31.3,1.4-53.8c8.9-6.8,22.9-11.5,22.9-11.5c-0.3,5,2.3,10.1,6,13.7c4.5,4.3,10.2,6.8,15.9,9.3c2.4,1,4.8,2,7.3,2.9
		c2.5-0.9,5-1.9,7.3-2.9c5.7-2.4,11.5-5,15.9-9.3c3.7-3.6,6.2-8.7,6-13.7c0,0,14,4.8,22.9,11.5c-8.5,25.3,1.9,39.8,1.4,53.8
		c-0.1,3.7-0.2,7.4-1.2,11c-1.8,6.7-6.5,12-11.9,16.5c-7.8,15-7.6,33.8,0.5,48.6c0,0-26.5,3.6-40.8,3.6
		C217.1,264.6,190.5,261,190.5,261z"/>
	<path class="st22" d="M200.1,229.1c-1.8-3.6-2.9-11.3,1.5-13.1c5.3-2.3,11.2,0.9,16.9-0.9c0.9-0.5,1.4-1.8,0-2.3
		c-13.8-6.2-36.1-6.7-37.4-25.4c-0.7-8.9,1.8-18,1.2-26.8c-1.7,9.1-4.7,17.2-4.5,24.3c0.1,3.7,0.2,7.4,1.2,11
		c1.8,6.7,6.5,12,11.9,16.5c4.9,9.6,6.6,20.7,5.2,31.3C198.7,242.4,200.4,234.2,200.1,229.1z"/>
	<path class="st22" d="M280.9,160.1c-0.8,1.4-1.5,2.9-1.8,4.6c-1.8,11.2,4.5,22.3,0,32c-5.8,12.5-32.5,16.4-32.5,18.3
		c0,1.8,19.6-3.6,18.7,5.8c-0.9,5.3-6.7,10.3-3.6,14.7c1.5,2,3,3.9,4.6,5.8c-0.9-9.9,0.9-20.1,5.5-29c5.5-4.5,10.1-9.8,11.9-16.5
		c1-3.6,1.1-7.3,1.2-11C285.2,177.4,282.3,169.6,280.9,160.1z"/>
	<path class="st23" d="M287.7,290.7c0-9-20.3-42.2-23.1-47.4c-24.4,10.1-41.9,7.2-66.7-1.7c0,0-11.9,30.7-20.1,46.2
		c-1.6,4.2-2.3,26.9-1.3,47.4c1.4,29.4,3.2,81.5,3.2,81.5s17.9,6.1,47.6,6c34.8-0.2,57.7-5.6,57.7-5.6S287.7,295.6,287.7,290.7z"/>
	<g class="st1">
		<g>
			<g>
				<g>
					<g>
						<g>
							<path class="st2" d="M343.2,132.8c0,0,1.1-12.5,1.1-21.6c-0.1-4.5-1-8.9,0.6-9.9c2.8-1.6,5.8-0.2,7.3,4.7
								c1.2,4.1,0.6,11.2,1.4,13c1.9,4.5,7.8,11.3,8.4,12.5C362.4,132.6,343.3,137.3,343.2,132.8z"/>
						</g>
						<g>
							<path class="st3" d="M346.2,118.5c0,0,20.9-1.4,23.6-3.7c1.8-1.5,8.8,17.4,9.6,19.7c1.2,3.4,0.9,7.6-6.7,12.1
								c-6.7,4-13.7,9.9-23.2,5.3C339.3,146.9,343.9,120.8,346.2,118.5z"/>
						</g>
					</g>
				</g>
			</g>
		</g>
	</g>
	<g class="st1">
		<path class="st24" d="M362.6,114.5H93.2c-2.7,0-4.8,2.1-4.8,4.8v169.8c0,2.7,2.1,4.8,4.8,4.8h269.4c2.7,0,4.8-2.1,4.8-4.7V119.3
			C367.4,116.6,365.3,114.5,362.6,114.5z M356.2,284H96V124.4h260.2V284z"/>
		
			<ellipse transform="matrix(0.1602 -0.9871 0.9871 0.1602 101.9945 528.2839)" class="st25" cx="361.5" cy="204.2" rx="4.1" ry="4.1"/>
	</g>
	<g class="st1">
		<g>
			<path class="st2" d="M371.2,113.7c0,0-4.4,8-5,8.9c-0.7,0.9-4.6,5.9-6.4,8.5s1.3,7.3,7.6,1.7c4.6-4.2,5.7-5.3,7.2-7.5
				c1.5-2.1,5.5-8.8,5.1-11.2C379.3,111.6,373.8,108,371.2,113.7z"/>
		</g>
		<g>
			<path class="st2" d="M366.5,110c0,0-4.4,8-5,8.9c-0.6,0.9-4.6,5.9-6.4,8.5c-1.8,2.6,1.3,7.3,7.6,1.7c4.6-4.2,5.7-5.3,7.2-7.5
				c1.5-2.1,5.5-8.8,5.1-11.2C374.5,108,369.1,104.4,366.5,110z"/>
		</g>
		<g>
			<path class="st2" d="M374.5,123.9c0,0-4.2,7-4.8,7.7c-0.6,0.8-4.4,5-6.2,7.2s1.3,6.9,7.3,2.4c4.4-3.4,5.5-4.4,6.9-6.2
				c1.5-1.8,5.4-7.6,4.9-9.9C382.3,122.8,377,118.9,374.5,123.9z"/>
		</g>
		<g>
			<path class="st2" d="M378.4,131.1c0,0-3.4,5.7-3.9,6.4c-0.5,0.7-3.7,4.1-5,5.9c-1.4,1.8,1.5,6,6.7,2.4c3.7-2.7,4.7-3.4,5.8-4.9
				c1.1-1.5,4.3-6.3,3.7-8.3C385.2,130.7,380.3,127,378.4,131.1z"/>
		</g>
	</g>
	<rect id="SVGID_3_" x="27.2" y="1.4" class="st4" width="379.5" height="298.5"/>
	<g class="st1">
		<g>
			<path class="st2" d="M87.7,115.9c0,0,4,7.4,4.7,8.2c0.6,0.9,4.3,5.5,6,7.9c1.7,2.4-1.2,6.7-7.1,1.6c-4.3-3.9-5.3-4.9-6.7-7
				c-1.3-2-5.1-8.2-4.8-10.4C80.3,114,85.4,110.6,87.7,115.9z"/>
		</g>
		<g>
			<path class="st2" d="M92.1,112.5c0,0,4,7.4,4.7,8.2c0.6,0.9,4.3,5.5,6,7.9s-1.2,6.7-7.1,1.6c-4.3-3.9-5.3-4.9-6.7-7
				c-1.3-2-5.1-8.2-4.8-10.4C84.6,110.6,89.8,107.2,92.1,112.5z"/>
		</g>
		<g>
			<path class="st2" d="M84.6,125.3c0,0,3.9,6.5,4.5,7.2c0.6,0.7,4.1,4.6,5.8,6.7c1.6,2.1-1.2,6.4-6.8,2.2c-4.1-3.2-5.1-4-6.4-5.8
				c-1.3-1.7-5-7.1-4.5-9.2C77.5,124.4,82.4,120.7,84.6,125.3z"/>
		</g>
		<g>
			<path class="st2" d="M81.1,132.1c0,0,3.1,5.3,3.6,6c0.5,0.6,3.4,3.8,4.7,5.5c1.3,1.7-1.4,5.6-6.3,2.3c-3.5-2.5-4.3-3.2-5.4-4.5
				c-1.1-1.4-4-5.8-3.5-7.7C74.8,131.6,79.3,128.2,81.1,132.1z"/>
		</g>
	</g>
</g>
</svg>
