<?xml version="1.0" encoding="utf-8"?>
<!-- Generator: Adobe Illustrator 25.2.1, SVG Export Plug-In . SVG Version: 6.00 Build 0)  -->
<svg version="1.1" id="Layer_1" xmlns="http://www.w3.org/2000/svg" xmlns:xlink="http://www.w3.org/1999/xlink" x="0px" y="0px"
	 viewBox="0 0 900 550" style="enable-background:new 0 0 900 550;" xml:space="preserve">
<style type="text/css">
	.st0{clip-path:url(#SVGID_2_);fill:none;}
	.st1{clip-path:url(#SVGID_2_);}
	.st2{fill:#FFD5BD;}
	.st3{clip-path:url(#SVGID_2_);fill:#BF8958;}
	.st4{clip-path:url(#SVGID_4_);fill:#FFD5BD;}
	.st5{fill:#FFE1CF;}
	.st6{fill:#573B39;}
	.st7{fill:#FFB296;}
	.st8{clip-path:url(#SVGID_2_);fill:#FFD5BD;}
	.st9{fill:#EFB296;}
	.st10{fill:#0A0A0A;}
	.st11{fill:#EB5B5B;}
	.st12{fill:#8C3033;}
	.st13{fill:#FFFFFF;}
	.st14{fill:#894D3E;}
	.st15{fill:#D99D85;}
	.st16{fill:#270B04;}
	.st17{fill:#FFFEFE;}
	.st18{fill:#5C231F;}
	.st19{fill:#5E2B16;}
	.st20{fill:#240A04;}
	.st21{fill:#2D2D2D;}
	.st22{fill:#424242;}
	.st23{clip-path:url(#SVGID_2_);fill:#063530;}
	.st24{fill:#EAEAEA;}
	.st25{fill:none;stroke:#000000;stroke-width:0.25;stroke-miterlimit:10;}
</style>
<g>
	<defs>
		<rect id="SVGID_1_" x="-0.9" y="-0.2" width="900" height="549.5"/>
	</defs>
	<clipPath id="SVGID_2_">
		<use xlink:href="#SVGID_1_"  style="overflow:visible;"/>
	</clipPath>
	<rect x="296.5" y="-3" class="st0" width="669.2" height="549.2"/>
	<g class="st1">
		<path class="st2" d="M489.4,455.1c-11.2,2-16.9,12-30.4,28.5c-14.1,17.2-16.9,41.4-16.9,41.4s-4.8,16.8,7.1,16.1
			c18.7-1,41.8-26.2,53.3-37.8c3.2-3.3,15-20,14.1-28C515.1,462.6,494.4,454.2,489.4,455.1z"/>
	</g>
	<rect x="256.2" y="-20.4" class="st0" width="693" height="568.7"/>
	<path class="st3" d="M616,512.9c-4.1-8.3-6.7-26.5,3.6-30.7c12.4-5.2,25.9,2.1,39.5-2.1c2.1-1,3.1-4.1,0-5.2
		c-32.2-14.5-84-15.5-87.1-59.1c-1.6-20.7,4.2-41.9,2.8-62.5c-3.9,21.2-11.1,40-10.5,56.6c0.3,8.6,0.6,17.3,2.9,25.6
		c4.3,15.6,15.1,27.9,27.8,38.4c11.5,22.3,15.5,48.2,12,72.9C612.7,543.9,616.8,524.7,616,512.9z"/>
	<rect x="256.2" y="-20.4" class="st0" width="693" height="568.7"/>
	<path class="st3" d="M800.5,351.5c-2,3.3-3.6,6.8-4,10.8c-4.1,25.9,10.4,51.9,0,74.7c-13.5,29-75.7,38.3-75.7,42.6
		s45.7-8.3,43.6,13.5c-2.1,12.4-15.5,23.8-8.3,34.3c3.4,4.7,7,9.2,10.6,13.6c-2.2-23.1,2.1-46.8,12.7-67.4
		c12.7-10.5,23.4-22.8,27.8-38.4c2.3-8.3,2.6-17,2.9-25.6C810.6,391.6,803.7,373.6,800.5,351.5z"/>
	<g class="st1">
		<defs>
			<rect id="SVGID_3_" x="256.2" y="-20.4" width="693" height="568.7"/>
		</defs>
		<clipPath id="SVGID_4_">
			<use xlink:href="#SVGID_3_"  style="overflow:visible;"/>
		</clipPath>
		<path class="st4" d="M798.3,497.9c0,0,33.7-46.7,42.8-57.1c9.1-10.4,34.4-50.3,19.2-64.1c-15.2-13.8-40.8-8.6-55.7,13.3
			c-14.9,21.9-35.9,76.2-46,91.4C748.4,496.6,785.5,515.6,798.3,497.9z"/>
	</g>
	<rect x="296.5" y="-3" class="st0" width="669.2" height="549.2"/>
	<g class="st1">
		<path class="st5" d="M798.9,797.4c0,0-16.1,101.6-19.1,117.3c-3,15.6-54.1,23.2-70-2.2c0.1-13.7,1.1-56.3-1.2-88.1
			c-2.3-31.8-2.7-70.1-4.9-120.8c-2.1-50.8,112.5-92.8,106.4-29.5C804.1,737.3,798.9,797.4,798.9,797.4z"/>
		<g>
			<path class="st2" d="M708.6,931.9c0,0,8.7,79.8,13.8,174.1c3.5,63.7,5.3,134.1,1.9,191.1c0,0-1.3,55.1-5.1,109
				c1.2,16,47.3,6.9,54.8,5.8c7.5-1.1-12.3-113.6-12.3-113.6s1.5-13.6-2.1-33c-3.7-19.5-6.5-17.2,4.4-65
				c11.4-50.1,35-170.1,34-202.8c-1.1-36.5-9.6-106.1-33.6-130.2c0,0-7.3-2.3-33.1,1.2C705.3,871.9,708.6,931.9,708.6,931.9z"/>
			<path class="st6" d="M724.1,1302.7c0,0-12.4,81.3-13.1,100.7c-0.5,14.4,16.2,36.7,29,36.7c9.3,0,23.9,0.8,29.5-1.3
				c8.2-3,22.9-30.7,17.6-47.7c-10.2-32.6-25.6-93-25.6-93s14.5,82.8,11.7,97.3c-1.6,8.4-48.4,5.9-49.6-0.1
				C720.9,1381.7,724.1,1302.7,724.1,1302.7z"/>
			<path class="st7" d="M727.3,911.5c0,0,25.9,16.9,39.7,9C767.1,920.5,736.1,916.9,727.3,911.5z"/>
		</g>
	</g>
	<g class="st1">
		<path class="st5" d="M582.2,797.4c0,0,16.1,101.6,19.1,117.3c3,15.6,54.1,23.2,70-2.2c-0.1-13.7-1.1-56.3,1.2-88.1
			s2.7-70.1,4.9-120.8c2.1-50.8-112.5-92.8-106.4-29.5S582.2,797.4,582.2,797.4z"/>
		<g>
			<path class="st2" d="M672.5,931.9c0,0-8.7,79.8-13.8,174.1c-3.5,63.7-5.3,134.1-1.9,191.1c0,0,1.3,55.1,5.1,109
				c-1.2,16-47.3,6.9-54.8,5.8c-7.5-1.1,12.3-113.6,12.3-113.6s-1.5-13.6,2.1-33c3.7-19.5,6.5-17.2-4.4-65
				c-11.4-50.1-35-170.1-34-202.8c1.1-36.5,9.6-106.1,33.6-130.2c0,0,7.3-2.3,33.1,1.2C675.8,871.9,672.5,931.9,672.5,931.9z"/>
			<path class="st6" d="M656.9,1302.7c0,0,12.4,81.3,13.1,100.7c0.5,14.4-16.2,36.7-29,36.7c-9.3,0-23.9,0.8-29.5-1.3
				c-8.2-3-22.9-30.7-17.6-47.7c10.2-32.6,25.6-93,25.6-93s-14.5,82.8-11.7,97.3c1.6,8.4,48.4,5.9,49.6-0.1
				C660.1,1381.7,656.9,1302.7,656.9,1302.7z"/>
			<path class="st7" d="M653.7,911.5c0,0-25.9,16.9-39.7,9C613.9,920.5,645,916.9,653.7,911.5z"/>
		</g>
	</g>
	<path class="st8" d="M511.2,502.9c0,0,44.5-69.5,56.3-85.1c11.7-15.5,45.9-74.7,30.1-91.9s-45.7-6.7-65.6,25.6
		c-19.9,32.3-50.9,110.8-64.5,133.4C454.1,507.4,494.1,529.3,511.2,502.9z"/>
	<g class="st1">
		<g>
			<g>
				<path class="st2" d="M594,287.6c12.6-2.6,47.4-20.8,51.7-29.3c1.7-3.4,1.9-6.9,2.2-10.4c1.5-21.1,4.5-63.5,4.5-63.5h68.3
					c0,0,3,42.4,4.5,63.5c0.2,3.5,0.5,7,2.2,10.4c4.3,8.5,39.1,26.8,51.7,29.3c12.6,2.6-91,56.7-91,56.7S581.4,290.2,594,287.6z"/>
			</g>
		</g>
		<g>
			<g>
				<path class="st9" d="M699.5,249.2c8.7-8.1,16.4-16.8,24-25.7c-1.3-19.3-2.8-39.1-2.8-39.1h-68.2c0,0-3,42.4-4.5,63.5
					c-0.2,3.5-0.5,7-2.2,10.4c-1.6,3.3-8,8.1-15.7,12.8C655.2,272.1,679.7,267.6,699.5,249.2z"/>
			</g>
		</g>
	</g>
	<path class="st3" d="M605.2,296.3c0,0-43.8-10.6-59.2,9.6c-15.4,20.3-51.4,69.3-55.8,84.3c-4.4,15,48.6,45.7,79.9,52.6
		C570.1,442.8,617.4,296.4,605.2,296.3z"/>
	<g class="st1">
		<g>
			<path class="st10" d="M646.2,176.5c11.1-7.6,18.8-21.8,15.3-35.1l2.1-15.3c-11.8-19.3-27.3-37.3-47.6-45.4
				c-21.8-8.7-49.9-3.3-61.7,18.5c-11.2,4.6-19.4,17.6-19.5,30.6c-0.2,16.2,9.8,31.2,22.7,39.9c13,8.8,28.5,12.2,43.7,13.9
				c14.2,1.5,29.2,1.5,41.9-5.3C644.3,177.9,645.3,177.3,646.2,176.5z"/>
			<path class="st10" d="M549.8,104.7c0,0-0.1-0.1-0.4-0.2c-0.2-0.1-0.7-0.3-1.1-0.6c-0.9-0.6-2.2-1.8-3.3-3.9
				c-0.5-1-0.9-2.2-1.1-3.7c-0.2-1.4-0.3-3,0-4.6c0.2-1.6,0.7-3.5,1.6-5.2c0.2-0.4,0.5-0.9,0.8-1.3s0.6-0.8,0.9-1.2
				c0.3-0.4,0.6-0.8,1-1.2c0.4-0.4,0.7-0.8,1.1-1.1c3.2-3,7.4-5.2,11.8-6.7c2.2-0.8,4.6-1.4,6.9-1.9c1.2-0.3,2.5-0.5,3.7-0.7
				c1.2-0.2,2.6-0.4,3.8-0.6c10.3-1.3,22.1-0.8,33.8,2.6c11.7,3.3,22.1,9.2,30,15.8c8.1,6.7,13.9,14.1,17.9,20.7
				c4.1,6.6,6.2,12.5,7.6,16.4c0.3,1,0.6,1.9,0.8,2.7c0.2,0.8,0.4,1.4,0.5,2c0.3,1.1,0.4,1.6,0.4,1.6s-0.3-0.5-0.9-1.4
				c-0.3-0.5-0.6-1-1-1.7s-0.9-1.4-1.5-2.3c-2.3-3.5-5.7-8.4-10.7-13.7c-4.9-5.3-11.3-11.1-19.1-16.2c-7.8-5.1-17.1-9.5-27.3-12.5
				s-20.4-4.1-29.7-4c-1.1,0-2.3,0-3.5,0.1s-2.2,0.1-3.4,0.2c-2.2,0.2-4.4,0.4-6.3,0.7c-4,0.7-7.5,1.8-10.1,3.5
				c-5.6,3.2-6.9,9.4-6.2,13.2c0.3,1.9,1.1,3.3,1.8,4.1c0.3,0.4,0.6,0.7,0.8,0.9C549.7,104.6,549.8,104.7,549.8,104.7z"/>
			<path class="st10" d="M547.4,112.1c0,0-0.2,0-0.6,0.1c-0.4,0.1-0.9,0.1-1.6,0.2c-1.4,0.3-3.5,0.8-5.8,2.1
				c-2.3,1.3-4.9,3.4-7.2,6.3c-2.2,3-4.1,6.7-4.6,11.1c-0.6,4.4,0.1,9.4,2,14.3c0.9,2.5,2.2,4.9,3.9,7.2c1.5,2.2,3.5,4.5,5.6,6.5
				c4.3,4.1,9.7,7.6,15.7,10.6c6,3.1,12.7,5.6,19.6,7.7c13.8,4.1,27.6,5.2,39.7,3.3c12.2-1.9,22.4-7.2,29.8-13.1
				c3.8-3,6.7-6.1,9.2-9.1c0.6-0.7,1.1-1.5,1.7-2.1c0.5-0.7,1-1.4,1.4-2.1c1-1.3,1.6-2.7,2.3-3.9c0.4-0.6,0.6-1.2,0.9-1.7
				s0.5-1,0.7-1.5c0.5-0.9,0.7-1.8,1-2.5c0.5-1.3,0.8-2,0.8-2s-0.1,0.7-0.4,2.2c-0.1,0.7-0.2,1.6-0.5,2.7c-0.1,0.5-0.3,1.1-0.4,1.7
				c-0.2,0.6-0.3,1.2-0.6,1.9c-0.5,1.3-0.9,2.9-1.7,4.4c-0.4,0.8-0.7,1.6-1.1,2.5c-0.4,0.8-0.9,1.7-1.4,2.6c-2,3.5-4.8,7.4-8.4,11.1
				c-3.6,3.8-8.1,7.5-13.4,10.5c-5.3,3.2-11.5,5.8-18.3,7.5c-0.8,0.2-1.7,0.4-2.6,0.5l-1.3,0.3l-1.3,0.2c-0.9,0.1-1.7,0.3-2.7,0.4
				c-0.9,0.1-1.8,0.2-2.7,0.3l-1.3,0.1l-1.3,0.1c-0.9,0-1.8,0.1-2.8,0.1s-1.8,0-2.8,0h-1.4l-1.4-0.1c-3.8-0.1-7.6-0.6-11.4-1.2
				c-3.9-0.6-7.7-1.5-11.4-2.7c-7.7-2.2-14.7-5.3-21.4-8.9c-6.5-3.7-12.7-8.1-17.5-13.4c-2.5-2.7-4.5-5.5-6.2-8.5
				c-1.6-3-3-6-3.8-9.2c-1.7-6.2-1.7-12.5-0.3-17.7c0.7-2.7,1.8-5.1,3.1-7.2c1.3-2,2.8-3.8,4.3-5.2c3.1-3,6.3-4.6,9-5.5
				c2.8-0.9,5-1.1,6.4-1.1c0.7,0,1.3,0.1,1.6,0.1C547.2,112.1,547.4,112.1,547.4,112.1z"/>
		</g>
		<path class="st2" d="M622.2,191.3c-5.8-4.8-11.6-9.6-16.4-15.5c-4.9-5.9-8.8-13-9.8-20.6s-1.1-17.1,6.4-20.2
			c6.4-2.8,19.5,15.5,19.5,15.5L622.2,191.3z"/>
		<path class="st2" d="M608.8,94.6c0-35.1,46.2-62.9,72.5-63.3l0,0h9.6l0,0c26.4,0.4,72.5,28.2,72.5,63.3c0,0-4.1,64.9-8.6,93.1
			s-51.7,60.8-68.7,60.8c-17,0-64.3-32.6-68.7-60.8C612.9,159.5,608.8,94.6,608.8,94.6z"/>
		<path class="st2" d="M750.1,191.3c5.8-4.8,11.6-9.6,16.4-15.5c4.9-5.9,8.8-13,9.8-20.6s1.1-17.1-6.4-20.2
			c-6.3-2.7-19.5,15.5-19.5,15.5L750.1,191.3z"/>
		<g>
			<g>
				<g>
					<g>
						<path class="st11" d="M716,192.6c-2.6,1.3-8,6.9-12.5,12.1c-4,4.4-8.5,9-16.8,9.1c-7.7,0-13.7-4.5-18-9.1
							c-4.9-5.5-10.4-11-13.6-12.7c-0.5-0.1,2.9,0.9,8.8-0.5c6.1-1.5,16.4-0.4,20.3-0.4c3.3,0,12.2-2.5,26.9,1.3
							C714.5,192.8,716.4,192.5,716,192.6z"/>
					</g>
					<path class="st12" d="M662.2,193.8c0,0,3.4,0.2,10.3,0.6c4.5,0.3,10,1.5,13.7,1.5c4.4,0,9.4-1.3,14.5-1.6
						c6.2-0.4,9.7-0.5,9.7-0.5c-2.8,2.1-5.3,4.4-7.7,6.7c-5.1,4-10.2,5.5-17.3,5.4c-6.9,0-12.3-3-14.7-5.2
						C668.2,198.4,665.3,196.1,662.2,193.8z"/>
					<path class="st13" d="M685.7,203.1c13.9-0.1,20.7-9.1,20.9-9.1c-1.5,0.1-3.5,0.2-5.8,0.3c-5.1,0.3-10.1,1.6-14.5,1.6
						c-3.8,0-9.3-1.2-13.7-1.5c-2.8-0.2-4.9-0.3-6.5-0.4C666.3,193.9,676,203,685.7,203.1z"/>
				</g>
			</g>
			<path class="st9" d="M684.4,184c-0.4-0.2-0.8-0.5-1.1-0.7c-1.9-1.4-3.7-3.3-5.3-5.2c-1-1.3-2.1-3-1.9-4.8
				c0.2-1.9,1.7-3.2,3.1-4.4c3.5-3.3,6-8,7.3-13.2c0.5,3.7-0.1,7.6-1.9,10.6c-0.7,1.1-1.5,2.2-1.7,3.7c-0.2,1.8,0.8,3.7,2,4.9
				c1.2,1.2,2.7,2.1,3.6,3.7c1,1.5,1.3,3.9,0.3,5.2C687.6,185.1,685.9,184.8,684.4,184z"/>
			<g>
				<path class="st14" d="M668.6,134.6c0,0,0.1-3.8-2.6-5.8c-2.7-2-15.3-1.6-21.2-1.3c-5.9,0.3-23.7,6.7-23.7,6.7s16.7-2.2,23.2-1.6
					C650.8,133.1,668.6,134.6,668.6,134.6z"/>
				<g>
					<path class="st15" d="M666.7,156.9c0,0-0.6-23.8-26.5-22.5c-14.1,1-13.9,10-13.9,10L666.7,156.9z"/>
					<path class="st16" d="M665.4,153.7c0,0-4.6-8.2-18.4-8.5c-8.7,0.1-16.8,3.3-22.2,0.3c0,0,4.8,0.3,10.5-0.5
						C644.2,143.6,656.7,140.7,665.4,153.7z"/>
					<path class="st15" d="M668,161.3c0,0-14.8,1.2-19.9,1.3c-6.5,0.2-15.3-6.1-15.3-6.1s3.2,8.1,15.3,7.9
						C655.8,164.1,662.7,161.9,668,161.3z"/>
					<path class="st17" d="M668,161.3c0,0-0.3-19-25.1-17.6c-6.8,0.5-15.3,3-15.3,3s5.9,17.2,21.2,16
						C663.3,161.6,668,161.3,668,161.3z"/>
					<g>
						<g>
							<path class="st18" d="M659.8,152.5c0,5.3-4.6,9.7-10.2,9.7s-10.2-4.4-10.2-9.7c0-5.4,4.6-9.7,10.2-9.7
								S659.8,147.1,659.8,152.5z"/>
							
								<image style="overflow:visible;enable-background:new    ;" width="83" height="79" xlink:href="F5B52D5.png"  transform="matrix(0.2331 0 0 0.2331 639.9252 142.5746)">
							</image>
						</g>
						<path class="st19" d="M644.4,152.2c0-2.9,2.5-5.2,5.4-5.2c3,0,5.4,2.3,5.4,5.2c0,2.9-2.5,5.2-5.4,5.2
							C646.8,157.4,644.4,155.1,644.4,152.2z"/>
						<path class="st13" d="M641.6,152.5c0,1.7,2.1,3,3.2,3c0.8,0,3.6-1.2,3.6-3s-2-3.3-3.6-3.3
							C643.2,149.4,641.6,150.9,641.6,152.5z"/>
						<path class="st13" d="M652.4,157.2c0,0.6,0.7,1,1.1,1c0.3,0,1.2-0.4,1.2-1s-0.7-1.1-1.2-1.1
							C653.1,156.1,652.4,156.6,652.4,157.2z"/>
					</g>
					<path class="st18" d="M668,161.3c0,0-1.2-17-21.9-17.3c-13.1,0.7-17.2,6.3-24.6-1.3c0,0,2.8,2.9,14.2-1.3
						C647.7,136.9,667.6,139.7,668,161.3z"/>
					<path class="st18" d="M621.5,142.7c0,0,5.2,12.3,16.9,17.6c0,0-9.8-10.9-7.4-13.8L621.5,142.7z"/>
					<path class="st20" d="M636.5,158.8c0,0,5.7,4.7,15.7,3.7c0,0-10.2,2.8-18.7-4.9L636.5,158.8z"/>
				</g>
			</g>
			<g>
				
					<image style="overflow:visible;enable-background:new    ;" width="188" height="125" xlink:href="F5B52D7.png"  transform="matrix(0.2389 0 0 0.2389 624.2012 164.0649)">
				</image>
				
					<image style="overflow:visible;enable-background:new    ;" width="188" height="125" xlink:href="F5B52D2.png"  transform="matrix(0.2389 0 0 0.2389 707.3137 164.0649)">
				</image>
			</g>
			<g>
				<path class="st14" d="M706,134.6c0,0-0.1-3.8,2.6-5.8c2.7-2,15.3-1.6,21.2-1.3c5.9,0.3,23.7,6.7,23.7,6.7s-16.7-2.2-23.2-1.6
					C723.6,133.1,706,134.6,706,134.6z"/>
				<g>
					<path class="st15" d="M707.7,156.9c0,0,0.6-23.8,26.5-22.5c14.1,1,13.9,10,13.9,10L707.7,156.9z"/>
					<path class="st16" d="M709,153.7c0,0,4.6-8.2,18.4-8.5c8.7,0.1,16.8,3.3,22.2,0.3c0,0-4.8,0.3-10.5-0.5
						C730.3,143.6,717.8,140.7,709,153.7z"/>
					<path class="st15" d="M706.6,161.3c0,0,14.8,1.2,19.9,1.3c6.5,0.2,15.3-6.1,15.3-6.1s-3.2,8.1-15.3,7.9
						C718.6,164.1,711.8,161.9,706.6,161.3z"/>
					<path class="st17" d="M706.6,161.3c0,0,0.3-19,25.1-17.6c6.8,0.5,15.3,3,15.3,3s-5.9,17.2-21.2,16
						C711.2,161.6,706.6,161.3,706.6,161.3z"/>
					<g>
						<g>
							<path class="st18" d="M714.6,152.5c0,5.3,4.6,9.7,10.2,9.7s10.2-4.4,10.2-9.7c0-5.4-4.6-9.7-10.2-9.7
								S714.6,147.1,714.6,152.5z"/>
							
								<image style="overflow:visible;enable-background:new    ;" width="83" height="79" xlink:href="F5B52D3.png"  transform="matrix(0.2331 0 0 0.2331 715.1923 142.5746)">
							</image>
						</g>
						<path class="st19" d="M730.1,152.2c0-2.9-2.5-5.2-5.4-5.2s-5.4,2.3-5.4,5.2c0,2.9,2.5,5.2,5.4,5.2
							C727.6,157.4,730.1,155.1,730.1,152.2z"/>
						<path class="st13" d="M729.8,149.4c-1.5,0-3.6,1.5-3.6,3.3c0,1.7,2.8,3,3.6,3c1,0,3.2-1.3,3.2-3
							C732.9,150.9,731.2,149.4,729.8,149.4z"/>
						<path class="st13" d="M720.9,156.1c-0.5,0-1.2,0.5-1.2,1.1c0,0.6,0.9,1,1.2,1c0.4,0,1.1-0.4,1.1-1
							C722,156.6,721.4,156.1,720.9,156.1z"/>
					</g>
					<path class="st18" d="M706.6,161.3c0,0,1.2-17,21.9-17.3c13.1,0.7,17.2,6.3,24.6-1.3c0,0-2.8,2.9-14.2-1.3
						C726.8,136.9,706.9,139.7,706.6,161.3z"/>
					<path class="st18" d="M753.1,142.7c0,0-5.2,12.3-16.9,17.6c0,0,9.8-10.9,7.4-13.8L753.1,142.7z"/>
					<path class="st20" d="M738,158.8c0,0-5.7,4.7-15.7,3.7c0,0,10.2,2.8,18.7-4.9L738,158.8z"/>
				</g>
			</g>
		</g>
		<g>
			<path class="st10" d="M782.1,101.1c-1.7-22.7-10.4-40.5-24.3-58.9C743.9,23.6,721.7,10,697.9,9.3c-21.9-0.6-44.3,11.1-53.5,29.8
				c-13.5-3.3-29.2,1.9-39,12.1c-3.2,3.2-5.7,6.7-7.9,10.6c-6.3,11.1-8.8,24.5-9.2,37.3c-0.2,6.4,0.1,13,0.5,19.4
				c0,6.2,0.2,25.6,0.8,49.2c0.9,33.9,20.8,75.3,20.8,75.3c-13.4-51.2,1-101,13.4-130.9c11.5-9,21.7-19.6,30.4-32.4
				c0,0,25.4,24.8,51.7,40.5c27.2,16,50.2,20.7,76.1,23.4C782.1,143.6,783.4,119.5,782.1,101.1z"/>
			<path class="st21" d="M652,69.5c-5.1-28.6,20.4-51.2,47.1-54.2c10.8-1.4,21.7-0.1,31.8,3.4c-10.1-5.6-21.4-9-33-9.3
				c-21.9-0.6-44.3,11.1-53.5,29.8c-13.5-3.3-29.2,1.9-39,12.1c-3.2,3.2-5.7,6.7-7.9,10.6c-6.3,11.1-8.8,24.5-9.2,37.3
				c-0.1,2.2-0.1,4.4,0,6.6c4.8-13.1,4.4-29.7,11-41.3C610.6,45,642.8,50.1,652,69.5z"/>
			<g>
				<path class="st10" d="M744.5,226.3c19.1-42,24-97.3,13.7-142.1c0,0,0.3,0.4,0.8,1.2c25.9,40.6,21.5,105.7-13.5,140
					C744.8,226,744.5,226.3,744.5,226.3z"/>
				<path class="st10" d="M748.6,251.4c-0.2,0.4,3.5-6.4,4.5-8.6c7.3-15.3,11.1-33,13-50c0.3-3.4,0.5-6.7,0.8-10
					c0.2-3.5,0.3-6.9,0.5-10.4c0-3.5,0.1-6.8,0.2-10.3c-0.1-3.3-0.1-6.6,0-9.9c-0.2-10.4-0.5-20.7-0.8-31.1
					c-0.2-6.9-0.4-13.9-0.5-20.3c-0.1-1.3-0.1-2.6-0.1-3.7c-0.1-4.4,0.1-7,0.1-7c-0.2-0.4,4.3,6.4,5.3,8.6
					c3.1,5.9,5.5,12.7,7.4,19.7c0.3,1,0.5,2.1,0.7,3.3c0.6,2.9,1.1,5.8,1.6,8.8c0.9,7.3,1.2,14.7,1.1,22.1
					c-0.2,3.6-0.5,7.3-0.8,10.9c-0.5,3.7-1,7.5-1.6,11.1c-0.8,3.7-1.5,7.3-2.5,10.9c-0.9,3.4-1.9,6.8-3,10.2
					c-3.4,10.3-7.5,20.3-12.2,30c-3,6-6.2,12-9.2,17.4C752.2,245.1,748.4,251.7,748.6,251.4z"/>
			</g>
			<g>
				<path class="st22" d="M795.2,186.2c0,0,0.2-0.7,0.5-2s0.6-3.4,0.7-5.8c0-2.6-0.2-5.6-1.1-9.1c-0.9-3.5-2.5-7.2-4.7-10.9
					c-1.2-1.8-2.5-3.8-4.1-5.5c-0.7-0.9-1.6-1.7-2.5-2.7c-0.4-0.4-0.9-0.8-1.3-1.2l-0.7-0.6c-0.2-0.2-0.5-0.4-0.7-0.6
					c-1.9-1.6-4.1-3.2-6.4-4.6c-2.3-1.4-4.8-2.8-7.5-3.9c-5.3-2.3-11.1-4.3-17.5-5.9c-6.2-1.6-13-2.9-19.9-4.3
					c-6.9-1.4-13.9-3-20.5-5c-3.3-1-6.5-2.1-9.7-3.5c-1.5-0.7-3.1-1.3-4.6-2c-1.4-0.7-3-1.4-4.4-2.2c-5.6-3.2-10.6-6.6-15-10.4
					c-4.3-3.7-8-7.6-11-11.2c-4.2-5-8.4-10.8-10.6-14.8c0,0,11,8.2,14.5,11.1c3.4,3.1,7.3,6.1,11.6,9.1c4.4,3,9.3,5.7,14.6,8.2
					c1.3,0.6,2.8,1.1,4.1,1.7c1.4,0.5,2.9,1,4.3,1.6c2.9,1,5.9,1.9,9,2.8c6.2,1.6,12.9,3,19.8,4.4c6.9,1.4,13.9,3,20.5,4.9
					c6.6,2,13,4.5,18.7,7.7c2.9,1.5,5.5,3.3,8.1,5.2c2.5,1.8,4.8,3.9,6.8,6c0.3,0.3,0.5,0.5,0.7,0.8c0.2,0.3,0.5,0.5,0.7,0.8
					c0.5,0.5,0.9,1.1,1.4,1.6c0.8,1.1,1.7,2.2,2.5,3.4c1.5,2.2,2.8,4.6,3.8,6.8c1.9,4.6,3,8.9,3.3,12.8c0.3,3.9,0,7.3-0.5,9.8
					c-0.6,2.7-1.3,4.6-1.9,5.8C795.6,185.6,795.2,186.2,795.2,186.2z"/>
				<path class="st22" d="M618.5,262.7c-3.3-3.2-6.2-6.7-8.8-10.5s-4.7-7.9-6.4-12c-1.7-4.2-3.1-8.5-4.2-12.8
					c-1-4.3-1.7-8.7-2.2-13.2c-0.5-4.4-0.6-8.8-0.6-13.2c0-4.4,0.3-8.8,0.7-13.2c0.2-2.1,0.5-4.4,0.8-6.5s0.7-4.3,1.1-6.4l0.3-1.6
					l0.3-1.6l0.7-3.2c0.2-1,0.4-2.1,0.7-3.2l0.8-3.2c8.7-33.7,20.9-52.6,46-76.8l6.5-5.6c-2.3,6.8-10.5,17.7-14.6,23.3
					c-17.7,21.7-30.5,47.8-36.8,75.8c-1.6,6.9-2.7,14.1-3.2,21.4c-0.5,7.3-0.3,14.5,0.6,21.8s2.8,14.5,5.7,21.5
					C609,250.5,613.2,257,618.5,262.7z"/>
			</g>
		</g>
	</g>
	<path class="st3" d="M592.8,598.6c18.6-34,18.9-77.2,1.1-111.7c-12.6-10.3-23.1-22.5-27.4-37.9c-2.2-8.2-2.6-16.8-2.9-25.2
		c-1.1-32.3,26.9-71.8,3.3-123.6c20.5-15.5,52.7-26.6,52.7-26.6c-0.6,11.5,5.3,23.3,13.7,31.5c10.2,9.9,23.5,15.6,36.6,21.2
		c5.4,2.3,11,4.7,16.9,6.6c5.7-2,11.4-4.3,16.9-6.6c13-5.6,26.4-11.4,36.6-21.2c8.5-8.2,14.4-19.9,13.7-31.5c0,0,32.2,11,52.7,26.6
		c-19.5,58.1,4.3,91.3,3.3,123.6c-0.3,8.5-0.6,17.1-2.9,25.2c-4.3,15.4-14.9,27.5-27.4,37.9c-17.9,34.3-17.5,77.6,1.1,111.7
		c0,0-61,8.3-93.9,8.3C653.8,607,592.8,598.6,592.8,598.6z"/>
	<path class="st23" d="M816,666.9c0-20.7-46.6-96.9-53.2-108.9c-56,23.4-96.2,16.5-153.3-3.8c0,0-31.6,68.4-50.3,104
		c-3.7,9.7-5.4,20-5.3,30.3c-0.6,13.3,9.7,267.7,9.7,267.7s45.3,14.1,113.6,13.7c79.9-0.3,132.5-12.8,132.5-12.8
		S816,678.1,816,666.9z"/>
	<path class="st3" d="M778.4,289.8c0,0,45-0.9,55.7,22.3s35.1,78.8,36.2,94.3c1,15.6-57.4,34-89.4,34
		C780.8,440.4,766.5,287.3,778.4,289.8z"/>
	<rect x="296.5" y="-3" class="st0" width="669.2" height="549.2"/>
	<rect x="296.5" y="-3" class="st0" width="669.2" height="549.2"/>
	<g class="st1">
		<path class="st24" d="M588.7,179.3H41.1c-6.3,0-11.4,4.8-11.4,10.7V515c0,6,5.1,10.7,11.4,10.7h547.6c6.3,0,11.4-4.8,11.4-10.7
			V190C600.1,184.1,595,179.3,588.7,179.3z M577.2,506.5H45.3V198.6h531.9V506.5z"/>
		<ellipse class="st25" cx="587.8" cy="352.4" rx="8.5" ry="8"/>
	</g>
	<rect x="256.2" y="-20.4" class="st0" width="693" height="568.7"/>
	<g class="st1">
		<path class="st2" d="M780.1,467.2c-14.5-2.8-55.8,5.8-64.8,8.5c-31.5,9.4-75.5,33.7-104.5,42.1c-15.2,4.5-2.2,20.8-2.2,20.8
			s75.6-7.1,108.6-13c43.7-7.8,66.2-14.2,79-25.5C802.1,495.1,802.9,471.5,780.1,467.2z"/>
		<g>
			<g>
				<g>
					<path class="st2" d="M605.3,511.9c0,0-28.9,7.7-32.9,7.4c-4-0.3-32.8-5-37.7-2.4c-4.9,2.6-0.9,8,7.6,9.2s29.4,3.9,33,3.2
						c3.6-0.8,17.5-0.7,21.4-1.7S618.8,515.5,605.3,511.9z"/>
					<path class="st2" d="M594,525.5c-4.9-3.1-23.3,1.2-24.7,0.5s-20.4-8.3-27.1-10.1s-7.7,4.3-0.5,8.8c7,4.5,20.9,9.8,23.5,10.5
						c2.6,0.6,23.9,5,29.5,5.1C600.2,540.4,601.1,529.9,594,525.5z"/>
					<path class="st2" d="M595.9,532.8c-4.9-3.1-23.7-0.3-25.3-0.9c-1.4-0.7-15.7-11.7-22.6-13.6c-6.7-1.9-7.7,4.3-0.5,8.8
						c7,4.5,18,15.2,20.7,15.7c2.6,0.6,22.5,1.6,28.1,1.8C602,544.7,602.9,537.3,595.9,532.8z"/>
					<path class="st2" d="M604.7,509.3c-2.7,0.2-8.4,3-14.1,6.5c0.4,1.8,0.7,3.4,1,5.2c1.1,6.4,1.9,12.9,3.1,19.4
						c0.3,1.4,0.6,2.9,1,4.2c14.6,0,48.4-7.9,40.5-24.4C636.3,520.2,610.8,508.8,604.7,509.3z"/>
				</g>
				<path class="st2" d="M636.5,520.5c0,0-11-10.8-15.4-14.3c-3.1-2.5-14.4-8.6-15.4-9.5c-1-0.9-20.7,5.6-23.4,7.1
					c-2.6,1.6-1.8,5.5,4.8,7.6c6.5,2.1,16.4-2,16.4-2s9.5,14.5,17,17.2C627.9,529.4,636.5,520.5,636.5,520.5z"/>
			</g>
		</g>
	</g>
	<rect x="296.5" y="-3" class="st0" width="669.2" height="549.2"/>
	<g class="st1">
		<path class="st9" d="M434.5,528.1c-1.8-2.6-44.4-6.7-51.8-2.5c-7.4,1.8-2.8-8.9,6.6-9.2c8.3-2.4,47.6,0.2,47.5,2
			C442.8,522.2,436.4,528.6,434.5,528.1z"/>
	</g>
	<g class="st1">
		<path class="st2" d="M452.6,540.6c-1-0.8-15.3,2.3-25.6-2.8c-12.9-7.9-39.6-13.1-43.7-13.1c-7.4-1.5,0.3-7.6,5.4-6.2
			c8.5-0.6,50.4,6.6,50,8.7C444.5,531.5,452.7,540.6,452.6,540.6z"/>
	</g>
	<g class="st1">
		<g>
			<path class="st2" d="M424.3,515.6c-7.1-1.3-25.6-5.5-31-5.7c-5.3-0.5-12.1,3.8-6.1,3.9c6.6-1.4,44.6,18,56.8,23.3
				c8.6,2.5,9.6-2.9,8.2-9.9C451.2,521.1,435.9,516.9,424.3,515.6z"/>
		</g>
		<path class="st9" d="M385.9,513.6c1.1,0.6,7.4,0.8,9.2,1c1.9-0.2,20.9,5.2,21.3,6.1c0.4,0.4,0.4,0.9,0.4,0.9
			c0.2-0.4-20.4-6.6-24.1-6.6c-3.6-0.5-7.6-0.5-7.7-1.7c-0.2-1.3,1.7-1.9,1.7-1.9S384.6,512.8,385.9,513.6z"/>
	</g>
</g>
</svg>
