<?xml version="1.0" encoding="utf-8"?>
<!-- Generator: Adobe Illustrator 25.1.0, SVG Export Plug-In . SVG Version: 6.00 Build 0)  -->
<svg version="1.1" id="Layer_1" xmlns="http://www.w3.org/2000/svg" xmlns:xlink="http://www.w3.org/1999/xlink" x="0px" y="0px"
	 viewBox="0 0 229.29 105.26" style="enable-background:new 0 0 229.29 105.26;" xml:space="preserve">
<style type="text/css">
	.st0{fill:#FFFFFF;}
	.st1{fill:none;stroke:#FFFFFF;stroke-width:1.0001;stroke-miterlimit:10;}
	.st2{fill:none;stroke:#0000FF;stroke-width:0.216;stroke-miterlimit:10;}
	.st3{fill:#0000FF;}
	.st4{fill-rule:evenodd;clip-rule:evenodd;fill:#CC6633;}
	.st5{fill-rule:evenodd;clip-rule:evenodd;fill:#00FF00;}
	.st6{fill-rule:evenodd;clip-rule:evenodd;fill:#0000FF;}
	.st7{fill:#00FF00;}
	.st8{fill-rule:evenodd;clip-rule:evenodd;fill:#66FF00;}
	.st9{fill:none;stroke:#000000;stroke-width:0.4997;stroke-miterlimit:10;}
	.st10{fill:none;stroke:#000000;stroke-width:0.216;stroke-miterlimit:10;}
	.st11{fill:#B20000;}
	.st12{fill:#009900;}
</style>
<g>
	<path class="st0" d="M208.77,73.74l4.38-14.86c0.15-0.46,0.22-0.97,0.22-1.48c0-0.46-0.07-0.92-0.22-1.43h5.07
		c-1.17,2.3-1.31,2.86-1.93,4.95l-5.62,19.05h-9.15l-6.71-21.4c-0.22-0.77-0.59-1.74-1.17-2.6h10.4c-0.07,0.41-0.11,0.77-0.11,1.02
		c0,0.56,0.18,1.33,0.51,2.4L208.77,73.74z M184.08,68.43h-3.83c-1.31,0.05-1.82,0.31-1.82,2.04v2.76c0,1.73,0.51,1.99,1.82,2.04
		h2.01c1.64,0,1.82-0.36,1.82-3.42V68.43z M171.25,55.97H187c4.12,0,5.76,2.46,5.76,9.04v10.47c0,2.44,0.33,3.52,0.84,4.5h-8.68
		l-0.44-2.66h-0.07c-0.44,2.14-1.17,2.66-3.5,2.66h-6.13c-3.86,0-4.96-2.26-4.96-7.26v-1.74c0-5,1.09-7.25,4.96-7.25h7.84
		c1.2,0,1.46-0.41,1.46-1.53c0-1.07-0.26-1.53-1.46-1.53h-8.57c-1.6,0-2.41,0.31-3.43,1.02L171.25,55.97z M142.88,47.19h9.55v11.13
		h0.07c0.95-1.94,1.13-2.35,2.08-2.35h6.78c4.05,0,5.72,3.38,5.72,8.73v9.75c0,3.31,0.44,4.29,0.95,5.52h-10.57
		c0.51-1.23,0.95-2.2,0.95-5.52V62.66c0-1.48-0.37-1.99-1.42-1.99h-3.14c-1.05,0-1.42,0.52-1.42,1.99v11.79
		c0,3.31,0.44,4.29,0.95,5.52h-10.5c0.51-1.23,0.95-2.2,0.95-5.52V52.71C143.83,49.39,143.39,48.42,142.88,47.19z M141.53,79.98
		h-8.68l-0.47-2.56c-0.62,1.74-1.06,2.56-2.04,2.56h-7.26c-3.93,0-5.4-3.07-5.4-7.46v-9.09c0-4.39,1.46-7.45,5.4-7.45h6.75
		c1.57,0,2.01,1.38,2.22,2.35h0.07v-6.64c0-2.45-0.33-3.52-0.73-4.49h9.41v2.09v26.14v0.05C140.8,77.92,141.13,79,141.53,79.98z
		 M132.12,73.44V62.51c0-1.33-0.37-1.84-1.2-1.84h-3.43c-0.83,0-1.2,0.52-1.2,1.84v10.93c0,1.32,0.36,1.84,1.2,1.84h3.43
		C131.76,75.27,132.12,74.76,132.12,73.44z M106.2,68.43h-3.83c-1.31,0.05-1.82,0.31-1.82,2.04v2.76c0,1.73,0.51,1.99,1.82,2.04
		h2.01c1.64,0,1.82-0.36,1.82-3.42V68.43z M93.36,55.97h15.75c4.12,0,5.76,2.46,5.76,9.04v10.47c0,2.44,0.33,3.52,0.84,4.5h-8.68
		l-0.44-2.66h-0.07c-0.44,2.14-1.17,2.66-3.5,2.66H96.9c-3.86,0-4.96-2.26-4.96-7.26v-1.74c0-5,1.09-7.25,4.96-7.25h7.84
		c1.2,0,1.46-0.41,1.46-1.53c0-1.07-0.26-1.53-1.46-1.53h-8.57c-1.6,0-2.41,0.31-3.43,1.02L93.36,55.97z M72.87,65.83l4.81-18.64
		h11.92c-0.47,1.28-0.77,2.51-0.77,5.62v21.55c0,3.11,0.29,4.34,0.77,5.63H79.22c0.44-1.29,0.73-2.51,0.73-5.63V54.14h-0.07
		l-6.45,25.84h-6.23l-6.27-25.84h-0.07V74.1c0,3.67,0.11,4.34,0.88,5.88H56.1c0.77-1.54,0.88-2.2,0.88-5.88V53.06
		c0-3.68-0.11-4.34-0.88-5.87h12.25l4.45,18.64H72.87z M139.67,39.59H131l-0.47-2.56c-0.62,1.74-1.06,2.56-2.04,2.56h-7.26
		c-3.94,0-5.4-3.07-5.4-7.46v-9.09c0-4.39,1.46-7.45,5.4-7.45h6.75c1.57,0,2.01,1.38,2.22,2.35h0.07v-6.64
		c0-2.45-0.33-3.52-0.73-4.49h9.41v2.09v26.14v0.05C138.95,37.53,139.27,38.61,139.67,39.59z M130.27,33.04V22.12
		c0-1.33-0.37-1.84-1.2-1.84h-3.43c-0.84,0-1.2,0.51-1.2,1.84v10.93c0,1.33,0.36,1.84,1.2,1.84h3.43
		C129.9,34.88,130.27,34.37,130.27,33.04z M88.88,15.58h8.9l0.26,2.5h0.07c0.4-1.23,0.95-2.5,2.22-2.5h7.04
		c4.05,0,5.73,3.37,5.73,8.73v9.75c0,3.32,0.44,4.29,0.95,5.52h-10.57c0.51-1.23,0.95-2.2,0.95-5.52V22.27
		c0-1.48-0.37-1.99-1.42-1.99h-3.14c-1.06,0-1.42,0.51-1.42,1.99v11.79c0,3.32,0.44,4.29,0.95,5.52h-10.5
		c0.51-1.23,0.95-2.2,0.95-5.52V21.1C89.83,17.78,89.39,16.81,88.88,15.58z M77.62,6.8h8.46v6.33h-8.46V6.8z M77.54,34.06V21.1
		c0-3.32-0.44-4.29-0.95-5.51h9.55v18.48c0,3.32,0.44,4.29,0.95,5.52H76.6C77.11,38.35,77.54,37.38,77.54,34.06z M66.75,33.35
		l4.38-14.86c0.15-0.46,0.22-0.97,0.22-1.48c0-0.46-0.07-0.92-0.22-1.43h5.07c-1.17,2.3-1.31,2.86-1.93,4.95l-5.61,19.05H59.5
		l-6.71-21.4c-0.22-0.77-0.59-1.74-1.17-2.6h10.4c-0.07,0.41-0.11,0.77-0.11,1.02c0,0.56,0.18,1.33,0.51,2.4L66.75,33.35z
		 M51.22,22.83v9.5c0,5-1.1,7.26-4.96,7.26H32.77c-3.86,0-4.96-2.26-4.96-7.26v-9.5c0-5,1.09-7.25,4.96-7.25h13.49
		C50.13,15.58,51.22,17.83,51.22,22.83z M36.41,22.22v10.72c0,1.38,0.29,1.94,1.24,1.94h3.57c1.02,0,1.31-0.56,1.31-1.94V22.22
		c0-1.38-0.29-1.94-1.31-1.94h-3.57C36.71,20.28,36.41,20.84,36.41,22.22z M11.07,19.97h14.88c-0.98,2.2-1.09,2.86-1.09,5.1v8.07
		c0,4.03,0.15,4.7,0.95,6.44h-7.84l-0.29-3.02H17.6c-0.4,1.89-0.8,3.02-3.32,3.02H6.41c-3.79,0-5.91-2.56-5.91-9.61V16.5
		c0-7.15,2.12-9.7,5.91-9.7h17.14l0.69,6.28c-0.98-0.51-1.86-0.87-3.57-0.87h-9.52c-1.16,0-1.75,0.51-1.75,2.2v17.67
		c0,1.58,0.58,2.09,1.75,2.09h2.99c1.17,0,1.75-0.51,1.75-2.09v-6.69h-3.32c-0.65,0-1.06,0.31-1.49,0.61V19.97z"/>
	<path class="st1" d="M208.77,73.74l4.38-14.86c0.15-0.46,0.22-0.97,0.22-1.48c0-0.46-0.07-0.92-0.22-1.43h5.07
		c-1.17,2.3-1.31,2.86-1.93,4.95l-5.62,19.05h-9.15l-6.71-21.4c-0.22-0.77-0.59-1.74-1.17-2.6h10.4c-0.07,0.41-0.11,0.77-0.11,1.02
		c0,0.56,0.18,1.33,0.51,2.4L208.77,73.74z M184.08,68.43h-3.83c-1.31,0.05-1.82,0.31-1.82,2.04v2.76c0,1.73,0.51,1.99,1.82,2.04
		h2.01c1.64,0,1.82-0.36,1.82-3.42V68.43z M171.25,55.97H187c4.12,0,5.76,2.46,5.76,9.04v10.47c0,2.44,0.33,3.52,0.84,4.5h-8.68
		l-0.44-2.66h-0.07c-0.44,2.14-1.17,2.66-3.5,2.66h-6.13c-3.86,0-4.96-2.26-4.96-7.26v-1.74c0-5,1.09-7.25,4.96-7.25h7.84
		c1.2,0,1.46-0.41,1.46-1.53c0-1.07-0.26-1.53-1.46-1.53h-8.57c-1.6,0-2.41,0.31-3.43,1.02L171.25,55.97z M142.88,47.19h9.55v11.13
		h0.07c0.95-1.94,1.13-2.35,2.08-2.35h6.78c4.05,0,5.72,3.38,5.72,8.73v9.75c0,3.31,0.44,4.29,0.95,5.52h-10.57
		c0.51-1.23,0.95-2.2,0.95-5.52V62.66c0-1.48-0.37-1.99-1.42-1.99h-3.14c-1.05,0-1.42,0.52-1.42,1.99v11.79
		c0,3.31,0.44,4.29,0.95,5.52h-10.5c0.51-1.23,0.95-2.2,0.95-5.52V52.71C143.83,49.39,143.39,48.42,142.88,47.19z M141.53,79.98
		h-8.68l-0.47-2.56c-0.62,1.74-1.06,2.56-2.04,2.56h-7.26c-3.93,0-5.4-3.07-5.4-7.46v-9.09c0-4.39,1.46-7.45,5.4-7.45h6.75
		c1.57,0,2.01,1.38,2.22,2.35h0.07v-6.64c0-2.45-0.33-3.52-0.73-4.49h9.41v2.09v26.14v0.05C140.8,77.92,141.13,79,141.53,79.98z
		 M132.12,73.44V62.51c0-1.33-0.37-1.84-1.2-1.84h-3.43c-0.83,0-1.2,0.52-1.2,1.84v10.93c0,1.32,0.36,1.84,1.2,1.84h3.43
		C131.76,75.27,132.12,74.76,132.12,73.44z M106.2,68.43h-3.83c-1.31,0.05-1.82,0.31-1.82,2.04v2.76c0,1.73,0.51,1.99,1.82,2.04
		h2.01c1.64,0,1.82-0.36,1.82-3.42V68.43z M93.36,55.97h15.75c4.12,0,5.76,2.46,5.76,9.04v10.47c0,2.44,0.33,3.52,0.84,4.5h-8.68
		l-0.44-2.66h-0.07c-0.44,2.14-1.17,2.66-3.5,2.66H96.9c-3.86,0-4.96-2.26-4.96-7.26v-1.74c0-5,1.09-7.25,4.96-7.25h7.84
		c1.2,0,1.46-0.41,1.46-1.53c0-1.07-0.26-1.53-1.46-1.53h-8.57c-1.6,0-2.41,0.31-3.43,1.02L93.36,55.97z M72.87,65.83l4.81-18.64
		h11.92c-0.47,1.28-0.77,2.51-0.77,5.62v21.55c0,3.11,0.29,4.34,0.77,5.63H79.22c0.44-1.29,0.73-2.51,0.73-5.63V54.14h-0.07
		l-6.45,25.84h-6.23l-6.27-25.84h-0.07V74.1c0,3.67,0.11,4.34,0.88,5.88H56.1c0.77-1.54,0.88-2.2,0.88-5.88V53.06
		c0-3.68-0.11-4.34-0.88-5.87h12.25l4.45,18.64H72.87z M139.67,39.59H131l-0.47-2.56c-0.62,1.74-1.06,2.56-2.04,2.56h-7.26
		c-3.94,0-5.4-3.07-5.4-7.46v-9.09c0-4.39,1.46-7.45,5.4-7.45h6.75c1.57,0,2.01,1.38,2.22,2.35h0.07v-6.64
		c0-2.45-0.33-3.52-0.73-4.49h9.41v2.09v26.14v0.05C138.95,37.53,139.27,38.61,139.67,39.59z M130.27,33.04V22.12
		c0-1.33-0.37-1.84-1.2-1.84h-3.43c-0.84,0-1.2,0.51-1.2,1.84v10.93c0,1.33,0.36,1.84,1.2,1.84h3.43
		C129.9,34.88,130.27,34.37,130.27,33.04z M88.88,15.58h8.9l0.26,2.5h0.07c0.4-1.23,0.95-2.5,2.22-2.5h7.04
		c4.05,0,5.73,3.37,5.73,8.73v9.75c0,3.32,0.44,4.29,0.95,5.52h-10.57c0.51-1.23,0.95-2.2,0.95-5.52V22.27
		c0-1.48-0.37-1.99-1.42-1.99h-3.14c-1.06,0-1.42,0.51-1.42,1.99v11.79c0,3.32,0.44,4.29,0.95,5.52h-10.5
		c0.51-1.23,0.95-2.2,0.95-5.52V21.1C89.83,17.78,89.39,16.81,88.88,15.58z M77.62,6.8h8.46v6.33h-8.46V6.8z M77.54,34.06V21.1
		c0-3.32-0.44-4.29-0.95-5.51h9.55v18.48c0,3.32,0.44,4.29,0.95,5.52H76.6C77.11,38.35,77.54,37.38,77.54,34.06z M66.75,33.35
		l4.38-14.86c0.15-0.46,0.22-0.97,0.22-1.48c0-0.46-0.07-0.92-0.22-1.43h5.07c-1.17,2.3-1.31,2.86-1.93,4.95l-5.61,19.05H59.5
		l-6.71-21.4c-0.22-0.77-0.59-1.74-1.17-2.6h10.4c-0.07,0.41-0.11,0.77-0.11,1.02c0,0.56,0.18,1.33,0.51,2.4L66.75,33.35z
		 M51.22,22.83v9.5c0,5-1.1,7.26-4.96,7.26H32.77c-3.86,0-4.96-2.26-4.96-7.26v-9.5c0-5,1.09-7.25,4.96-7.25h13.49
		C50.13,15.58,51.22,17.83,51.22,22.83z M36.41,22.22v10.72c0,1.38,0.29,1.94,1.24,1.94h3.57c1.02,0,1.31-0.56,1.31-1.94V22.22
		c0-1.38-0.29-1.94-1.31-1.94h-3.57C36.71,20.28,36.41,20.84,36.41,22.22z M11.07,19.97h14.88c-0.98,2.2-1.09,2.86-1.09,5.1v8.07
		c0,4.03,0.15,4.7,0.95,6.44h-7.84l-0.29-3.02H17.6c-0.4,1.89-0.8,3.02-3.32,3.02H6.41c-3.79,0-5.91-2.56-5.91-9.61V16.5
		c0-7.15,2.12-9.7,5.91-9.7h17.14l0.69,6.28c-0.98-0.51-1.86-0.87-3.57-0.87h-9.52c-1.16,0-1.75,0.51-1.75,2.2v17.67
		c0,1.58,0.58,2.09,1.75,2.09h2.99c1.17,0,1.75-0.51,1.75-2.09v-6.69h-3.32c-0.65,0-1.06,0.31-1.49,0.61V19.97z"/>
	<path class="st2" d="M179.14,3.13c5.08,5.69,4.92,14.75-0.36,20.23c-5.28,5.48-13.67,5.31-18.75-0.39
		c-5.08-5.69-4.92-14.75,0.36-20.23"/>
	<path class="st3" d="M160.88,2.42l0.14,0.16l-0.45,0.49l-0.42,0.5l-0.39,0.52l-0.36,0.54l-0.33,0.55l-0.31,0.57l-0.28,0.58
		l-0.25,0.59l-0.22,0.6l-0.19,0.61l-0.17,0.62l-0.14,0.62L157.41,10l-0.08,0.63l-0.05,0.64l-0.03,0.64l0,0.64l0.03,0.64l0.06,0.64
		l0.09,0.63l0.12,0.63l0.14,0.62l0.17,0.62l0.2,0.61l0.23,0.6l0.26,0.59l0.29,0.58l0.31,0.57l0.34,0.55l0.37,0.54l0.4,0.52
		l0.43,0.51l-0.15,0.15l-0.44-0.51l-0.41-0.53l-0.38-0.55l-0.35-0.56l-0.32-0.58l-0.29-0.59l-0.26-0.6L157.87,17l-0.2-0.62
		l-0.18-0.63l-0.15-0.63l-0.12-0.64l-0.09-0.64l-0.06-0.65l-0.03-0.65l0-0.65l0.03-0.65l0.05-0.65l0.08-0.64l0.11-0.64l0.14-0.63
		l0.17-0.63l0.2-0.62l0.23-0.61l0.25-0.6l0.28-0.59l0.31-0.58l0.34-0.56l0.37-0.55l0.4-0.53l0.42-0.51L160.88,2.42z M160.55,21.53
		L160.55,21.53z M160.55,21.53l0.15-0.15l0.45,0.48l0.47,0.45l0.48,0.42l0.5,0.39l0.51,0.36l0.53,0.33l0.54,0.3l0.55,0.27l0.56,0.24
		l0.56,0.21l0.57,0.18l0.58,0.15l0.58,0.12l0.59,0.09l0.59,0.06l0.59,0.03l0.59,0l0.59-0.03l0.59-0.06l0.59-0.09l0.58-0.12
		l0.58-0.16l0.57-0.19l0.56-0.22l0.56-0.25l0.55-0.28l0.54-0.31l0.52-0.34l0.51-0.37l0.5-0.4l0.48-0.43l0.47-0.46l0.14,0.16
		l-0.48,0.47l-0.49,0.44l-0.51,0.41l-0.52,0.38l-0.53,0.34l-0.55,0.31l-0.56,0.28l-0.57,0.25l-0.57,0.22l-0.58,0.19l-0.59,0.16
		l-0.59,0.13l-0.6,0.1l-0.6,0.07l-0.6,0.03l-0.6,0l-0.6-0.03l-0.6-0.06l-0.6-0.09l-0.59-0.12l-0.59-0.15l-0.58-0.18l-0.57-0.21
		l-0.57-0.24l-0.56-0.27L163.53,24L163,23.66l-0.52-0.37l-0.51-0.4l-0.49-0.43L161,22.02L160.55,21.53z M178.26,21.89L178.26,21.89z
		 M178.26,21.89l-0.14-0.16l0.45-0.49l0.42-0.5l0.39-0.52l0.36-0.54l0.33-0.55l0.31-0.57l0.28-0.58l0.25-0.59l0.22-0.6l0.19-0.61
		l0.17-0.62l0.14-0.62l0.11-0.63l0.08-0.63l0.05-0.64l0.03-0.64l0-0.64l-0.03-0.64l-0.06-0.64l-0.09-0.63l-0.12-0.63l-0.14-0.62
		L181.27,8l-0.2-0.61l-0.23-0.6l-0.26-0.59l-0.29-0.58l-0.31-0.57l-0.34-0.55l-0.37-0.54l-0.4-0.52l-0.43-0.51l0.15-0.15l0.44,0.51
		l0.41,0.53l0.38,0.55l0.35,0.56l0.32,0.58l0.29,0.59l0.26,0.6l0.23,0.61l0.2,0.62l0.18,0.63l0.15,0.63l0.12,0.64l0.09,0.64
		l0.06,0.65l0.03,0.65l0,0.65l-0.03,0.65l-0.05,0.65l-0.08,0.64l-0.11,0.64l-0.14,0.63l-0.17,0.63l-0.2,0.62l-0.23,0.61l-0.25,0.6
		l-0.28,0.59l-0.31,0.58l-0.34,0.56l-0.37,0.55l-0.4,0.53l-0.42,0.51L178.26,21.89z"/>
	<path class="st3" d="M161.45,2.18l0.14,0.16l-0.42,0.45l-0.39,0.47l-0.36,0.49l-0.34,0.5l-0.31,0.52L159.5,5.3l-0.26,0.54L159,6.38
		l-0.21,0.56l-0.18,0.57l-0.15,0.57l-0.13,0.58l-0.1,0.59l-0.08,0.59l-0.05,0.59l-0.02,0.59l0,0.59l0.03,0.59l0.06,0.59l0.08,0.59
		l0.11,0.59l0.13,0.58l0.16,0.57l0.19,0.57l0.21,0.56l0.24,0.55l0.27,0.54l0.29,0.53l0.32,0.51l0.35,0.5l0.37,0.49l0.4,0.47
		l-0.15,0.15l-0.41-0.48l-0.38-0.49L160,18.52L159.68,18l-0.3-0.54l-0.27-0.55l-0.24-0.56l-0.22-0.57l-0.19-0.58l-0.16-0.58
		l-0.14-0.59l-0.11-0.6l-0.08-0.6l-0.06-0.6l-0.03-0.6l0-0.6l0.02-0.6l0.05-0.6l0.08-0.6l0.1-0.6l0.13-0.59l0.16-0.58l0.18-0.58
		l0.21-0.57l0.24-0.56l0.26-0.55l0.29-0.54l0.32-0.52l0.34-0.51l0.37-0.5l0.4-0.48L161.45,2.18z M161.29,19.85L161.29,19.85z
		 M161.14,20.01l0.15-0.15l0.42,0.45l0.44,0.42l0.45,0.39l0.46,0.36l0.48,0.34l0.49,0.31l0.5,0.28l0.51,0.25l0.52,0.22l0.53,0.2
		l0.53,0.17l0.54,0.14l0.54,0.11l0.55,0.08l0.55,0.05l0.55,0.03l0.55,0l0.55-0.03l0.55-0.06l0.55-0.09l0.54-0.12l0.54-0.14
		l0.53-0.17l0.53-0.2l0.52-0.23l0.51-0.26l0.5-0.29l0.49-0.32l0.48-0.34l0.46-0.37l0.45-0.4l0.44-0.43l0.14,0.16l-0.44,0.44
		l-0.46,0.41l-0.47,0.38l-0.49,0.35l-0.5,0.32l-0.51,0.29l-0.52,0.26l-0.53,0.23l-0.54,0.21l-0.54,0.18l-0.55,0.15l-0.55,0.12
		l-0.56,0.09l-0.56,0.06l-0.56,0.03l-0.56,0l-0.56-0.03l-0.56-0.05l-0.56-0.08l-0.55-0.11l-0.55-0.14l-0.54-0.17l-0.54-0.2
		l-0.53-0.23l-0.52-0.26l-0.51-0.28l-0.5-0.31l-0.49-0.34l-0.47-0.37l-0.46-0.4l-0.44-0.43L161.14,20.01z M177.66,20.35
		L177.66,20.35z M177.66,20.35l-0.14-0.16l0.42-0.45l0.39-0.47l0.36-0.49l0.34-0.5l0.31-0.52l0.28-0.53l0.26-0.54l0.23-0.55
		l0.21-0.56l0.18-0.57l0.15-0.57l0.13-0.58l0.1-0.59l0.08-0.59l0.05-0.59l0.02-0.59l0-0.59l-0.03-0.59l-0.06-0.59l-0.08-0.59
		l-0.11-0.59l-0.13-0.58l-0.16-0.57l-0.19-0.57l-0.21-0.56l-0.24-0.55l-0.27-0.54l-0.29-0.53l-0.32-0.51l-0.35-0.5l-0.37-0.49
		l-0.4-0.47l0.15-0.15L178.39,3l0.38,0.49L179.12,4l0.32,0.52l0.3,0.54l0.27,0.55l0.24,0.56l0.22,0.57l0.19,0.58l0.16,0.58
		l0.14,0.59l0.11,0.6l0.08,0.6l0.06,0.6l0.03,0.6l0,0.6l-0.02,0.6l-0.05,0.6l-0.08,0.6l-0.1,0.6l-0.13,0.59l-0.16,0.58l-0.18,0.58
		l-0.21,0.57l-0.24,0.56l-0.26,0.55l-0.29,0.54l-0.32,0.52l-0.34,0.51l-0.37,0.5l-0.4,0.48L177.66,20.35z"/>
	<path class="st3" d="M162.02,1.94l0.14,0.16l-0.39,0.42l-0.36,0.44l-0.34,0.45l-0.31,0.46l-0.29,0.48l-0.26,0.49l-0.24,0.5
		l-0.22,0.51l-0.19,0.52l-0.17,0.53l-0.14,0.53l-0.12,0.54l-0.1,0.54l-0.07,0.55l-0.05,0.55l-0.02,0.55l0,0.55l0.03,0.55l0.05,0.55
		l0.08,0.55l0.1,0.54l0.12,0.54l0.15,0.53l0.17,0.53l0.2,0.52l0.22,0.51l0.25,0.5l0.27,0.49l0.3,0.48l0.32,0.46l0.35,0.45l0.37,0.44
		l-0.15,0.15l-0.38-0.44L161,17.58l-0.33-0.47l-0.3-0.49l-0.28-0.5l-0.25-0.51l-0.23-0.52l-0.2-0.53l-0.18-0.54l-0.15-0.54
		l-0.13-0.55l-0.1-0.55l-0.08-0.56l-0.05-0.56l-0.03-0.56l0-0.56l0.02-0.56l0.05-0.56l0.07-0.56l0.1-0.55l0.12-0.55l0.15-0.54
		l0.17-0.54l0.2-0.53l0.22-0.52l0.25-0.51l0.27-0.5l0.29-0.49l0.32-0.47l0.34-0.46l0.37-0.44L162.02,1.94z M161.88,18.33
		L161.88,18.33z M161.73,18.48l0.15-0.15l0.39,0.42l0.4,0.39l0.42,0.36l0.43,0.34l0.44,0.31l0.45,0.29l0.46,0.26l0.47,0.23
		l0.48,0.21l0.49,0.18l0.49,0.15l0.5,0.13l0.5,0.1l0.51,0.08l0.51,0.05l0.51,0.02l0.51,0l0.51-0.03l0.51-0.06l0.51-0.08l0.5-0.11
		l0.5-0.13l0.49-0.16l0.49-0.19l0.48-0.21l0.47-0.24l0.46-0.27l0.45-0.29l0.44-0.32l0.43-0.35l0.42-0.37l0.4-0.4l0.14,0.16
		l-0.41,0.41l-0.43,0.38l-0.44,0.35l-0.45,0.33l-0.46,0.3l-0.47,0.27l-0.48,0.25l-0.49,0.22l-0.5,0.19l-0.5,0.16l-0.51,0.14
		l-0.51,0.11l-0.52,0.08l-0.52,0.06l-0.52,0.03l-0.52,0l-0.52-0.02l-0.52-0.05l-0.52-0.08l-0.51-0.1l-0.51-0.13l-0.5-0.16l-0.5-0.18
		l-0.49-0.21l-0.48-0.24l-0.47-0.26l-0.46-0.29l-0.45-0.32l-0.44-0.34l-0.43-0.37l-0.41-0.4L161.73,18.48z M176.93,18.64
		L176.93,18.64z M177.07,18.8l-0.14-0.16l0.39-0.42l0.36-0.44l0.34-0.45l0.31-0.46l0.29-0.48l0.26-0.49l0.24-0.5l0.22-0.51
		l0.19-0.52l0.17-0.53l0.14-0.53l0.12-0.54l0.09-0.54l0.07-0.55l0.05-0.55l0.02-0.55l0-0.55l-0.03-0.55l-0.05-0.55l-0.08-0.55
		l-0.1-0.54l-0.12-0.54l-0.15-0.53l-0.17-0.53l-0.2-0.52l-0.22-0.51l-0.25-0.5l-0.27-0.49l-0.3-0.48l-0.32-0.46l-0.34-0.45
		l-0.37-0.44l0.15-0.15l0.38,0.44l0.35,0.46l0.33,0.47l0.3,0.49l0.28,0.5l0.25,0.51l0.23,0.52l0.2,0.53l0.18,0.54l0.15,0.54
		l0.13,0.55l0.1,0.55l0.08,0.56l0.05,0.56l0.03,0.56l0,0.56l-0.02,0.56l-0.05,0.56l-0.07,0.56l-0.1,0.55l-0.12,0.55l-0.15,0.54
		l-0.17,0.54l-0.2,0.53l-0.22,0.52l-0.25,0.51l-0.27,0.5l-0.29,0.49l-0.32,0.47l-0.34,0.46l-0.37,0.44L177.07,18.8z"/>
	<path class="st3" d="M162.59,1.69l0.14,0.16l-0.35,0.39l-0.33,0.4l-0.31,0.42l-0.29,0.43l-0.27,0.44l-0.24,0.45l-0.22,0.46
		l-0.2,0.47l-0.18,0.48l-0.15,0.48l-0.13,0.49l-0.11,0.5l-0.09,0.5l-0.06,0.5l-0.04,0.51l-0.02,0.51l0,0.51l0.02,0.51l0.05,0.51
		l0.07,0.5l0.09,0.5l0.11,0.5l0.14,0.49l0.16,0.48l0.18,0.48l0.2,0.47l0.23,0.46l0.25,0.45l0.27,0.44l0.29,0.43l0.32,0.42l0.34,0.4
		l-0.15,0.15l-0.35-0.41l-0.32-0.42l-0.3-0.44l-0.28-0.45l-0.26-0.46l-0.23-0.47l-0.21-0.48l-0.19-0.49l-0.16-0.49l-0.14-0.5
		l-0.12-0.51l-0.09-0.51l-0.07-0.51l-0.05-0.52l-0.02-0.52l0-0.52l0.02-0.52l0.04-0.52l0.07-0.51l0.09-0.51l0.11-0.51L160,6.2
		l0.16-0.49l0.18-0.49l0.2-0.48l0.23-0.47l0.25-0.46l0.27-0.45l0.29-0.44l0.32-0.42l0.34-0.41L162.59,1.69z M162.47,16.81
		L162.47,16.81z M162.32,16.96l0.15-0.15l0.36,0.38l0.37,0.36l0.39,0.33l0.4,0.31l0.41,0.29l0.42,0.26l0.43,0.24l0.44,0.21
		l0.44,0.19l0.45,0.17l0.45,0.14l0.46,0.12l0.46,0.09l0.47,0.07l0.47,0.05l0.47,0.02l0.47,0l0.47-0.03l0.47-0.05l0.47-0.08l0.46-0.1
		l0.46-0.12l0.45-0.15l0.45-0.17l0.44-0.2l0.44-0.22l0.43-0.25l0.42-0.27l0.41-0.29l0.4-0.32l0.38-0.34l0.37-0.37l0.14,0.16
		l-0.38,0.38l-0.39,0.35l-0.41,0.33l-0.42,0.3l-0.43,0.27l-0.44,0.25l-0.44,0.23l-0.45,0.2l-0.46,0.18l-0.46,0.15l-0.47,0.13
		l-0.47,0.1l-0.48,0.08l-0.48,0.05l-0.48,0.03l-0.48,0l-0.48-0.02l-0.48-0.05l-0.48-0.07l-0.47-0.1l-0.47-0.12l-0.46-0.15
		l-0.46-0.17l-0.45-0.19l-0.44-0.22l-0.44-0.24l-0.43-0.27l-0.42-0.29l-0.4-0.32l-0.39-0.34l-0.38-0.37L162.32,16.96z M176.48,17.25
		L176.48,17.25z M176.48,17.25l-0.14-0.16l0.35-0.39l0.33-0.4l0.31-0.42l0.29-0.43l0.27-0.44l0.24-0.45l0.22-0.46l0.2-0.47
		l0.18-0.48l0.15-0.48l0.13-0.49l0.11-0.5l0.09-0.5l0.06-0.5l0.04-0.51l0.02-0.51l0-0.51l-0.02-0.51l-0.05-0.51l-0.07-0.5l-0.09-0.5
		l-0.11-0.5l-0.14-0.49l-0.16-0.48l-0.18-0.48l-0.2-0.47l-0.23-0.46l-0.25-0.45l-0.27-0.44l-0.3-0.43l-0.32-0.42l-0.34-0.4
		l0.15-0.15l0.35,0.41l0.32,0.42l0.3,0.44L178,3.71l0.25,0.46l0.23,0.47l0.21,0.48l0.19,0.49l0.16,0.49l0.14,0.5l0.12,0.51
		l0.09,0.51l0.07,0.51l0.05,0.52l0.02,0.52l0,0.52l-0.02,0.52l-0.04,0.52l-0.07,0.51l-0.09,0.51l-0.11,0.51l-0.13,0.5l-0.16,0.49
		l-0.18,0.49l-0.2,0.48l-0.23,0.47l-0.25,0.46l-0.27,0.45l-0.29,0.44l-0.32,0.42l-0.34,0.41L176.48,17.25z"/>
	<path class="st3" d="M163.17,1.45l0.14,0.16l-0.32,0.35l-0.3,0.37l-0.28,0.38l-0.26,0.39l-0.24,0.4l-0.22,0.41l-0.2,0.42
		l-0.18,0.43l-0.16,0.44l-0.14,0.44l-0.12,0.45l-0.1,0.45l-0.08,0.46l-0.06,0.46l-0.04,0.46l-0.02,0.46l0,0.46l0.02,0.46l0.04,0.46
		l0.06,0.46l0.08,0.46l0.1,0.45l0.13,0.45l0.15,0.44l0.17,0.44l0.19,0.43l0.21,0.42l0.23,0.41l0.25,0.4l0.27,0.39l0.29,0.38
		l0.31,0.37l-0.15,0.15l-0.32-0.38l-0.3-0.39l-0.28-0.4l-0.25-0.41l-0.23-0.42l-0.21-0.43l-0.19-0.44l-0.17-0.45l-0.15-0.45
		l-0.13-0.46l-0.11-0.46l-0.09-0.47l-0.07-0.47l-0.04-0.47l-0.02-0.47l0-0.47l0.02-0.47l0.04-0.47l0.06-0.47l0.08-0.47l0.1-0.46
		l0.12-0.46l0.14-0.45l0.17-0.45l0.19-0.44l0.21-0.43l0.23-0.42l0.25-0.41l0.27-0.4l0.29-0.39l0.31-0.38L163.17,1.45z M163.07,15.29
		L163.07,15.29z M162.92,15.44l0.15-0.15l0.33,0.35l0.34,0.33l0.35,0.31l0.36,0.28l0.37,0.26l0.38,0.24l0.39,0.22l0.4,0.2l0.4,0.17
		l0.41,0.15l0.42,0.13l0.42,0.11l0.42,0.09l0.43,0.06l0.43,0.04l0.43,0.02l0.43,0l0.43-0.02l0.43-0.05l0.43-0.07l0.42-0.09
		l0.42-0.11l0.42-0.14l0.41-0.16l0.4-0.18l0.4-0.2l0.39-0.22l0.38-0.25l0.37-0.27l0.36-0.29l0.35-0.31l0.34-0.34l0.14,0.16
		l-0.35,0.34l-0.36,0.32l-0.37,0.3l-0.38,0.28l-0.39,0.25l-0.4,0.23l-0.41,0.21l-0.41,0.18l-0.42,0.16l-0.43,0.14l-0.43,0.12
		l-0.43,0.09l-0.44,0.07l-0.44,0.05l-0.44,0.02l-0.44,0l-0.44-0.02l-0.44-0.04l-0.44-0.07l-0.43-0.09l-0.43-0.11l-0.43-0.13
		l-0.42-0.16l-0.41-0.18l-0.41-0.2l-0.4-0.22L164.71,17l-0.38-0.27l-0.37-0.29l-0.36-0.31l-0.35-0.34L162.92,15.44z M175.74,15.55
		L175.74,15.55z M175.88,15.71l-0.14-0.16l0.32-0.35l0.3-0.37l0.28-0.38l0.26-0.39l0.24-0.4l0.22-0.41l0.2-0.42l0.18-0.43l0.16-0.44
		l0.14-0.44l0.12-0.45l0.1-0.45l0.08-0.46l0.06-0.46l0.04-0.46l0.02-0.46l0-0.46l-0.02-0.46l-0.04-0.46l-0.06-0.46l-0.08-0.46
		L178.17,6l-0.13-0.45l-0.15-0.44l-0.17-0.44l-0.19-0.43l-0.21-0.42l-0.23-0.41l-0.25-0.4l-0.27-0.39l-0.29-0.38l-0.31-0.37
		l0.15-0.15l0.32,0.37l0.3,0.39l0.28,0.4l0.26,0.41l0.23,0.42l0.21,0.43l0.19,0.44l0.17,0.45l0.15,0.45l0.13,0.46l0.11,0.46
		l0.09,0.47l0.07,0.47l0.04,0.47l0.02,0.47l0,0.47l-0.02,0.47l-0.04,0.47l-0.06,0.47l-0.08,0.47l-0.1,0.46l-0.12,0.46l-0.14,0.45
		l-0.17,0.45l-0.19,0.44l-0.21,0.43l-0.23,0.42l-0.25,0.41l-0.27,0.4l-0.29,0.39l-0.31,0.38L175.88,15.71z"/>
	<path class="st3" d="M163.74,1.21l0.14,0.16l-0.29,0.32l-0.28,0.33l-0.26,0.34l-0.24,0.35l-0.22,0.36l-0.2,0.37l-0.18,0.38
		l-0.17,0.39l-0.15,0.4l-0.13,0.4l-0.11,0.41l-0.09,0.41l-0.07,0.41l-0.05,0.42l-0.04,0.42l-0.02,0.42l0,0.42l0.02,0.42l0.04,0.42
		l0.06,0.42l0.08,0.41l0.1,0.41l0.11,0.41l0.13,0.4l0.15,0.4l0.17,0.39l0.19,0.38l0.21,0.37l0.23,0.36l0.24,0.35l0.26,0.34
		l0.28,0.33l-0.15,0.15l-0.29-0.34l-0.27-0.35l-0.25-0.36l-0.23-0.37l-0.21-0.38l-0.19-0.39l-0.17-0.4l-0.15-0.41l-0.14-0.41
		l-0.12-0.42l-0.1-0.42l-0.08-0.43l-0.06-0.43l-0.04-0.43l-0.02-0.43l0-0.43l0.02-0.43l0.04-0.43l0.06-0.43l0.07-0.42l0.09-0.42
		l0.11-0.42l0.13-0.41l0.15-0.41l0.17-0.4l0.19-0.39l0.21-0.38l0.23-0.37l0.24-0.36l0.26-0.35l0.28-0.34L163.74,1.21z M163.66,13.76
		L163.66,13.76z M163.51,13.92l0.15-0.15l0.3,0.32l0.31,0.3l0.32,0.28l0.33,0.26l0.34,0.24l0.35,0.22l0.35,0.2l0.36,0.18l0.37,0.16
		l0.37,0.14l0.38,0.12l0.38,0.1l0.38,0.08l0.39,0.06l0.39,0.04l0.39,0.02l0.39,0l0.39-0.02l0.39-0.04l0.39-0.06l0.38-0.08l0.38-0.1
		l0.38-0.12l0.37-0.14l0.37-0.16l0.36-0.18l0.35-0.2l0.35-0.22l0.34-0.24l0.33-0.26l0.32-0.28l0.31-0.3l0.14,0.16l-0.32,0.31
		l-0.33,0.29l-0.34,0.27l-0.35,0.25l-0.35,0.23l-0.36,0.21l-0.37,0.19l-0.38,0.17l-0.38,0.15l-0.39,0.13l-0.39,0.11l-0.39,0.08
		l-0.4,0.06l-0.4,0.04l-0.4,0.02l-0.4,0l-0.4-0.02l-0.4-0.04l-0.4-0.06l-0.39-0.08l-0.39-0.1l-0.39-0.12l-0.38-0.14l-0.38-0.16
		l-0.37-0.18l-0.36-0.2l-0.36-0.22l-0.35-0.24l-0.34-0.26l-0.33-0.28l-0.32-0.3L163.51,13.92z M175.15,14L175.15,14z M175.29,14.16
		L175.15,14l0.29-0.32l0.28-0.33l0.26-0.34l0.24-0.35l0.22-0.36l0.2-0.37l0.18-0.38l0.17-0.39l0.15-0.4l0.13-0.4l0.11-0.41
		l0.09-0.41l0.07-0.41l0.05-0.42l0.04-0.42l0.02-0.42l0-0.42l-0.02-0.42l-0.04-0.42l-0.06-0.42l-0.08-0.41l-0.1-0.41l-0.11-0.41
		l-0.13-0.4l-0.15-0.4l-0.17-0.39l-0.19-0.38L176.39,3l-0.23-0.36l-0.24-0.35l-0.26-0.34l-0.28-0.33l0.15-0.15l0.29,0.34l0.27,0.35
		l0.25,0.36l0.23,0.37l0.21,0.38l0.19,0.39l0.17,0.4l0.15,0.41l0.14,0.41l0.12,0.42l0.1,0.42l0.08,0.43l0.06,0.43l0.04,0.43
		l0.02,0.43l0,0.43l-0.02,0.43l-0.04,0.43l-0.06,0.43l-0.07,0.42l-0.09,0.42l-0.11,0.42l-0.13,0.41l-0.15,0.41l-0.17,0.4l-0.19,0.39
		l-0.21,0.38l-0.23,0.37l-0.24,0.36l-0.26,0.35l-0.28,0.34L175.29,14.16z"/>
	<path class="st3" d="M164.31,0.97l0.14,0.16l-0.26,0.29l-0.25,0.3l-0.23,0.31l-0.21,0.32l-0.2,0.33L163.11,3l-0.16,0.34l-0.15,0.35
		l-0.13,0.36l-0.11,0.36l-0.1,0.36l-0.08,0.37l-0.06,0.37l-0.05,0.37l-0.03,0.38l-0.02,0.38l0,0.38l0.02,0.38l0.04,0.38l0.05,0.37
		l0.07,0.37l0.09,0.37l0.1,0.36l0.12,0.36l0.14,0.35l0.15,0.35l0.17,0.34l0.19,0.34l0.2,0.33l0.22,0.32l0.24,0.31l0.25,0.3
		l-0.15,0.15l-0.26-0.31l-0.24-0.32l-0.23-0.33l-0.21-0.34l-0.19-0.34l-0.17-0.35l-0.16-0.36l-0.14-0.37l-0.12-0.37l-0.1-0.38
		l-0.09-0.38l-0.07-0.38l-0.05-0.38l-0.04-0.39l-0.02-0.39l0-0.39l0.02-0.39l0.03-0.39l0.05-0.38l0.07-0.38l0.08-0.38l0.1-0.38
		l0.12-0.37l0.14-0.36l0.15-0.36l0.17-0.35l0.19-0.34l0.2-0.34l0.22-0.33l0.24-0.32l0.25-0.31L164.31,0.97z M164.1,12.4L164.1,12.4z
		 M164.1,12.4l0.15-0.15l0.27,0.28l0.28,0.27l0.29,0.25l0.3,0.23l0.3,0.21l0.31,0.2l0.32,0.18l0.32,0.16l0.33,0.14l0.33,0.12
		l0.34,0.11l0.34,0.09l0.34,0.07l0.35,0.05l0.35,0.03l0.35,0.02l0.35,0l0.35-0.02l0.35-0.04l0.35-0.06l0.34-0.07l0.34-0.09
		l0.34-0.11l0.33-0.13l0.33-0.15l0.32-0.16l0.32-0.18l0.31-0.2l0.3-0.22l0.29-0.24l0.29-0.26l0.28-0.27l0.14,0.16l-0.28,0.28
		l-0.29,0.26l-0.3,0.24l-0.31,0.22l-0.32,0.21l-0.33,0.19l-0.33,0.17l-0.34,0.15l-0.34,0.13l-0.35,0.11l-0.35,0.09l-0.35,0.08
		l-0.36,0.06l-0.36,0.04l-0.36,0.02l-0.36,0L169,14.86l-0.36-0.04l-0.36-0.05l-0.35-0.07l-0.35-0.09l-0.35-0.11l-0.34-0.13
		l-0.34-0.15l-0.33-0.16l-0.33-0.18l-0.32-0.2l-0.31-0.22l-0.3-0.24l-0.29-0.26l-0.29-0.27L164.1,12.4z M174.7,12.61L174.7,12.61z
		 M174.7,12.61l-0.14-0.16l0.26-0.29l0.25-0.3l0.23-0.31l0.21-0.32l0.2-0.33l0.18-0.33l0.16-0.34l0.15-0.35l0.13-0.36l0.11-0.36
		l0.1-0.36l0.08-0.37l0.07-0.37l0.05-0.37l0.03-0.38l0.02-0.38l0-0.38l-0.02-0.38l-0.04-0.38l-0.05-0.37l-0.07-0.37l-0.09-0.37
		l-0.1-0.36l-0.12-0.36l-0.14-0.35l-0.15-0.35l-0.17-0.34l-0.19-0.34l-0.2-0.33l-0.22-0.32l-0.24-0.31l-0.25-0.3l0.15-0.15
		l0.26,0.31l0.24,0.32l0.23,0.33l0.21,0.34l0.19,0.34l0.17,0.35l0.16,0.36l0.14,0.37l0.12,0.37l0.1,0.37l0.09,0.38l0.07,0.38
		l0.05,0.38l0.04,0.39l0.02,0.39l0,0.39l-0.02,0.39l-0.03,0.39L176.9,8.1l-0.07,0.38l-0.08,0.38l-0.1,0.38l-0.12,0.37l-0.14,0.36
		l-0.15,0.36l-0.17,0.35l-0.19,0.34l-0.2,0.34l-0.22,0.33l-0.24,0.32l-0.25,0.31L174.7,12.61z"/>
	<path class="st4" d="M169.41,26.9c-0.79,4.93,0.58,8.54-0.01,13.73c0.51-0.04,1.02-0.08,1.54-0.12c-1.04-5.47-1.12-9.38-0.66-13.74
		C169.95,26.83,169.73,26.83,169.41,26.9"/>
	<path class="st4" d="M168.67,27.56c-10.3-2.37-9.54-14.64-1.53-19.64c8.21-5.13,17.34,14.82,4.85,19.33
		C170.73,27.71,169.96,27.86,168.67,27.56"/>
	<path class="st0" d="M168.6,27.81L168.6,27.81z M168.6,27.81l0.13-0.49l0.11,0.03l0.11,0.02l0.11,0.02l0.11,0.02l0.1,0.02l0.1,0.01
		l0.1,0.01l0.1,0.01l0.1,0.01l0.09,0l0.09,0l0.09,0l0.09,0l0.09-0.01l0.09-0.01l0.09-0.01l0.09-0.01l0.09-0.01l0.09-0.01l0.09-0.02
		l0.09-0.02l0.09-0.02l0.09-0.02l0.1-0.02l0.1-0.03l0.1-0.03l0.1-0.03l0.1-0.03l0.11-0.04l0.11-0.04l0.11-0.04l0.12-0.04l0.2,0.47
		l-0.12,0.04l-0.12,0.04l-0.11,0.04l-0.11,0.04l-0.11,0.04l-0.11,0.03l-0.11,0.03l-0.11,0.03l-0.1,0.03l-0.1,0.03l-0.1,0.02
		l-0.1,0.02l-0.1,0.02l-0.1,0.02l-0.1,0.02l-0.1,0.01l-0.1,0.01l-0.1,0.01l-0.1,0.01l-0.11,0l-0.1,0l-0.11,0l-0.11,0l-0.11-0.01
		l-0.11-0.01l-0.11-0.01l-0.11-0.01l-0.11-0.02l-0.12-0.02l-0.12-0.02l-0.12-0.02L168.6,27.81z M171.88,27.02L171.88,27.02z
		 M172.09,27.49l-0.2-0.47l1.08-0.46l0.96-0.53l0.84-0.61l0.73-0.67l0.62-0.73l0.52-0.78l0.42-0.83l0.33-0.87l0.24-0.9l0.15-0.93
		l0.07-0.94l-0.01-0.95l-0.09-0.96l-0.16-0.95l-0.23-0.94l-0.29-0.92l-0.35-0.89l-0.41-0.85l-0.46-0.81l-0.5-0.76l-0.55-0.7
		l-0.58-0.64l-0.62-0.56l-0.64-0.48l-0.67-0.4l-0.68-0.3l-0.7-0.2l-0.71-0.1l-0.72,0.01l-0.72,0.13l-0.73,0.25l-0.73,0.39
		l-0.31-0.42l0.81-0.43L168.61,7l0.82-0.15l0.81-0.01l0.8,0.11l0.78,0.23l0.75,0.33l0.72,0.43l0.69,0.52l0.65,0.6l0.61,0.67
		l0.57,0.73l0.52,0.79l0.47,0.84l0.42,0.88l0.36,0.92l0.3,0.95l0.24,0.97l0.17,0.99l0.09,0.99l0.01,0.99l-0.07,0.98l-0.16,0.97
		l-0.25,0.95l-0.35,0.92l-0.45,0.88l-0.55,0.83l-0.66,0.78l-0.78,0.71l-0.89,0.64l-1.01,0.57L172.09,27.49z M166.98,7.71l0.31,0.42
		l-0.71,0.48l-0.67,0.52l-0.63,0.55l-0.59,0.59l-0.54,0.62l-0.5,0.64l-0.45,0.67l-0.4,0.69l-0.36,0.7l-0.31,0.72l-0.26,0.73
		l-0.21,0.73l-0.16,0.74l-0.11,0.74l-0.06,0.74l-0.01,0.74l0.04,0.73l0.1,0.71l0.15,0.7l0.21,0.68l0.26,0.66l0.32,0.64l0.37,0.61
		l0.43,0.58l0.48,0.55l0.54,0.52l0.6,0.48l0.66,0.44l0.72,0.39l0.78,0.35l0.85,0.3l0.91,0.24l-0.13,0.49l-0.95-0.26l-0.89-0.31
		l-0.83-0.37l-0.76-0.42l-0.7-0.46l-0.64-0.51l-0.58-0.55l-0.51-0.59l-0.45-0.62l-0.39-0.65l-0.33-0.68l-0.27-0.7l-0.21-0.72
		l-0.16-0.74l-0.1-0.75l-0.05-0.76l0.01-0.77l0.06-0.77l0.12-0.77l0.17-0.77l0.22-0.77l0.27-0.76l0.32-0.75l0.37-0.73l0.42-0.71
		l0.47-0.69l0.52-0.67l0.56-0.64l0.61-0.61l0.66-0.58l0.7-0.54L166.98,7.71z"/>
	<path class="st5" d="M167.37,13.26c2.94-1.31,6.32,0.19,7.54,3.37c1.22,3.18-0.18,6.82-3.13,8.13c-2.94,1.32-6.32-0.19-7.54-3.37
		C163.03,18.22,164.43,14.58,167.37,13.26"/>
	<path class="st0" d="M167.27,12.99l0.21,0.55l-0.26,0.12l-0.25,0.14l-0.24,0.15l-0.23,0.16l-0.22,0.17l-0.21,0.18l-0.2,0.19
		l-0.19,0.2l-0.18,0.21l-0.17,0.22l-0.16,0.23L165,15.74l-0.14,0.24l-0.13,0.25l-0.12,0.25l-0.11,0.26l-0.1,0.26l-0.08,0.27
		l-0.07,0.27l-0.06,0.28l-0.05,0.28l-0.03,0.28l-0.02,0.29l-0.01,0.29l0,0.29l0.02,0.29l0.03,0.29l0.05,0.29l0.06,0.29l0.07,0.29
		l0.09,0.29l0.1,0.29l-0.51,0.23l-0.11-0.31l-0.1-0.32l-0.08-0.32l-0.07-0.32l-0.05-0.32l-0.03-0.32l-0.02-0.32l0-0.32l0.01-0.32
		l0.02-0.31l0.04-0.31l0.05-0.31l0.06-0.31l0.08-0.3l0.09-0.3l0.1-0.29l0.12-0.29l0.13-0.28l0.14-0.27l0.16-0.27l0.17-0.26
		l0.18-0.25l0.19-0.24l0.2-0.23l0.21-0.22l0.22-0.21l0.23-0.2l0.24-0.19l0.26-0.18l0.26-0.16l0.28-0.15L167.27,12.99z M163.99,21.51
		l0.51-0.23l0.12,0.28l0.13,0.27l0.14,0.26l0.15,0.25l0.16,0.24l0.17,0.23l0.18,0.22l0.19,0.21l0.19,0.2l0.2,0.19l0.21,0.17
		l0.22,0.16l0.22,0.15l0.23,0.14l0.24,0.13l0.24,0.12l0.25,0.1l0.25,0.09l0.25,0.08l0.26,0.06l0.26,0.05l0.26,0.04l0.27,0.02
		l0.27,0.01l0.27-0.01l0.27-0.02l0.27-0.03l0.27-0.05l0.27-0.06l0.27-0.08l0.27-0.09l0.26-0.11l0.21,0.55l-0.29,0.12l-0.29,0.1
		l-0.29,0.09l-0.3,0.07l-0.3,0.05l-0.3,0.04l-0.3,0.02l-0.29,0.01l-0.29-0.01l-0.29-0.03l-0.29-0.04l-0.29-0.06l-0.28-0.07
		l-0.28-0.09l-0.27-0.1l-0.27-0.11L167,24.91l-0.26-0.14l-0.25-0.15l-0.25-0.17L166,24.27l-0.23-0.19l-0.22-0.2l-0.21-0.22
		l-0.21-0.23l-0.2-0.24l-0.19-0.25l-0.17-0.26l-0.16-0.28l-0.15-0.29l-0.14-0.3L163.99,21.51z M171.89,25.04l-0.21-0.55l0.26-0.12
		l0.25-0.14l0.24-0.15l0.23-0.16l0.22-0.17l0.21-0.18l0.2-0.19l0.19-0.2l0.18-0.21l0.17-0.22l0.16-0.23l0.15-0.23l0.14-0.24
		l0.13-0.25l0.12-0.25l0.11-0.26l0.1-0.26l0.08-0.27l0.07-0.27l0.06-0.28l0.05-0.28l0.03-0.28l0.02-0.29l0.01-0.29l0-0.29
		l-0.02-0.29l-0.03-0.29l-0.05-0.29l-0.06-0.29l-0.07-0.29l-0.09-0.29l-0.1-0.29l0.51-0.23l0.11,0.31l0.1,0.32l0.08,0.32l0.07,0.32
		l0.05,0.32l0.03,0.32l0.02,0.32l0,0.32l-0.01,0.32l-0.02,0.31L175.56,20l-0.05,0.31l-0.06,0.31l-0.08,0.3l-0.09,0.3l-0.1,0.29
		l-0.12,0.29l-0.13,0.28l-0.14,0.27l-0.16,0.27l-0.17,0.26l-0.18,0.25l-0.19,0.24l-0.2,0.23l-0.21,0.22l-0.22,0.21l-0.23,0.2
		l-0.24,0.19l-0.26,0.18l-0.26,0.16l-0.28,0.15L171.89,25.04z M175.17,16.52l-0.51,0.23l-0.12-0.28l-0.13-0.27l-0.14-0.26
		l-0.15-0.25l-0.16-0.24l-0.17-0.23L173.63,15l-0.19-0.21l-0.2-0.2l-0.2-0.19l-0.21-0.17l-0.22-0.16l-0.22-0.15l-0.23-0.14
		l-0.24-0.13l-0.24-0.12l-0.25-0.1l-0.25-0.09l-0.26-0.08l-0.26-0.06l-0.26-0.05l-0.26-0.04l-0.27-0.02l-0.27-0.01l-0.27,0.01
		l-0.27,0.02l-0.27,0.03l-0.27,0.05l-0.27,0.06l-0.27,0.08l-0.27,0.09l-0.26,0.11l-0.21-0.55l0.29-0.12l0.29-0.1l0.29-0.09l0.3-0.07
		l0.3-0.05l0.3-0.04l0.3-0.02l0.29-0.01l0.29,0.01l0.29,0.03l0.29,0.04l0.29,0.06l0.28,0.07l0.28,0.09l0.28,0.1l0.27,0.11l0.26,0.13
		l0.26,0.14l0.25,0.15l0.25,0.17l0.24,0.18l0.23,0.19l0.22,0.2l0.21,0.22l0.21,0.23l0.2,0.24l0.19,0.25l0.17,0.26l0.16,0.27
		l0.15,0.29l0.14,0.3L175.17,16.52z"/>
	<path class="st6" d="M170.25,16.86c3.13,0.78,3.49,2.75,2.71,4.9c-0.2,0.72-1.7,2.56-3.5,0.15c-0.64,1.16-2.09,2.23-3.33-0.08
		C164.83,17.85,168.41,16.55,170.25,16.86"/>
	<path class="st0" d="M170.29,16.56L170.29,16.56l0.02,0L170.29,16.56z M170.31,16.56l-0.12,0.58l0.02,0l-0.16-0.02l-0.17-0.01
		l-0.18,0l-0.19,0.01l-0.19,0.01l-0.2,0.02l-0.2,0.03l-0.2,0.05l-0.2,0.05l-0.2,0.07l-0.2,0.08l-0.2,0.09l-0.19,0.1l-0.19,0.11
		l-0.18,0.12l-0.17,0.13l-0.16,0.14l-0.15,0.15l-0.14,0.16l-0.13,0.17l-0.11,0.18l-0.1,0.2l-0.09,0.21l-0.07,0.22l-0.05,0.23
		l-0.03,0.25l-0.02,0.26l0,0.28l0.03,0.29l0.05,0.31l0.08,0.33l0.1,0.35l-0.52,0.2l-0.11-0.38l-0.09-0.37l-0.06-0.35l-0.03-0.34
		l-0.01-0.33l0.02-0.31l0.04-0.3l0.06-0.29l0.09-0.27l0.11-0.26l0.12-0.24l0.14-0.23l0.15-0.21l0.17-0.2l0.18-0.18l0.19-0.17
		l0.2-0.15l0.21-0.14l0.21-0.12l0.22-0.11l0.22-0.1l0.23-0.09l0.23-0.07l0.23-0.06l0.23-0.05l0.23-0.04l0.22-0.03l0.22-0.02
		l0.21-0.01l0.21,0l0.2,0.02l0.19,0.03L170.31,16.56z M165.89,21.97l-0.01-0.02l-0.01-0.03L165.89,21.97z M165.87,21.92l0.52-0.2
		l-0.02-0.05l0.11,0.2l0.11,0.18l0.11,0.16l0.11,0.14l0.11,0.12l0.11,0.1l0.1,0.09l0.1,0.07l0.1,0.06l0.1,0.04l0.09,0.03l0.09,0.02
		l0.09,0.01l0.09,0l0.09-0.01l0.09-0.01l0.09-0.02l0.09-0.03l0.09-0.04l0.09-0.05l0.09-0.05l0.09-0.06l0.08-0.07l0.08-0.07
		l0.08-0.08l0.08-0.08l0.08-0.09l0.07-0.09l0.07-0.09l0.07-0.1l0.06-0.1l0.06-0.1l0.48,0.3l-0.07,0.12l-0.07,0.12l-0.08,0.11
		l-0.08,0.11l-0.09,0.11l-0.09,0.11l-0.1,0.1l-0.1,0.1l-0.1,0.09l-0.11,0.09l-0.11,0.08l-0.12,0.07l-0.12,0.06l-0.12,0.05
		l-0.13,0.04l-0.13,0.03l-0.14,0.02l-0.14,0.01l-0.14-0.01l-0.14-0.02l-0.14-0.04l-0.14-0.05l-0.14-0.07l-0.14-0.08l-0.14-0.1
		l-0.14-0.12l-0.14-0.13l-0.13-0.15l-0.13-0.16l-0.13-0.18l-0.13-0.2l-0.12-0.22L165.87,21.92z M169.22,21.75l0.2-0.37l0.25,0.34
		L169.22,21.75z M169.7,22.05l-0.48-0.3l0.45-0.04l0.16,0.2l0.15,0.18l0.15,0.15l0.15,0.13l0.14,0.11l0.14,0.09l0.13,0.07l0.13,0.06
		l0.12,0.04l0.12,0.03l0.11,0.02l0.11,0l0.11-0.01l0.1-0.02l0.1-0.03l0.1-0.04l0.1-0.04l0.09-0.05l0.09-0.06l0.09-0.06l0.08-0.07
		l0.08-0.07l0.07-0.07l0.07-0.08l0.06-0.08l0.06-0.08l0.05-0.08l0.04-0.08l0.04-0.07l0.03-0.07l0.02-0.06l0.02-0.05l0.53,0.17
		l-0.03,0.09l-0.04,0.09l-0.04,0.1l-0.05,0.1l-0.06,0.1l-0.07,0.1l-0.07,0.1l-0.08,0.1l-0.09,0.1l-0.09,0.1l-0.1,0.09l-0.11,0.09
		l-0.11,0.08l-0.12,0.08l-0.13,0.07l-0.13,0.06l-0.14,0.05l-0.15,0.04l-0.15,0.02l-0.16,0.01l-0.16-0.01l-0.17-0.02l-0.17-0.04
		l-0.17-0.06l-0.17-0.08l-0.17-0.1l-0.17-0.12l-0.17-0.14l-0.17-0.16l-0.18-0.18l-0.18-0.2l-0.18-0.23L169.7,22.05z M172.7,21.66
		l0-0.01l0-0.01L172.7,21.66z M173.23,21.84l-0.53-0.17l0.01-0.02l0.07-0.19l0.06-0.19l0.05-0.19l0.04-0.19l0.04-0.18l0.03-0.18
		l0.02-0.18l0.01-0.17l0.01-0.17l0-0.17l-0.01-0.16L173,19.52l-0.03-0.16l-0.04-0.15l-0.05-0.15l-0.06-0.14l-0.07-0.14l-0.08-0.14
		l-0.09-0.13l-0.1-0.13l-0.11-0.13l-0.13-0.12l-0.14-0.12l-0.15-0.12l-0.17-0.11l-0.18-0.11l-0.2-0.1l-0.21-0.1l-0.23-0.09
		l-0.24-0.09l-0.26-0.08l-0.28-0.07l0.12-0.58l0.3,0.08l0.28,0.09l0.26,0.09l0.25,0.1l0.23,0.11l0.22,0.11l0.21,0.12l0.19,0.13
		l0.18,0.14l0.17,0.14l0.15,0.15l0.14,0.16l0.13,0.16l0.11,0.17l0.1,0.17l0.09,0.18l0.07,0.18l0.06,0.19l0.05,0.19l0.04,0.19
		l0.03,0.2l0.01,0.2l0,0.2l-0.01,0.2l-0.02,0.2l-0.02,0.2l-0.03,0.21l-0.04,0.21l-0.05,0.21l-0.06,0.21l-0.07,0.21l-0.07,0.21
		L173.23,21.84z"/>
	<polygon class="st7" points="167.29,53.68 166.99,53.91 166.73,53.49 166.49,53.05 166.26,52.57 166.03,52.08 165.82,51.55 
		165.62,51.01 165.44,50.44 165.27,49.85 165.11,49.24 164.97,48.62 164.85,47.99 164.75,47.34 164.66,46.68 164.59,46.01 
		164.55,45.33 164.52,44.64 164.52,43.96 164.54,43.26 164.58,42.57 164.65,41.88 164.74,41.19 164.86,40.5 165,39.83 165.18,39.15 
		165.38,38.49 165.61,37.84 165.87,37.2 166.17,36.57 166.5,35.96 166.86,35.37 167.26,34.8 167.69,34.25 167.96,34.52 
		167.54,35.05 167.16,35.6 166.81,36.17 166.49,36.76 166.2,37.37 165.95,37.99 165.72,38.62 165.52,39.27 165.35,39.92 
		165.21,40.58 165.09,41.25 165,41.93 164.94,42.61 164.9,43.28 164.88,43.96 164.88,44.64 164.91,45.31 164.95,45.97 165.02,46.63 
		165.11,47.28 165.21,47.91 165.33,48.54 165.47,49.15 165.62,49.74 165.78,50.32 165.97,50.87 166.16,51.4 166.36,51.91 
		166.58,52.4 166.81,52.86 167.04,53.29 	"/>
	<path class="st8" d="M152.85,20.34c5.55,4.47,0.58,9.38-2.17,16.99c-2.93,12.74,5.32,18.84,15.15,16.74
		c0.62,1.55,1.25,3.1,1.87,4.65c0.54-0.62,1.08-1.24,1.62-1.86c-0.81-1.2-1.62-2.4-2.43-3.6c9.17-8.52,5.45-16.35-4.58-23.59
		C158.87,27.24,156.91,21.72,152.85,20.34"/>
	<path class="st0" d="M152.96,20.18l-0.22,0.31l0.16-0.34l0.39,0.15l0.37,0.17l0.36,0.19l0.35,0.21l0.34,0.23l0.33,0.25l0.32,0.26
		l0.31,0.28l0.3,0.29l0.3,0.3l0.29,0.31l0.29,0.32l0.28,0.33l0.28,0.34l0.27,0.34l0.27,0.35l0.27,0.35l0.27,0.35l0.26,0.35
		l0.26,0.35l0.27,0.35l0.27,0.34l0.27,0.34l0.27,0.33l0.27,0.32l0.28,0.31l0.28,0.3l0.29,0.29l0.29,0.28l0.3,0.26l0.3,0.25
		l0.31,0.23l-0.2,0.33l-0.32-0.24l-0.32-0.26l-0.31-0.27l-0.3-0.29l-0.29-0.3l-0.29-0.31l-0.28-0.32l-0.28-0.33l-0.27-0.33
		l-0.27-0.34L159,26.48l-0.27-0.35l-0.27-0.35l-0.26-0.35l-0.26-0.35l-0.27-0.35l-0.27-0.34l-0.27-0.34l-0.27-0.33l-0.28-0.33
		l-0.28-0.32l-0.28-0.31l-0.29-0.3l-0.3-0.28l-0.3-0.27l-0.31-0.25l-0.32-0.24l-0.32-0.22l-0.33-0.2l-0.34-0.18l-0.35-0.16
		l-0.36-0.14L152.96,20.18z M162.41,29.49L162.41,29.49l0.02,0.01L162.41,29.49z M162.21,29.82l0.2-0.33l0,0l0.93,0.68l0.89,0.69
		l0.85,0.69l0.81,0.7l0.77,0.7l0.72,0.7l0.68,0.71l0.63,0.71l0.59,0.72l0.54,0.72l0.49,0.72l0.44,0.73l0.39,0.73l0.34,0.74
		l0.28,0.74l0.23,0.75l0.17,0.75l0.11,0.76l0.05,0.76l-0.01,0.77l-0.07,0.77l-0.14,0.77l-0.2,0.78l-0.27,0.78l-0.33,0.78l-0.4,0.78
		l-0.47,0.79l-0.54,0.79L169.27,51l-0.68,0.8l-0.75,0.8l-0.83,0.8l-0.24-0.3l0.82-0.79l0.74-0.79l0.67-0.78l0.6-0.78l0.53-0.77
		l0.46-0.77l0.39-0.76l0.32-0.76l0.26-0.75l0.19-0.75l0.13-0.74l0.07-0.74l0.01-0.73l-0.05-0.73l-0.11-0.73l-0.16-0.72l-0.22-0.72
		l-0.27-0.72l-0.33-0.72l-0.38-0.71L170,37.45l-0.48-0.71l-0.53-0.71l-0.58-0.7l-0.62-0.7l-0.67-0.7l-0.71-0.69l-0.76-0.69
		l-0.8-0.69l-0.84-0.68l-0.88-0.68L162.21,29.82L162.21,29.82z M166.74,53.36l-0.1-0.15l0.13-0.12L166.74,53.36z M166.77,53.1
		l0.24,0.3l0.03-0.26l0.08,0.11l0.08,0.11l0.08,0.11l0.08,0.11l0.08,0.11l0.08,0.11l0.08,0.11l0.08,0.11l0.08,0.11l0.08,0.11
		l0.08,0.11l0.08,0.11l0.08,0.11l0.08,0.11l0.08,0.11l0.08,0.11l0.08,0.11l0.08,0.11l0.08,0.11l0.08,0.11l0.08,0.11l0.08,0.11
		l0.08,0.11l0.08,0.11l0.08,0.11l0.08,0.11l0.08,0.11l0.08,0.11l0.08,0.11l0.08,0.11l0.08,0.11l0.08,0.11l-0.29,0.23l-0.08-0.11
		l-0.08-0.11l-0.08-0.11l-0.08-0.11l-0.08-0.11l-0.08-0.11l-0.08-0.11l-0.08-0.11l-0.08-0.11l-0.08-0.11l-0.08-0.11l-0.08-0.11
		l-0.08-0.11l-0.08-0.11l-0.08-0.11l-0.08-0.11l-0.08-0.11l-0.08-0.11l-0.08-0.11l-0.08-0.11l-0.08-0.11l-0.08-0.11l-0.08-0.11
		l-0.08-0.11l-0.08-0.11l-0.08-0.11l-0.08-0.11l-0.08-0.11l-0.08-0.11l-0.08-0.11l-0.08-0.11l-0.08-0.11L166.77,53.1z M169.47,56.73
		l0.09,0.13l-0.1,0.12L169.47,56.73z M169.18,56.96l0.29-0.23l-0.01,0.25l-0.05,0.06l-0.05,0.06l-0.05,0.06l-0.05,0.06l-0.05,0.06
		l-0.05,0.06l-0.05,0.06l-0.05,0.06L169,57.5l-0.05,0.06l-0.05,0.06l-0.05,0.06l-0.05,0.06l-0.05,0.06l-0.05,0.06l-0.05,0.06
		l-0.05,0.06l-0.05,0.06l-0.05,0.06l-0.05,0.06l-0.05,0.06l-0.05,0.06l-0.05,0.06l-0.05,0.06l-0.05,0.06l-0.05,0.06l-0.05,0.06
		l-0.05,0.06l-0.05,0.06l-0.05,0.06l-0.05,0.06l-0.05,0.06l-0.27-0.27l0.05-0.06l0.05-0.06l0.05-0.06l0.05-0.06l0.05-0.06l0.05-0.06
		l0.05-0.06l0.05-0.06l0.05-0.06l0.05-0.06l0.05-0.06l0.05-0.06l0.05-0.06l0.05-0.06l0.05-0.06l0.05-0.06l0.05-0.06l0.05-0.06
		l0.05-0.06l0.05-0.06l0.05-0.06l0.05-0.06l0.05-0.06l0.05-0.06l0.05-0.06l0.05-0.06l0.05-0.06l0.05-0.06l0.05-0.06l0.05-0.06
		l0.05-0.06l0.05-0.06L169.18,56.96z M167.84,58.84l-0.19,0.22l-0.11-0.27L167.84,58.84z M167.57,58.58l0.27,0.27l-0.3-0.06
		l-0.06-0.15l-0.06-0.15l-0.06-0.15l-0.06-0.15l-0.06-0.15l-0.06-0.15l-0.06-0.15l-0.06-0.15l-0.06-0.15l-0.06-0.15l-0.06-0.15
		l-0.06-0.15l-0.06-0.15l-0.06-0.15l-0.06-0.15l-0.06-0.15l-0.06-0.15l-0.06-0.15l-0.06-0.15l-0.06-0.15l-0.06-0.15l-0.06-0.15
		l-0.06-0.15l-0.06-0.15l-0.06-0.15l-0.06-0.15l-0.06-0.15l-0.06-0.15l-0.06-0.15l-0.06-0.15l-0.06-0.15l-0.06-0.15l0.33-0.16
		l0.06,0.15l0.06,0.15l0.06,0.15l0.06,0.15l0.06,0.15l0.06,0.15l0.06,0.15l0.06,0.15l0.06,0.15l0.06,0.15l0.06,0.15l0.06,0.15
		l0.06,0.15l0.06,0.15l0.06,0.15l0.06,0.15l0.06,0.15l0.06,0.15l0.06,0.15l0.06,0.15l0.06,0.15l0.06,0.15l0.06,0.15l0.06,0.15
		l0.06,0.15l0.06,0.15l0.06,0.15l0.06,0.15l0.06,0.15l0.06,0.15l0.06,0.15l0.06,0.15L167.57,58.58z M165.8,53.87l0.14-0.03
		l0.06,0.14L165.8,53.87z M166,53.99l-0.33,0.16l0.2,0.11l-0.92,0.17l-0.91,0.13l-0.9,0.08l-0.89,0.03l-0.87-0.02l-0.85-0.06
		l-0.83-0.11l-0.81-0.16l-0.79-0.2l-0.76-0.25l-0.74-0.3l-0.71-0.34l-0.68-0.39l-0.65-0.43l-0.61-0.48l-0.58-0.52l-0.54-0.57
		l-0.5-0.61l-0.46-0.66l-0.41-0.7l-0.37-0.74l-0.32-0.78l-0.27-0.83l-0.22-0.87l-0.17-0.91l-0.12-0.95l-0.06-0.99l0-1.03l0.06-1.07
		l0.12-1.11l0.18-1.15l0.24-1.18l0.35,0.09l-0.24,1.17l-0.18,1.13l-0.11,1.09l-0.06,1.04l0,1l0.06,0.96l0.11,0.92l0.16,0.88
		l0.22,0.84l0.26,0.8l0.31,0.76l0.36,0.71l0.4,0.67l0.44,0.63l0.48,0.59l0.52,0.55l0.56,0.5l0.59,0.46l0.63,0.42l0.66,0.38
		l0.69,0.33l0.72,0.29l0.74,0.24l0.77,0.2l0.79,0.15l0.82,0.11l0.83,0.06l0.85,0.02l0.87-0.03l0.88-0.08l0.9-0.12l0.91-0.17
		L166,53.99z M150.51,37.28l0-0.01l0.01-0.01L150.51,37.28z M150.86,37.37l-0.35-0.09l0.01-0.02l0.27-0.71l0.28-0.69l0.28-0.68
		l0.29-0.66l0.29-0.65l0.3-0.63l0.29-0.62L152.8,32l0.28-0.59l0.28-0.58l0.27-0.57l0.25-0.56l0.24-0.55l0.22-0.53l0.2-0.52
		l0.18-0.51l0.15-0.5l0.13-0.49l0.1-0.48l0.07-0.47l0.03-0.46l0-0.45l-0.04-0.44l-0.08-0.44l-0.12-0.43L154.79,23l-0.21-0.42
		l-0.26-0.42l-0.31-0.42l-0.36-0.42l-0.42-0.41l-0.48-0.41l0.22-0.31l0.5,0.43l0.44,0.43l0.38,0.44l0.33,0.44l0.28,0.45l0.22,0.46
		l0.18,0.46l0.13,0.47l0.08,0.47l0.04,0.48l0,0.49l-0.04,0.49l-0.07,0.5l-0.1,0.5l-0.13,0.51l-0.16,0.52l-0.18,0.52l-0.2,0.53
		l-0.22,0.54l-0.24,0.55l-0.25,0.56L153.69,31l-0.28,0.58l-0.28,0.59l-0.29,0.61l-0.29,0.62l-0.29,0.63l-0.29,0.64l-0.29,0.66
		l-0.28,0.67l-0.27,0.69l-0.26,0.7L150.86,37.37z"/>
	<polygon class="st0" points="167.12,53.17 166.68,53.6 166.2,53.01 165.73,52.41 165.28,51.8 164.84,51.17 164.42,50.53 
		164.01,49.88 163.62,49.21 163.26,48.53 162.91,47.84 162.58,47.14 162.27,46.43 161.99,45.71 161.73,44.98 161.49,44.24 
		161.28,43.49 161.1,42.73 160.94,41.97 160.81,41.19 160.7,40.41 160.63,39.63 160.59,38.83 160.58,38.03 160.6,37.23 
		160.65,36.42 160.74,35.6 160.86,34.78 161.02,33.96 161.21,33.14 161.44,32.31 161.71,31.48 162.02,30.65 162.37,29.82 
		162.91,30.09 162.58,30.9 162.28,31.71 162.02,32.51 161.79,33.31 161.6,34.11 161.45,34.9 161.33,35.69 161.25,36.48 161.2,37.26 
		161.18,38.04 161.19,38.81 161.23,39.57 161.3,40.34 161.4,41.09 161.53,41.84 161.68,42.58 161.86,43.31 162.07,44.04 
		162.29,44.76 162.55,45.47 162.82,46.17 163.12,46.86 163.44,47.54 163.78,48.21 164.14,48.88 164.52,49.52 164.91,50.16 
		165.32,50.79 165.75,51.4 166.19,52 166.65,52.59 	"/>
	<polygon class="st0" points="167.01,53.19 166.64,53.7 166.11,53.23 165.59,52.73 165.07,52.18 164.54,51.6 164.03,50.99 
		163.51,50.34 163,49.65 162.5,48.93 162.01,48.18 161.53,47.39 161.06,46.57 160.6,45.72 160.16,44.84 159.73,43.93 159.32,42.99 
		158.92,42.02 158.55,41.02 158.2,39.99 157.87,38.94 157.57,37.86 157.29,36.76 157.04,35.63 156.82,34.48 156.63,33.31 
		156.47,32.11 156.34,30.89 156.25,29.65 156.19,28.39 156.18,27.11 156.2,25.81 156.26,24.49 156.36,23.16 156.96,23.22 
		156.86,24.54 156.8,25.83 156.78,27.11 156.8,28.37 156.85,29.61 156.94,30.83 157.07,32.03 157.22,33.2 157.41,34.36 
		157.63,35.49 157.88,36.6 158.15,37.69 158.45,38.75 158.77,39.78 159.11,40.79 159.48,41.77 159.86,42.72 160.27,43.65 
		160.69,44.54 161.12,45.41 161.57,46.24 162.03,47.04 162.51,47.81 162.99,48.55 163.48,49.26 163.98,49.93 164.48,50.56 
		164.98,51.16 165.49,51.72 166,52.25 166.51,52.74 	"/>
	<polygon class="st0" points="167.12,53.29 166.7,53.76 166.23,53.27 165.77,52.78 165.3,52.3 164.84,51.81 164.37,51.32 
		163.91,50.84 163.45,50.36 162.98,49.88 162.51,49.41 162.04,48.94 161.57,48.48 161.1,48.02 160.62,47.57 160.13,47.12 
		159.64,46.69 159.15,46.26 158.65,45.83 158.14,45.42 157.63,45.02 157.1,44.62 156.57,44.24 156.03,43.87 155.48,43.51 
		154.92,43.16 154.35,42.82 153.77,42.5 153.17,42.19 152.57,41.89 151.95,41.61 151.31,41.34 150.66,41.09 150,40.86 150.18,40.24 
		150.86,40.48 151.52,40.73 152.17,41.01 152.81,41.3 153.43,41.6 154.04,41.92 154.63,42.25 155.21,42.59 155.79,42.95 
		156.35,43.32 156.9,43.7 157.44,44.09 157.98,44.49 158.5,44.9 159.01,45.32 159.52,45.75 160.03,46.18 160.52,46.63 161.01,47.08 
		161.49,47.54 161.97,48 162.45,48.46 162.92,48.94 163.39,49.41 163.86,49.89 164.33,50.37 164.79,50.86 165.25,51.34 
		165.72,51.83 166.18,52.32 166.65,52.81 	"/>
	<polygon class="st0" points="167.18,53.4 166.79,53.9 166.42,53.56 166.05,53.21 165.67,52.87 165.29,52.52 164.91,52.16 
		164.52,51.81 164.12,51.46 163.72,51.11 163.31,50.76 162.9,50.41 162.47,50.07 162.04,49.74 161.59,49.41 161.14,49.08 
		160.67,48.77 160.19,48.46 159.7,48.16 159.2,47.87 158.68,47.6 158.15,47.33 157.6,47.08 157.04,46.84 156.46,46.62 155.86,46.42 
		155.24,46.23 154.61,46.06 153.95,45.91 153.27,45.78 152.58,45.66 151.86,45.58 151.12,45.51 150.35,45.47 150.37,44.82 
		151.16,44.86 151.92,44.93 152.65,45.02 153.37,45.14 154.07,45.27 154.74,45.43 155.39,45.6 156.03,45.8 156.65,46.01 
		157.24,46.24 157.82,46.48 158.39,46.74 158.94,47.01 159.47,47.29 159.99,47.59 160.49,47.9 160.98,48.21 161.46,48.54 
		161.93,48.87 162.38,49.21 162.82,49.55 163.26,49.9 163.68,50.25 164.1,50.6 164.5,50.96 164.9,51.31 165.3,51.67 165.68,52.02 
		166.06,52.37 166.44,52.72 166.81,53.06 	"/>
	<polygon class="st0" points="167.47,53.65 167.15,54.19 166.7,53.89 166.25,53.59 165.81,53.3 165.36,53.02 164.91,52.75 
		164.47,52.49 164.02,52.24 163.58,52 163.13,51.77 162.69,51.55 162.24,51.34 161.8,51.15 161.36,50.96 160.91,50.79 160.46,50.63 
		160.02,50.49 159.57,50.36 159.12,50.24 158.67,50.13 158.22,50.05 157.77,49.97 157.32,49.92 156.87,49.87 156.41,49.85 
		155.96,49.84 155.5,49.85 155.04,49.87 154.58,49.91 154.12,49.98 153.65,50.06 153.18,50.15 152.71,50.27 152.57,49.64 
		153.06,49.52 153.55,49.42 154.03,49.33 154.52,49.27 155,49.23 155.48,49.2 155.96,49.19 156.44,49.2 156.91,49.23 157.38,49.27 
		157.85,49.33 158.32,49.41 158.79,49.5 159.26,49.61 159.72,49.73 160.18,49.86 160.64,50.01 161.1,50.18 161.56,50.35 
		162.02,50.54 162.48,50.74 162.93,50.96 163.39,51.18 163.84,51.42 164.3,51.66 164.75,51.92 165.2,52.19 165.66,52.46 
		166.11,52.74 166.56,53.04 167.02,53.34 	"/>
	<polygon class="st0" points="166.88,53.01 166.33,53.27 166.05,52.6 165.78,51.94 165.52,51.3 165.28,50.67 165.05,50.06 
		164.83,49.46 164.63,48.88 164.45,48.3 164.28,47.72 164.13,47.16 164,46.6 163.89,46.05 163.8,45.49 163.73,44.94 163.69,44.39 
		163.67,43.84 163.67,43.28 163.69,42.72 163.75,42.15 163.82,41.58 163.93,41 164.06,40.42 164.22,39.82 164.41,39.21 
		164.63,38.59 164.87,37.95 165.15,37.3 165.46,36.64 165.81,35.95 166.18,35.24 166.59,34.51 167.03,33.76 167.53,34.12 
		167.1,34.86 166.7,35.57 166.33,36.26 166,36.93 165.69,37.58 165.43,38.21 165.19,38.83 164.97,39.43 164.79,40.01 164.64,40.58 
		164.51,41.14 164.41,41.69 164.34,42.23 164.29,42.77 164.27,43.3 164.27,43.82 164.29,44.35 164.33,44.87 164.4,45.39 
		164.48,45.92 164.59,46.46 164.71,46.99 164.85,47.54 165.02,48.09 165.19,48.66 165.39,49.23 165.6,49.82 165.83,50.43 
		166.07,51.04 166.33,51.68 166.6,52.33 	"/>
	<path class="st5" d="M170.07,57.1c-0.01-1.11,1.25-3.44,2.98-3.75c5.59,5.11,16.07,6.38,23.4-4.01c0.43-0.61,0.67-1.07,0.89-1.79
		c2.76-8.93-0.92-15.58,0-24.57c0.02-0.22,0.03-0.44,0.07-0.65c0.16-0.82,0.29-1.19,0.75-1.89c0.13-0.19,0.25-0.37,0.37-0.53
		c1.15-1.59,2.01-2.04,4.17-3.02c-4.11-0.3-8.82,5.76-13.39,6.63c-11.83,2.57-26.21,9.71-17.5,28.87c-1.12,1.71-2.66,2.87-3.99,4.31
		C167.81,56.7,170.01,57.1,170.07,57.1"/>
	<path class="st0" d="M170.25,57.1l0,0.21l-0.2-0.01L170.25,57.1z M169.89,57.1l0.36,0l-0.19,0.2l-0.03,0l-0.03,0l-0.03-0.01
		l-0.05-0.01l-0.06-0.01l-0.06-0.01l-0.07-0.01l-0.08-0.01l-0.08-0.01l-0.09-0.02l-0.09-0.02l-0.1-0.02l-0.1-0.02l-0.1-0.02
		l-0.1-0.02l-0.1-0.02l-0.1-0.02l-0.1-0.02l-0.1-0.02l-0.1-0.02l-0.1-0.02l-0.09-0.02l-0.09-0.02l-0.08-0.01l-0.07-0.01l-0.07-0.01
		l-0.06-0.01l-0.05-0.01l-0.04-0.01l-0.03-0.01l-0.02,0l-0.01,0l0.06-0.39l0.01,0l0.02,0l0.03,0.01l0.04,0.01l0.05,0.01l0.06,0.01
		l0.07,0.01l0.07,0.01l0.08,0.01l0.09,0.02l0.09,0.02l0.1,0.02l0.1,0.02l0.1,0.02l0.1,0.02l0.1,0.02l0.1,0.02l0.1,0.02l0.1,0.02
		l0.1,0.02l0.1,0.02l0.09,0.02l0.09,0.02l0.08,0.01l0.08,0.01l0.07,0.01l0.06,0.01l0.05,0.01l0.04,0.01l0.03,0.01l0.02,0l0,0
		L169.89,57.1z M167.84,56.51l-0.06,0.39l-0.1-0.33l0.13-0.14l0.13-0.13l0.13-0.13l0.13-0.13l0.13-0.13l0.13-0.13l0.13-0.13
		l0.13-0.13l0.13-0.13l0.13-0.13l0.13-0.13l0.13-0.13l0.13-0.13l0.13-0.13l0.13-0.13l0.13-0.13l0.13-0.13l0.13-0.13l0.13-0.13
		l0.13-0.13l0.12-0.13l0.12-0.13l0.12-0.14l0.12-0.14l0.12-0.14l0.12-0.14l0.12-0.14l0.11-0.14l0.11-0.15l0.11-0.15l0.11-0.15
		l0.1-0.15l0.3,0.23l-0.11,0.16l-0.11,0.16l-0.11,0.16l-0.11,0.15l-0.12,0.15l-0.12,0.15l-0.12,0.14l-0.12,0.14l-0.12,0.14
		l-0.13,0.14l-0.13,0.14l-0.13,0.13l-0.13,0.13l-0.13,0.13l-0.13,0.13l-0.13,0.13l-0.13,0.13l-0.13,0.13l-0.13,0.13l-0.13,0.13
		l-0.13,0.13l-0.13,0.13l-0.13,0.13l-0.13,0.13l-0.13,0.13l-0.13,0.13l-0.13,0.13l-0.13,0.13l-0.13,0.13l-0.13,0.13l-0.13,0.13
		l-0.12,0.13L167.84,56.51z M171.96,52.31l0.05,0.1l-0.06,0.1L171.96,52.31z M171.95,52.5l-0.3-0.23l-0.01,0.2l-0.75-1.77l-0.62-1.7
		l-0.5-1.64l-0.38-1.57l-0.26-1.51l-0.14-1.44l-0.04-1.38l0.07-1.32l0.17-1.26l0.26-1.21l0.35-1.15l0.44-1.09l0.52-1.04l0.59-0.98
		l0.66-0.93l0.73-0.88l0.79-0.83l0.84-0.78l0.89-0.73l0.94-0.69l0.98-0.64l1.01-0.6l1.05-0.56l1.07-0.52l1.09-0.48l1.11-0.45
		l1.13-0.41l1.13-0.38l1.14-0.34l1.14-0.31l1.13-0.28l1.12-0.26l0.07,0.38l-1.11,0.25l-1.12,0.28l-1.13,0.31l-1.13,0.34l-1.12,0.37
		l-1.11,0.41l-1.1,0.44l-1.08,0.48l-1.06,0.52l-1.03,0.55l-1,0.59l-0.96,0.63l-0.92,0.68l-0.87,0.72l-0.82,0.77l-0.77,0.81
		l-0.71,0.86l-0.64,0.91l-0.57,0.96l-0.5,1.01l-0.42,1.06l-0.34,1.12l-0.25,1.17l-0.16,1.23l-0.07,1.29l0.04,1.35l0.14,1.41
		l0.25,1.48l0.37,1.55l0.49,1.61l0.61,1.68l0.75,1.75L171.95,52.5z M189.27,23.33L189.27,23.33L189.27,23.33L189.27,23.33z
		 M189.34,23.71l-0.07-0.38l0,0l0.42-0.09l0.42-0.12l0.42-0.15l0.42-0.17l0.42-0.19l0.43-0.21l0.43-0.23l0.43-0.25l0.43-0.26
		l0.43-0.27l0.43-0.28l0.43-0.29l0.43-0.3l0.43-0.3l0.43-0.3l0.43-0.3l0.42-0.3l0.42-0.29l0.42-0.28l0.42-0.27l0.42-0.26l0.42-0.25
		l0.42-0.23l0.42-0.21l0.41-0.2l0.41-0.17l0.41-0.15l0.41-0.12l0.41-0.09l0.41-0.06l0.4-0.03l0.4,0.01l-0.03,0.39l-0.37-0.01
		l-0.38,0.03l-0.38,0.06l-0.38,0.09l-0.39,0.12l-0.39,0.14l-0.4,0.17l-0.4,0.19l-0.4,0.21l-0.41,0.23l-0.41,0.24l-0.41,0.26
		l-0.42,0.27l-0.42,0.28l-0.42,0.29l-0.42,0.29l-0.42,0.3l-0.43,0.3l-0.43,0.3l-0.43,0.3l-0.43,0.29l-0.43,0.29l-0.43,0.28
		l-0.43,0.27l-0.43,0.25l-0.44,0.24l-0.44,0.22l-0.44,0.2l-0.44,0.18l-0.44,0.15l-0.44,0.13L189.34,23.71L189.34,23.71z
		 M202.68,17.08l0.03-0.39l0.06,0.38l-0.2,0.09l-0.19,0.09l-0.18,0.09l-0.18,0.08l-0.17,0.08l-0.16,0.08l-0.16,0.08l-0.15,0.08
		l-0.15,0.08l-0.14,0.07l-0.14,0.07l-0.13,0.07l-0.13,0.07l-0.12,0.08l-0.12,0.08l-0.12,0.08l-0.11,0.08l-0.11,0.08L200,18.57
		l-0.11,0.09l-0.1,0.09l-0.1,0.09l-0.1,0.1l-0.1,0.1l-0.1,0.1l-0.1,0.11l-0.1,0.11l-0.1,0.12l-0.1,0.12l-0.1,0.13l-0.1,0.14
		l-0.11,0.14l-0.29-0.24l0.11-0.15l0.11-0.14l0.11-0.14l0.11-0.13l0.11-0.12l0.11-0.12l0.11-0.11l0.11-0.11l0.11-0.11l0.11-0.1
		l0.11-0.1l0.11-0.1l0.11-0.09l0.11-0.09l0.12-0.09l0.12-0.08l0.12-0.08l0.13-0.08l0.13-0.08l0.13-0.08l0.14-0.08l0.14-0.08
		l0.14-0.08l0.15-0.08l0.15-0.08l0.16-0.08l0.17-0.08l0.17-0.08l0.18-0.08l0.18-0.08l0.19-0.09l0.2-0.09L202.68,17.08z
		 M198.38,19.78L198.38,19.78l0.05-0.06L198.38,19.78z M198.38,19.78l0.29,0.24l0,0l-0.01,0.02l-0.01,0.02l-0.01,0.01l-0.01,0.02
		l-0.01,0.02l-0.01,0.01l-0.01,0.02l-0.01,0.02l-0.01,0.02l-0.01,0.02l-0.01,0.02l-0.01,0.02l-0.01,0.02l-0.01,0.02l-0.01,0.02
		l-0.01,0.02l-0.01,0.02l-0.01,0.02l-0.01,0.01l-0.01,0.02l-0.01,0.02l-0.01,0.02l-0.01,0.02l-0.01,0.02l-0.01,0.02l-0.01,0.02
		l-0.01,0.02l-0.01,0.02l-0.01,0.02l-0.01,0.02l-0.01,0.02l-0.01,0.02l-0.29-0.23l0.01-0.02l0.01-0.02l0.01-0.02l0.01-0.02
		l0.01-0.02l0.01-0.02l0.01-0.02l0.01-0.02l0.01-0.02l0.01-0.02l0.01-0.02l0.01-0.02l0.01-0.02l0.01-0.02l0.01-0.02l0.01-0.02
		l0.01-0.02l0.01-0.02l0.01-0.02l0.01-0.02l0.01-0.02l0.01-0.02l0.01-0.02l0.01-0.02l0.01-0.02l0.01-0.02l0.01-0.02l0.01-0.02
		l0.01-0.02l0.01-0.02l0.01-0.02L198.38,19.78L198.38,19.78z M198.01,20.32l0.29,0.23l-0.04,0.06l-0.04,0.06l-0.04,0.06l-0.04,0.06
		l-0.03,0.06l-0.03,0.06l-0.03,0.05l-0.03,0.05L198,21.06l-0.03,0.05l-0.03,0.05l-0.02,0.05l-0.02,0.05l-0.02,0.05l-0.02,0.05
		l-0.02,0.05l-0.02,0.05l-0.02,0.05l-0.02,0.05l-0.02,0.05l-0.02,0.05l-0.02,0.05l-0.02,0.06l-0.02,0.06l-0.01,0.06l-0.01,0.06
		l-0.01,0.06l-0.01,0.07l-0.01,0.07l-0.01,0.07l-0.01,0.07l-0.02,0.08l-0.35-0.08l0.01-0.08l0.02-0.07l0.02-0.07l0.01-0.07
		l0.02-0.07l0.02-0.07l0.02-0.06l0.02-0.06l0.02-0.06l0.02-0.06l0.02-0.06l0.02-0.06l0.02-0.06l0.02-0.06l0.02-0.06l0.02-0.06
		l0.02-0.06l0.02-0.06l0.03-0.06l0.03-0.06l0.03-0.06l0.03-0.06l0.03-0.06l0.03-0.06l0.03-0.06l0.03-0.06l0.03-0.06l0.04-0.06
		l0.04-0.06l0.04-0.06l0.04-0.06L198.01,20.32z M197.59,22.36L197.59,22.36z M197.23,22.28l0.35,0.08l0,0.02l0,0.02l0,0.02l0,0.02
		l0,0.02l0,0.02l0,0.02l0,0.02l0,0.02l0,0.02l0,0.02l0,0.02l0,0.02l0,0.02l0,0.02l0,0.02l0,0.02l0,0.02l0,0.02l0,0.02l0,0.02l0,0.02
		l0,0.02l0,0.02l0,0.02l0,0.02l0,0.02l0,0.02l0,0.02l0,0.02l0,0.02l0,0.02l-0.36-0.04l0-0.02l0-0.02l0-0.02l0-0.02l0-0.02l0-0.02
		l0-0.02l0-0.02l0-0.02l0-0.02l0-0.02l0-0.02l0-0.02l0-0.02l0-0.02l0-0.02l0-0.02l0-0.02l0-0.02l0-0.02l0-0.02l0-0.02l0-0.02l0-0.02
		l0-0.02l0-0.02l0-0.02l0-0.02l0-0.02l0-0.02l0-0.02L197.23,22.28z M197.15,22.95l0.36,0.04l-0.07,0.83l-0.05,0.82l-0.02,0.8l0,0.79
		l0.01,0.78l0.03,0.78l0.05,0.77l0.06,0.76l0.07,0.75l0.08,0.75l0.09,0.74l0.09,0.74l0.09,0.74l0.09,0.73l0.09,0.73l0.09,0.73
		l0.08,0.73l0.08,0.73l0.07,0.74l0.05,0.74l0.04,0.74l0.03,0.75l0.01,0.75l-0.01,0.76l-0.03,0.77l-0.06,0.78l-0.08,0.78l-0.11,0.79
		l-0.14,0.8l-0.17,0.81l-0.21,0.82l-0.24,0.84l-0.34-0.12l0.24-0.82l0.2-0.81l0.17-0.8l0.14-0.79l0.11-0.78l0.08-0.77l0.06-0.76
		l0.03-0.75l0.01-0.75l-0.01-0.74l-0.03-0.74l-0.04-0.74l-0.05-0.73L198,36.76l-0.08-0.73l-0.08-0.73l-0.09-0.73l-0.09-0.73
		l-0.09-0.73l-0.09-0.74l-0.09-0.74l-0.09-0.75l-0.08-0.75l-0.07-0.76l-0.06-0.77l-0.05-0.78l-0.03-0.78L197,26.25l0-0.8l0.03-0.82
		l0.05-0.83L197.15,22.95z M197.16,47.48L197.16,47.48z M197.16,47.48l0.34,0.12l-0.02,0.07l-0.02,0.07l-0.02,0.07l-0.02,0.07
		l-0.02,0.06l-0.02,0.06l-0.02,0.06l-0.02,0.06l-0.02,0.06l-0.02,0.06l-0.02,0.06l-0.03,0.06l-0.03,0.06l-0.03,0.06l-0.03,0.06
		l-0.03,0.06l-0.03,0.05l-0.03,0.05l-0.03,0.05l-0.03,0.05l-0.03,0.05l-0.03,0.05l-0.03,0.05L196.88,49l-0.03,0.05l-0.03,0.05
		l-0.04,0.05l-0.04,0.06l-0.04,0.06l-0.04,0.06l-0.04,0.06l-0.04,0.06l-0.29-0.24l0.04-0.06l0.04-0.06l0.04-0.05l0.04-0.05
		l0.03-0.05l0.03-0.05l0.03-0.05l0.03-0.05l0.03-0.05l0.03-0.05l0.03-0.05l0.03-0.05l0.03-0.05l0.03-0.05l0.03-0.05l0.03-0.05
		l0.02-0.05l0.03-0.05l0.02-0.05l0.02-0.05l0.02-0.05l0.02-0.05l0.02-0.05l0.02-0.06l0.02-0.06l0.02-0.06l0.02-0.06l0.02-0.06
		l0.02-0.06l0.02-0.06l0.02-0.06L197.16,47.48z M196.3,49.21l0.29,0.24l-0.7,0.95l-0.72,0.88l-0.74,0.81l-0.75,0.75l-0.76,0.69
		l-0.77,0.63l-0.78,0.57l-0.79,0.51l-0.8,0.45l-0.8,0.39l-0.81,0.34l-0.81,0.29l-0.81,0.23l-0.81,0.18l-0.81,0.14l-0.81,0.09
		l-0.8,0.04l-0.79,0l-0.79-0.05l-0.78-0.09l-0.76-0.13l-0.75-0.17l-0.74-0.2l-0.72-0.24l-0.71-0.27l-0.69-0.31l-0.67-0.34
		l-0.65-0.37l-0.62-0.4l-0.6-0.42l-0.57-0.45l-0.55-0.47l0.23-0.3l0.53,0.46l0.56,0.44l0.58,0.41l0.61,0.39l0.63,0.36l0.65,0.33
		l0.67,0.3l0.69,0.27l0.71,0.23l0.72,0.2l0.73,0.16l0.75,0.12l0.76,0.08l0.77,0.04l0.78,0l0.78-0.04l0.79-0.09l0.79-0.13l0.79-0.18
		l0.79-0.23l0.79-0.28l0.79-0.33l0.79-0.38l0.78-0.44l0.78-0.5l0.77-0.56l0.76-0.61l0.75-0.67l0.74-0.74l0.72-0.8l0.71-0.87
		L196.3,49.21z M173.01,53.15l0.08-0.02l0.06,0.06L173.01,53.15z M173.16,53.2l-0.23,0.3l0.15,0.04l-0.15,0.03l-0.15,0.04
		l-0.14,0.05l-0.14,0.06l-0.14,0.07l-0.14,0.08l-0.13,0.09l-0.13,0.1l-0.13,0.1l-0.12,0.11l-0.12,0.12l-0.12,0.12l-0.11,0.13
		l-0.11,0.13l-0.1,0.13l-0.1,0.14l-0.09,0.14l-0.09,0.14l-0.08,0.14l-0.08,0.14l-0.07,0.14l-0.07,0.14l-0.06,0.14l-0.05,0.14
		l-0.05,0.13l-0.04,0.13l-0.04,0.13l-0.03,0.12l-0.02,0.12l-0.02,0.11l-0.01,0.1l0,0.09l-0.36,0l0-0.12l0.01-0.13l0.02-0.13
		l0.03-0.14l0.03-0.14l0.04-0.14l0.05-0.15l0.05-0.15l0.06-0.15l0.07-0.15l0.07-0.15l0.08-0.15l0.08-0.15l0.09-0.15l0.1-0.15
		l0.1-0.15l0.11-0.15l0.11-0.14l0.12-0.14l0.12-0.14l0.13-0.13l0.13-0.13l0.13-0.12l0.14-0.11l0.14-0.11l0.15-0.1l0.15-0.09
		l0.16-0.08l0.16-0.07l0.17-0.06l0.17-0.05l0.17-0.04L173.16,53.2z"/>
	<path class="st0" d="M196.46,19.19l0.55,0.28l-0.47,1.05l-0.48,1.07l-0.49,1.08l-0.51,1.1l-0.52,1.11L194,26.01l-0.55,1.13
		l-0.57,1.14l-0.59,1.14l-0.61,1.14l-0.63,1.15l-0.65,1.15l-0.67,1.14l-0.69,1.14l-0.71,1.14l-0.74,1.13l-0.76,1.12l-0.79,1.11
		l-0.81,1.1l-0.84,1.08l-0.87,1.07l-0.9,1.05l-0.93,1.03l-0.96,1.01l-0.99,0.99l-1.02,0.97l-1.05,0.94l-1.09,0.91l-1.12,0.89
		l-1.16,0.86l-1.19,0.82l-1.23,0.79l-0.3-0.57l1.21-0.78l1.18-0.81l1.14-0.84l1.1-0.87l1.07-0.9l1.04-0.93l1.01-0.95l0.97-0.98
		l0.94-1l0.92-1.02l0.89-1.04l0.86-1.06l0.83-1.07l0.81-1.09l0.78-1.1l0.75-1.11l0.73-1.12l0.71-1.13l0.68-1.13l0.66-1.14l0.64-1.14
		l0.62-1.14l0.6-1.14l0.58-1.13l0.57-1.13l0.55-1.12l0.53-1.12l0.52-1.11l0.5-1.09l0.49-1.08l0.48-1.07L196.46,19.19z M171.92,53.15
		L171.92,53.15z M171.62,52.58l0.3,0.57l-0.01,0.01l-0.02,0.01l-0.02,0.01l-0.01,0.01l-0.01,0.01l-0.02,0.01l-0.02,0.01l-0.02,0.01
		l-0.01,0.01l-0.02,0.01l-0.02,0.01l-0.02,0.01l-0.01,0.01l-0.02,0.01l-0.02,0.01l-0.02,0.01l-0.01,0.01l-0.02,0.01l-0.02,0.01
		l-0.01,0.01l-0.02,0.01l-0.02,0.01l-0.02,0.01l-0.02,0.01l-0.02,0.01l-0.02,0.01l-0.02,0.01l-0.02,0.01l-0.02,0.01l-0.01,0.01
		l-0.02,0.01l-0.02,0.01l-0.29-0.57l0.01-0.01l0.02-0.01l0.02-0.01l0.02-0.01l0.02-0.01l0.02-0.01l0.02-0.01l0.02-0.01l0.02-0.01
		l0.02-0.01l0.01-0.01l0.01-0.01l0.02-0.01l0.02-0.01l0.01-0.01l0.02-0.01l0.02-0.01l0.01-0.01l0.02-0.01l0.02-0.01l0.02-0.01
		l0.01-0.01l0.01-0.01l0.02-0.01l0.02-0.01l0.01-0.01l0.01-0.01l0.02-0.01l0.02-0.01l0.01-0.01l0.01-0.01L171.62,52.58z"/>
	<polygon class="st0" points="171.97,53.14 171.68,52.57 172.46,52.11 173.24,51.66 174.03,51.21 174.82,50.77 175.61,50.34 
		176.4,49.92 177.2,49.5 178,49.1 178.81,48.7 179.62,48.32 180.43,47.94 181.24,47.58 182.06,47.23 182.88,46.89 183.71,46.56 
		184.53,46.25 185.36,45.95 186.2,45.66 187.03,45.39 187.87,45.14 188.71,44.9 189.55,44.67 190.4,44.47 191.25,44.28 192.1,44.11 
		192.95,43.96 193.81,43.82 194.67,43.71 195.53,43.61 196.4,43.54 197.26,43.48 198.13,43.45 198.15,44.11 197.29,44.14 
		196.44,44.19 195.59,44.26 194.74,44.36 193.89,44.47 193.05,44.6 192.2,44.75 191.36,44.92 190.53,45.11 189.69,45.31 
		188.86,45.53 188.03,45.77 187.2,46.02 186.37,46.29 185.55,46.57 184.73,46.87 183.91,47.18 183.1,47.5 182.28,47.84 
		181.47,48.19 180.67,48.54 179.86,48.92 179.06,49.3 178.26,49.69 177.46,50.09 176.67,50.5 175.88,50.93 175.09,51.35 
		174.31,51.79 173.53,52.24 172.75,52.69 	"/>
	<polygon class="st0" points="171.91,53.1 171.63,52.52 172.21,52.2 172.82,51.9 173.45,51.61 174.11,51.32 174.79,51.06 
		175.5,50.8 176.22,50.56 176.96,50.33 177.72,50.11 178.5,49.91 179.28,49.72 180.08,49.55 180.89,49.39 181.71,49.25 
		182.53,49.12 183.36,49.01 184.19,48.91 185.03,48.83 185.87,48.77 186.7,48.72 187.53,48.7 188.36,48.68 189.18,48.69 190,48.72 
		190.81,48.77 191.6,48.83 192.38,48.91 193.15,49.02 193.91,49.14 194.64,49.29 195.36,49.46 196.06,49.64 195.91,50.28 
		195.23,50.09 194.53,49.93 193.81,49.79 193.07,49.67 192.31,49.57 191.55,49.48 190.77,49.42 189.97,49.38 189.17,49.35 
		188.36,49.34 187.55,49.35 186.73,49.38 185.9,49.42 185.08,49.48 184.25,49.56 183.43,49.66 182.61,49.77 181.8,49.89 
		180.99,50.04 180.19,50.19 179.41,50.36 178.63,50.55 177.87,50.75 177.12,50.96 176.4,51.18 175.68,51.42 174.99,51.67 
		174.33,51.94 173.68,52.21 173.06,52.5 172.47,52.79 	"/>
	<polygon class="st0" points="171.47,53.4 171.24,52.79 171.69,52.61 172.16,52.44 172.67,52.28 173.19,52.13 173.75,52 
		174.32,51.88 174.91,51.77 175.53,51.68 176.16,51.59 176.8,51.53 177.46,51.47 178.13,51.43 178.81,51.41 179.51,51.4 180.2,51.4 
		180.91,51.43 181.61,51.46 182.32,51.52 183.03,51.59 183.73,51.68 184.44,51.78 185.13,51.91 185.82,52.05 186.51,52.21 
		187.18,52.39 187.84,52.59 188.48,52.81 189.11,53.05 189.72,53.31 190.32,53.59 190.89,53.89 191.44,54.22 191.14,54.78 
		190.61,54.47 190.07,54.18 189.49,53.91 188.9,53.66 188.29,53.43 187.66,53.22 187.02,53.02 186.37,52.85 185.7,52.69 
		185.03,52.55 184.34,52.43 183.66,52.33 182.96,52.24 182.27,52.17 181.57,52.12 180.88,52.08 180.19,52.06 179.51,52.05 
		178.83,52.06 178.16,52.09 177.5,52.13 176.85,52.18 176.22,52.25 175.6,52.32 175.01,52.42 174.43,52.52 173.87,52.64 
		173.34,52.77 172.83,52.91 172.34,53.06 171.89,53.23 	"/>
	<polygon class="st0" points="178,27.58 178.58,27.38 178.8,28.15 178.99,28.95 179.15,29.77 179.29,30.59 179.4,31.44 
		179.48,32.29 179.54,33.15 179.57,34.03 179.57,34.9 179.55,35.78 179.51,36.66 179.44,37.55 179.34,38.43 179.22,39.31 
		179.08,40.18 178.91,41.04 178.72,41.9 178.51,42.74 178.27,43.57 178.01,44.39 177.73,45.19 177.42,45.97 177.09,46.73 
		176.74,47.47 176.37,48.18 175.98,48.87 175.56,49.53 175.13,50.16 174.67,50.76 174.19,51.33 173.69,51.86 173.17,52.35 
		172.78,51.84 173.28,51.38 173.75,50.87 174.21,50.33 174.65,49.76 175.07,49.15 175.47,48.52 175.85,47.85 176.21,47.16 
		176.55,46.45 176.87,45.71 177.16,44.95 177.44,44.17 177.69,43.37 177.92,42.56 178.13,41.74 178.32,40.9 178.48,40.05 
		178.62,39.2 178.74,38.34 178.83,37.48 178.9,36.62 178.95,35.76 178.97,34.89 178.96,34.04 178.93,33.19 178.88,32.35 
		178.8,31.52 178.69,30.7 178.56,29.89 178.4,29.1 178.22,28.33 	"/>
	<polygon class="st0" points="173.78,51.81 173.4,51.3 173.89,50.87 174.39,50.41 174.89,49.92 175.39,49.41 175.9,48.87 
		176.4,48.3 176.9,47.7 177.4,47.08 177.9,46.44 178.4,45.76 178.89,45.06 179.37,44.33 179.85,43.57 180.31,42.79 180.77,41.99 
		181.22,41.15 181.65,40.29 182.08,39.4 182.49,38.49 182.88,37.55 183.26,36.59 183.62,35.59 183.97,34.58 184.29,33.53 
		184.6,32.46 184.88,31.37 185.15,30.24 185.39,29.1 185.6,27.92 185.79,26.72 185.95,25.5 186.09,24.24 186.69,24.31 186.56,25.58 
		186.39,26.82 186.2,28.04 185.98,29.23 185.74,30.4 185.47,31.53 185.18,32.65 184.87,33.73 184.54,34.79 184.19,35.83 
		183.82,36.83 183.44,37.81 183.04,38.77 182.62,39.7 182.19,40.6 181.75,41.47 181.29,42.32 180.83,43.14 180.35,43.94 
		179.87,44.7 179.38,45.45 178.88,46.16 178.37,46.85 177.87,47.51 177.36,48.14 176.84,48.75 176.33,49.33 175.82,49.88 
		175.3,50.4 174.79,50.9 174.28,51.37 	"/>
	<path class="st9" d="M222.45,43.48c3.64,0,6.59,2.9,6.59,6.47c0,3.57-2.95,6.47-6.59,6.47c-3.64,0-6.59-2.9-6.59-6.47
		C215.86,46.38,218.81,43.48,222.45,43.48z"/>
	<path d="M220.21,49.5h2.07c0.44,0,0.78-0.05,1.03-0.14c0.25-0.09,0.44-0.24,0.56-0.46c0.13-0.21,0.19-0.43,0.19-0.68
		c0-0.36-0.12-0.65-0.37-0.89c-0.25-0.23-0.64-0.35-1.18-0.35h-2.3V49.5z M219.24,53.74v-7.58h3.23c0.65,0,1.14,0.07,1.48,0.2
		c0.34,0.14,0.61,0.38,0.81,0.72c0.2,0.34,0.3,0.73,0.3,1.14c0,0.54-0.17,0.99-0.5,1.36c-0.33,0.37-0.85,0.6-1.55,0.7
		c0.26,0.13,0.45,0.25,0.58,0.38c0.28,0.27,0.55,0.6,0.8,1.01l1.26,2.07h-1.2l-0.96-1.58c-0.28-0.46-0.51-0.8-0.69-1.05
		c-0.18-0.24-0.35-0.41-0.49-0.51c-0.14-0.09-0.29-0.16-0.44-0.2c-0.11-0.02-0.29-0.04-0.54-0.04h-1.12v3.37H219.24z"/>
	<path class="st10" d="M220.21,49.5h2.07c0.44,0,0.78-0.05,1.03-0.14c0.25-0.09,0.44-0.24,0.56-0.46c0.13-0.21,0.19-0.43,0.19-0.68
		c0-0.36-0.12-0.65-0.37-0.89c-0.25-0.23-0.64-0.35-1.18-0.35h-2.3V49.5z M219.24,53.74v-7.58h3.23c0.65,0,1.14,0.07,1.48,0.2
		c0.34,0.14,0.61,0.38,0.81,0.72c0.2,0.34,0.3,0.73,0.3,1.14c0,0.54-0.17,0.99-0.5,1.36c-0.33,0.37-0.85,0.6-1.55,0.7
		c0.26,0.13,0.45,0.25,0.58,0.38c0.28,0.27,0.55,0.6,0.8,1.01l1.26,2.07h-1.2l-0.96-1.58c-0.28-0.46-0.51-0.8-0.69-1.05
		c-0.18-0.24-0.35-0.41-0.49-0.51c-0.14-0.09-0.29-0.16-0.44-0.2c-0.11-0.02-0.29-0.04-0.54-0.04h-1.12v3.37H219.24z"/>
	<path class="st11" d="M208.64,75.46l4.35-15.01c0.15-0.46,0.22-0.98,0.22-1.5c0-0.46-0.07-0.93-0.22-1.44h5.04
		c-1.16,2.32-1.31,2.89-1.92,5l-5.59,19.25h-9.11l-6.68-21.62c-0.22-0.77-0.59-1.75-1.17-2.63h10.35c-0.07,0.41-0.11,0.77-0.11,1.03
		c0,0.57,0.18,1.34,0.51,2.42L208.64,75.46z M184.07,70.09h-3.81c-1.31,0.05-1.81,0.31-1.81,2.06v2.79c0,1.75,0.51,2.01,1.81,2.06h2
		c1.63,0,1.81-0.36,1.81-3.46V70.09z M171.3,57.51h15.67c4.1,0,5.73,2.48,5.73,9.13v10.58c0,2.47,0.33,3.56,0.83,4.55h-8.64
		l-0.44-2.69h-0.07c-0.44,2.17-1.16,2.69-3.48,2.69h-6.1c-3.84,0-4.93-2.28-4.93-7.33v-1.75c0-5.06,1.09-7.33,4.93-7.33h7.8
		c1.2,0,1.45-0.41,1.45-1.55c0-1.08-0.26-1.55-1.45-1.55h-8.53c-1.59,0-2.39,0.31-3.41,1.03L171.3,57.51z M143.07,48.63h9.51v11.25
		h0.07c0.94-1.96,1.12-2.37,2.07-2.37h6.75c4.03,0,5.7,3.41,5.7,8.82v9.85c0,3.35,0.44,4.33,0.94,5.58h-10.52
		c0.51-1.25,0.94-2.23,0.94-5.58V64.26c0-1.5-0.37-2.01-1.42-2.01h-3.12c-1.05,0-1.42,0.52-1.42,2.01v11.92
		c0,3.35,0.44,4.33,0.94,5.58h-10.45c0.51-1.25,0.94-2.23,0.94-5.58V54.2C144.01,50.85,143.58,49.87,143.07,48.63z M141.73,81.76
		h-8.64l-0.47-2.59c-0.62,1.75-1.06,2.59-2.03,2.59h-7.22c-3.92,0-5.37-3.1-5.37-7.54v-9.18c0-4.44,1.45-7.53,5.37-7.53h6.71
		c1.56,0,2,1.39,2.21,2.37h0.07v-6.71c0-2.48-0.33-3.56-0.73-4.54H141v2.12v26.41v0.05C141,79.69,141.33,80.77,141.73,81.76z
		 M132.37,75.15V64.11c0-1.34-0.37-1.86-1.2-1.86h-3.41c-0.83,0-1.2,0.52-1.2,1.86v11.04c0,1.34,0.36,1.86,1.2,1.86h3.41
		C132,77.01,132.37,76.49,132.37,75.15z M106.57,70.09h-3.81c-1.31,0.05-1.81,0.31-1.81,2.06v2.79c0,1.75,0.51,2.01,1.81,2.06h2
		c1.63,0,1.81-0.36,1.81-3.46V70.09z M93.8,57.51h15.68c4.1,0,5.73,2.48,5.73,9.13v10.58c0,2.47,0.33,3.56,0.83,4.55h-8.64
		l-0.44-2.69h-0.07c-0.44,2.17-1.16,2.69-3.48,2.69h-6.1c-3.84,0-4.93-2.28-4.93-7.33v-1.75c0-5.06,1.09-7.33,4.93-7.33h7.8
		c1.2,0,1.45-0.41,1.45-1.55c0-1.08-0.26-1.55-1.45-1.55h-8.53c-1.59,0-2.39,0.31-3.41,1.03L93.8,57.51z M73.4,67.46l4.79-18.83
		h11.87c-0.47,1.29-0.76,2.53-0.76,5.67v21.77c0,3.14,0.29,4.39,0.76,5.68H79.72c0.44-1.3,0.73-2.54,0.73-5.68V55.65h-0.07
		l-6.42,26.11h-6.21L61.5,55.65h-0.07v20.17c0,3.71,0.11,4.38,0.87,5.94h-5.59c0.76-1.56,0.87-2.23,0.87-5.94V54.57
		c0-3.72-0.11-4.39-0.87-5.93h12.19l4.43,18.83H73.4z M138.55,40.24h-8.64l-0.47-2.59c-0.62,1.75-1.05,2.59-2.03,2.59h-7.22
		c-3.92,0-5.37-3.1-5.37-7.54v-9.18c0-4.44,1.45-7.53,5.37-7.53h6.71c1.56,0,2,1.39,2.21,2.37h0.07v-6.71
		c0-2.48-0.33-3.56-0.72-4.54h9.36v2.12v26.41v0.05C137.82,38.16,138.15,39.25,138.55,40.24z M129.19,33.63V22.59
		c0-1.34-0.36-1.86-1.2-1.86h-3.41c-0.83,0-1.2,0.52-1.2,1.86v11.04c0,1.34,0.36,1.86,1.2,1.86h3.41
		C128.82,35.48,129.19,34.97,129.19,33.63z M88,15.98h8.85l0.25,2.53h0.07c0.4-1.24,0.94-2.53,2.21-2.53h7c4.03,0,5.7,3.4,5.7,8.82
		v9.85c0,3.35,0.44,4.33,0.94,5.58h-10.52c0.51-1.25,0.94-2.23,0.94-5.58V22.74c0-1.5-0.36-2.01-1.42-2.01h-3.12
		c-1.05,0-1.41,0.52-1.41,2.01v11.92c0,3.35,0.44,4.33,0.94,5.58H88c0.51-1.25,0.94-2.23,0.94-5.58v-13.1
		C88.95,18.2,88.51,17.22,88,15.98z M76.79,7.11h8.42v6.4h-8.42V7.11z M76.72,34.66v-13.1c0-3.35-0.44-4.33-0.94-5.57h9.51v18.67
		c0,3.35,0.44,4.33,0.94,5.58H75.78C76.28,38.99,76.72,38.01,76.72,34.66z M65.98,33.93l4.35-15.01c0.14-0.46,0.22-0.98,0.22-1.5
		c0-0.46-0.07-0.93-0.22-1.44h5.04c-1.16,2.32-1.31,2.89-1.92,5l-5.59,19.25h-9.11l-6.68-21.62c-0.22-0.77-0.59-1.75-1.17-2.63
		h10.35c-0.07,0.41-0.11,0.77-0.11,1.03c0,0.57,0.18,1.34,0.51,2.42L65.98,33.93z M50.52,23.31v9.6c0,5.06-1.09,7.33-4.93,7.33
		H32.16c-3.85,0-4.93-2.28-4.93-7.33v-9.6c0-5.06,1.09-7.33,4.93-7.33h13.43C49.43,15.98,50.52,18.25,50.52,23.31z M35.79,22.69
		v10.83c0,1.39,0.29,1.96,1.23,1.96h3.56c1.02,0,1.31-0.57,1.31-1.96V22.69c0-1.39-0.29-1.96-1.31-1.96h-3.56
		C36.08,20.73,35.79,21.3,35.79,22.69z M10.57,20.42h14.8c-0.98,2.22-1.09,2.89-1.09,5.16v8.15c0,4.08,0.15,4.75,0.94,6.51h-7.8
		l-0.29-3.05h-0.07c-0.4,1.91-0.8,3.05-3.3,3.05H5.93c-3.77,0-5.88-2.59-5.88-9.71V16.91c0-7.22,2.1-9.8,5.88-9.8h17.05l0.69,6.35
		c-0.98-0.52-1.85-0.88-3.56-0.88h-9.47c-1.16,0-1.74,0.52-1.74,2.22v17.85c0,1.6,0.58,2.12,1.74,2.12h2.98
		c1.16,0,1.74-0.52,1.74-2.12v-6.76h-3.3c-0.65,0-1.05,0.31-1.49,0.62V20.42z"/>
	<path class="st12" d="M204.96,92.66h-0.01l-2.22,6.58h4.48L204.96,92.66z M212.29,104.02c0.1,0.29,0.16,0.52,0.19,0.68
		c0.02,0.17-0.01,0.29-0.1,0.38c-0.09,0.08-0.25,0.13-0.48,0.15c-0.23,0.02-0.55,0.03-0.95,0.03c-0.42,0-0.75,0-0.98-0.02
		c-0.23-0.01-0.41-0.04-0.54-0.07c-0.12-0.04-0.21-0.09-0.26-0.15c-0.05-0.06-0.09-0.15-0.12-0.25l-1.05-3.11h-6.02l-1.01,3.02
		c-0.03,0.11-0.08,0.21-0.13,0.28c-0.05,0.08-0.14,0.14-0.26,0.18c-0.12,0.05-0.28,0.07-0.5,0.09c-0.22,0.02-0.5,0.02-0.86,0.02
		c-0.38,0-0.67-0.01-0.89-0.04c-0.21-0.02-0.36-0.08-0.44-0.17c-0.08-0.09-0.11-0.22-0.09-0.39c0.02-0.17,0.09-0.39,0.19-0.67
		l4.92-13.73c0.05-0.13,0.11-0.24,0.17-0.33c0.06-0.09,0.17-0.15,0.31-0.19c0.15-0.05,0.35-0.07,0.6-0.09
		c0.25-0.01,0.59-0.02,1.01-0.02c0.48,0,0.87,0,1.16,0.02c0.29,0.01,0.52,0.04,0.68,0.09c0.16,0.05,0.27,0.11,0.35,0.2
		c0.07,0.09,0.13,0.21,0.18,0.36L212.29,104.02z M196.65,103.95c0,0.23-0.01,0.42-0.03,0.58c-0.02,0.16-0.05,0.28-0.09,0.38
		c-0.04,0.1-0.09,0.17-0.16,0.21c-0.06,0.04-0.13,0.06-0.2,0.06h-8.01c-0.27,0-0.5-0.08-0.68-0.23c-0.19-0.15-0.28-0.41-0.28-0.76
		V90.7c0-0.35,0.09-0.6,0.28-0.76c0.19-0.15,0.41-0.23,0.68-0.23h7.97c0.07,0,0.14,0.02,0.2,0.06c0.05,0.04,0.11,0.11,0.15,0.21
		c0.04,0.1,0.07,0.23,0.09,0.38c0.02,0.16,0.03,0.35,0.03,0.6c0,0.23-0.01,0.41-0.03,0.57c-0.02,0.15-0.05,0.28-0.09,0.38
		c-0.04,0.1-0.09,0.17-0.15,0.21c-0.06,0.04-0.13,0.06-0.2,0.06h-5.69v3.77h4.8c0.08,0,0.14,0.02,0.2,0.06
		c0.06,0.05,0.11,0.11,0.16,0.2c0.04,0.09,0.07,0.21,0.09,0.37c0.02,0.16,0.03,0.34,0.03,0.56c0,0.23-0.01,0.43-0.03,0.58
		c-0.02,0.15-0.05,0.27-0.09,0.36c-0.04,0.09-0.09,0.16-0.16,0.2c-0.06,0.04-0.13,0.06-0.2,0.06h-4.8v4.36h5.73
		c0.08,0,0.14,0.02,0.2,0.06c0.06,0.05,0.12,0.12,0.16,0.21c0.04,0.09,0.07,0.22,0.09,0.38
		C196.64,103.53,196.65,103.72,196.65,103.95z M185.3,91c0,0.23-0.01,0.43-0.03,0.6c-0.02,0.16-0.05,0.29-0.09,0.39
		c-0.04,0.1-0.09,0.18-0.15,0.22c-0.06,0.05-0.13,0.07-0.2,0.07h-3.99v12.48c0,0.08-0.03,0.15-0.08,0.22
		c-0.06,0.06-0.14,0.11-0.27,0.15c-0.12,0.04-0.29,0.07-0.5,0.09c-0.21,0.03-0.47,0.04-0.78,0.04s-0.57-0.01-0.78-0.04
		c-0.21-0.02-0.38-0.06-0.5-0.09c-0.12-0.04-0.21-0.09-0.27-0.15c-0.05-0.07-0.08-0.14-0.08-0.22V92.28h-3.99
		c-0.08,0-0.15-0.02-0.21-0.07c-0.06-0.05-0.11-0.12-0.15-0.22c-0.04-0.1-0.07-0.23-0.09-0.39c-0.02-0.17-0.03-0.36-0.03-0.6
		c0-0.24,0.01-0.44,0.03-0.61c0.02-0.17,0.05-0.3,0.09-0.4c0.04-0.1,0.09-0.17,0.15-0.22c0.06-0.05,0.13-0.07,0.21-0.07h11.24
		c0.07,0,0.14,0.02,0.2,0.07c0.06,0.05,0.11,0.11,0.15,0.22c0.04,0.1,0.07,0.23,0.09,0.4C185.3,90.56,185.3,90.77,185.3,91z
		 M167.07,103.87c0,0.24-0.01,0.44-0.03,0.6c-0.02,0.16-0.06,0.3-0.09,0.4c-0.04,0.11-0.09,0.19-0.16,0.23
		c-0.06,0.05-0.14,0.07-0.21,0.07h-7.31c-0.27,0-0.5-0.08-0.68-0.23c-0.19-0.15-0.28-0.41-0.28-0.76V90.14
		c0-0.08,0.03-0.15,0.08-0.21c0.06-0.06,0.14-0.12,0.27-0.16c0.12-0.04,0.29-0.07,0.5-0.09c0.21-0.02,0.47-0.04,0.78-0.04
		c0.32,0,0.59,0.01,0.79,0.04c0.2,0.02,0.37,0.05,0.49,0.09c0.12,0.04,0.21,0.09,0.27,0.16c0.06,0.06,0.08,0.14,0.08,0.21v12.45
		h5.01c0.08,0,0.16,0.02,0.21,0.06c0.06,0.05,0.12,0.11,0.16,0.22c0.04,0.1,0.07,0.23,0.09,0.4
		C167.06,103.43,167.07,103.63,167.07,103.87z M148.74,92.66h-0.01l-2.22,6.58h4.48L148.74,92.66z M156.07,104.02
		c0.1,0.29,0.16,0.52,0.19,0.68c0.02,0.17-0.01,0.29-0.1,0.38c-0.09,0.08-0.25,0.13-0.48,0.15c-0.23,0.02-0.55,0.03-0.95,0.03
		c-0.42,0-0.75,0-0.98-0.02c-0.23-0.01-0.41-0.04-0.54-0.07c-0.12-0.04-0.21-0.09-0.26-0.15c-0.05-0.06-0.09-0.15-0.12-0.25
		l-1.05-3.11h-6.02l-1.01,3.02c-0.03,0.11-0.08,0.21-0.13,0.28c-0.05,0.08-0.14,0.14-0.26,0.18c-0.12,0.05-0.28,0.07-0.5,0.09
		c-0.22,0.02-0.5,0.02-0.86,0.02c-0.38,0-0.67-0.01-0.89-0.04c-0.21-0.02-0.36-0.08-0.44-0.17c-0.08-0.09-0.11-0.22-0.09-0.39
		c0.02-0.17,0.09-0.39,0.18-0.67l4.92-13.73c0.05-0.13,0.1-0.24,0.17-0.33c0.06-0.09,0.17-0.15,0.31-0.19
		c0.15-0.05,0.35-0.07,0.6-0.09c0.25-0.01,0.59-0.02,1.01-0.02c0.48,0,0.87,0,1.16,0.02c0.29,0.01,0.51,0.04,0.68,0.09
		c0.16,0.05,0.27,0.11,0.35,0.2c0.07,0.09,0.13,0.21,0.18,0.36L156.07,104.02z M137.27,100.66c0-0.36-0.06-0.68-0.19-0.97
		c-0.12-0.28-0.3-0.52-0.54-0.71c-0.23-0.19-0.54-0.34-0.91-0.44c-0.37-0.1-0.85-0.16-1.45-0.16h-1.92v4.41h2.34
		c0.45,0,0.83-0.05,1.14-0.14c0.31-0.09,0.57-0.23,0.8-0.41c0.22-0.18,0.4-0.4,0.53-0.67C137.21,101.31,137.27,101,137.27,100.66z
		 M136.44,94.02c0-0.31-0.05-0.59-0.15-0.84c-0.1-0.24-0.25-0.45-0.44-0.62c-0.2-0.16-0.45-0.29-0.75-0.38
		c-0.3-0.09-0.7-0.13-1.2-0.13h-1.63v4.02h1.81c0.47,0,0.84-0.05,1.12-0.16c0.28-0.11,0.51-0.25,0.69-0.44
		c0.18-0.19,0.32-0.41,0.41-0.66C136.39,94.57,136.44,94.3,136.44,94.02z M140.63,100.54c0,0.55-0.08,1.05-0.23,1.5
		c-0.15,0.44-0.37,0.84-0.64,1.18c-0.28,0.34-0.61,0.64-0.99,0.89c-0.38,0.25-0.8,0.45-1.26,0.61c-0.46,0.16-0.95,0.28-1.47,0.35
		c-0.52,0.08-1.1,0.11-1.74,0.11h-4.24c-0.27,0-0.5-0.08-0.68-0.23c-0.19-0.15-0.28-0.41-0.28-0.76V90.7c0-0.35,0.09-0.6,0.28-0.76
		c0.18-0.15,0.41-0.23,0.68-0.23h4c0.98,0,1.8,0.08,2.48,0.24c0.68,0.16,1.25,0.4,1.71,0.72c0.47,0.32,0.82,0.73,1.07,1.22
		c0.25,0.49,0.37,1.07,0.37,1.74c0,0.38-0.05,0.73-0.15,1.06c-0.1,0.33-0.25,0.63-0.43,0.9c-0.19,0.27-0.42,0.51-0.7,0.72
		c-0.27,0.21-0.58,0.38-0.94,0.5c0.45,0.08,0.87,0.22,1.26,0.42c0.38,0.2,0.71,0.46,1,0.77c0.29,0.31,0.51,0.69,0.67,1.11
		C140.54,99.55,140.63,100.02,140.63,100.54z M122.52,94.28c0-0.51-0.12-0.94-0.36-1.29c-0.24-0.35-0.63-0.6-1.18-0.74
		c-0.16-0.04-0.35-0.07-0.56-0.09c-0.21-0.02-0.5-0.04-0.87-0.04h-1.45v4.38h1.65c0.46,0,0.86-0.05,1.21-0.16
		c0.35-0.11,0.64-0.26,0.87-0.45c0.23-0.19,0.41-0.43,0.52-0.7C122.46,94.91,122.52,94.61,122.52,94.28z M126.71,104.79
		c0,0.09-0.02,0.16-0.05,0.22c-0.03,0.06-0.11,0.11-0.23,0.15c-0.13,0.04-0.3,0.07-0.54,0.08c-0.24,0.02-0.56,0.02-0.97,0.02
		c-0.35,0-0.62-0.01-0.82-0.02c-0.21-0.02-0.37-0.04-0.49-0.09c-0.12-0.05-0.2-0.1-0.25-0.17c-0.05-0.07-0.09-0.15-0.12-0.24
		l-1.44-3.47c-0.17-0.39-0.34-0.74-0.51-1.04c-0.16-0.31-0.35-0.56-0.55-0.76c-0.2-0.2-0.44-0.35-0.7-0.46
		c-0.26-0.1-0.57-0.15-0.91-0.15h-1.01v5.91c0,0.08-0.03,0.15-0.08,0.21c-0.05,0.07-0.14,0.12-0.26,0.16
		c-0.12,0.04-0.29,0.07-0.49,0.09c-0.2,0.03-0.47,0.04-0.78,0.04c-0.31,0-0.57-0.01-0.78-0.04c-0.21-0.02-0.38-0.06-0.5-0.09
		c-0.12-0.04-0.21-0.09-0.26-0.15c-0.05-0.07-0.08-0.14-0.08-0.22V90.7c0-0.35,0.09-0.6,0.28-0.76c0.19-0.15,0.41-0.23,0.68-0.23
		h4.13c0.42,0,0.77,0.01,1.04,0.03c0.27,0.02,0.52,0.04,0.74,0.06c0.64,0.09,1.22,0.24,1.73,0.46c0.51,0.21,0.95,0.49,1.31,0.84
		c0.36,0.35,0.63,0.76,0.82,1.23c0.19,0.47,0.28,1.02,0.28,1.63c0,0.52-0.07,0.99-0.2,1.41c-0.14,0.43-0.34,0.81-0.6,1.14
		c-0.26,0.33-0.58,0.62-0.97,0.87c-0.39,0.25-0.83,0.44-1.32,0.6c0.24,0.11,0.46,0.24,0.67,0.4c0.21,0.16,0.41,0.36,0.59,0.58
		c0.19,0.23,0.36,0.49,0.53,0.78c0.17,0.29,0.32,0.62,0.48,0.99l1.35,3.06c0.12,0.3,0.21,0.52,0.24,0.67
		C126.69,104.59,126.71,104.7,126.71,104.79z M111.99,103.95c0,0.23-0.01,0.42-0.03,0.58c-0.02,0.16-0.05,0.28-0.09,0.38
		c-0.04,0.1-0.09,0.17-0.16,0.21c-0.06,0.04-0.13,0.06-0.2,0.06h-8.01c-0.27,0-0.5-0.08-0.68-0.23c-0.19-0.15-0.28-0.41-0.28-0.76
		V90.7c0-0.35,0.09-0.6,0.28-0.76c0.18-0.15,0.41-0.23,0.68-0.23h7.97c0.07,0,0.14,0.02,0.2,0.06c0.05,0.04,0.11,0.11,0.15,0.21
		c0.04,0.1,0.07,0.23,0.09,0.38c0.02,0.16,0.03,0.35,0.03,0.6c0,0.23-0.01,0.41-0.03,0.57c-0.02,0.15-0.05,0.28-0.09,0.38
		c-0.04,0.1-0.09,0.17-0.15,0.21c-0.06,0.04-0.13,0.06-0.2,0.06h-5.69v3.77h4.8c0.08,0,0.14,0.02,0.2,0.06
		c0.06,0.05,0.12,0.11,0.16,0.2c0.04,0.09,0.07,0.21,0.09,0.37c0.02,0.16,0.03,0.34,0.03,0.56c0,0.23-0.01,0.43-0.03,0.58
		c-0.02,0.15-0.05,0.27-0.09,0.36c-0.04,0.09-0.09,0.16-0.16,0.2c-0.06,0.04-0.13,0.06-0.2,0.06h-4.8v4.36h5.73
		c0.08,0,0.14,0.02,0.2,0.06c0.06,0.05,0.11,0.12,0.16,0.21c0.04,0.09,0.07,0.22,0.09,0.38
		C111.98,103.53,111.99,103.72,111.99,103.95z M99.06,104.76c0,0.08-0.02,0.15-0.08,0.22c-0.05,0.06-0.14,0.11-0.27,0.15
		c-0.12,0.04-0.29,0.07-0.49,0.09c-0.2,0.03-0.46,0.04-0.77,0.04c-0.32,0-0.59-0.01-0.8-0.04c-0.21-0.02-0.37-0.06-0.49-0.09
		c-0.12-0.04-0.2-0.09-0.26-0.15c-0.06-0.07-0.08-0.14-0.08-0.22V98.5h-5.98v6.26c0,0.08-0.03,0.15-0.08,0.22
		c-0.05,0.06-0.14,0.11-0.26,0.15c-0.12,0.04-0.29,0.07-0.49,0.09c-0.2,0.03-0.47,0.04-0.78,0.04c-0.31,0-0.57-0.01-0.78-0.04
		c-0.21-0.02-0.38-0.06-0.5-0.09c-0.12-0.04-0.21-0.09-0.27-0.15c-0.05-0.07-0.08-0.14-0.08-0.22V90.14c0-0.08,0.03-0.15,0.08-0.21
		c0.06-0.06,0.14-0.12,0.27-0.16c0.12-0.04,0.29-0.07,0.5-0.09c0.21-0.02,0.47-0.04,0.78-0.04c0.32,0,0.58,0.01,0.78,0.04
		c0.21,0.02,0.37,0.06,0.49,0.09c0.12,0.04,0.21,0.09,0.26,0.16c0.05,0.06,0.08,0.14,0.08,0.21v5.7h5.98v-5.7
		c0-0.08,0.02-0.15,0.08-0.21c0.05-0.06,0.14-0.12,0.26-0.16c0.12-0.04,0.28-0.07,0.49-0.09c0.21-0.02,0.48-0.04,0.8-0.04
		c0.31,0,0.57,0.01,0.77,0.04c0.21,0.02,0.37,0.05,0.49,0.09c0.12,0.04,0.21,0.09,0.27,0.16c0.06,0.06,0.08,0.14,0.08,0.21V104.76z"
		/>
	<path class="st3" d="M164.88,0.72l0.14,0.16l-0.23,0.25l-0.22,0.26l-0.2,0.27l-0.19,0.28L164,2.25l-0.16,0.3l-0.15,0.3l-0.13,0.31
		l-0.12,0.31l-0.1,0.32l-0.09,0.32l-0.07,0.33l-0.06,0.33l-0.04,0.33l-0.03,0.33l-0.01,0.33l0,0.33l0.02,0.33l0.03,0.33l0.05,0.33
		l0.06,0.33l0.08,0.33l0.09,0.32l0.1,0.32l0.12,0.31l0.13,0.31l0.15,0.3l0.16,0.3l0.18,0.29l0.19,0.28l0.21,0.27l0.22,0.26
		l-0.15,0.15l-0.23-0.27l-0.22-0.28l-0.2-0.29l-0.19-0.3l-0.17-0.31l-0.15-0.31l-0.14-0.32l-0.12-0.32l-0.11-0.33l-0.09-0.33
		L163,7.47l-0.06-0.34l-0.05-0.34l-0.03-0.34l-0.02-0.34l0-0.34l0.01-0.34l0.03-0.34l0.04-0.34l0.06-0.34l0.07-0.34l0.09-0.33
		l0.11-0.33l0.12-0.32l0.13-0.32l0.15-0.31l0.17-0.31l0.18-0.3l0.2-0.29l0.21-0.28l0.23-0.27L164.88,0.72z M164.7,10.87L164.7,10.87
		z M164.7,10.87l0.15-0.15l0.24,0.25l0.24,0.24l0.25,0.22l0.26,0.2l0.27,0.19l0.27,0.17l0.28,0.16l0.29,0.14l0.29,0.12l0.3,0.11
		l0.3,0.09l0.3,0.08l0.3,0.06l0.31,0.05l0.31,0.03l0.31,0.01l0.31,0l0.31-0.02l0.31-0.03l0.31-0.05l0.3-0.07l0.3-0.08l0.3-0.1
		l0.3-0.11l0.29-0.13l0.29-0.14l0.28-0.16l0.28-0.18l0.27-0.19l0.26-0.21l0.25-0.23l0.25-0.24l0.14,0.16l-0.25,0.25l-0.26,0.23
		l-0.27,0.22l-0.28,0.2l-0.28,0.18l-0.29,0.17l-0.3,0.15l-0.3,0.13l-0.31,0.12l-0.31,0.1l-0.31,0.08l-0.31,0.07l-0.32,0.05
		L170,13.05l-0.32,0.02l-0.32,0l-0.32-0.01l-0.32-0.03l-0.32-0.05l-0.31-0.06l-0.31-0.08l-0.31-0.1l-0.3-0.11l-0.3-0.13l-0.3-0.15
		l-0.29-0.16L166,12.01l-0.28-0.19l-0.27-0.21l-0.26-0.23l-0.25-0.24L164.7,10.87z M174.11,11.07L174.11,11.07z M174.11,11.07
		l-0.14-0.16l0.23-0.25l0.22-0.26l0.2-0.27l0.19-0.28l0.17-0.29l0.16-0.3l0.15-0.3l0.13-0.31l0.12-0.31l0.1-0.32l0.09-0.32
		l0.07-0.33l0.06-0.33l0.04-0.33l0.03-0.33l0.01-0.33l0-0.33l-0.02-0.33l-0.03-0.33l-0.05-0.33l-0.06-0.33l-0.08-0.33l-0.09-0.32
		l-0.11-0.32l-0.12-0.31l-0.13-0.31l-0.15-0.3l-0.16-0.3l-0.18-0.29l-0.19-0.28l-0.21-0.27l-0.22-0.26l0.15-0.15l0.23,0.27
		l0.22,0.28l0.2,0.29l0.19,0.3l0.17,0.31l0.15,0.31L175.58,3l0.12,0.32l0.11,0.33l0.09,0.33l0.08,0.34l0.06,0.34L176.1,5l0.03,0.34
		l0.02,0.34l0,0.34l-0.01,0.34l-0.03,0.34l-0.04,0.34L176,7.4l-0.07,0.34l-0.09,0.33l-0.1,0.33l-0.12,0.32l-0.13,0.32l-0.15,0.31
		l-0.17,0.31l-0.18,0.3l-0.2,0.29l-0.21,0.28l-0.23,0.27L174.11,11.07z"/>
	<path class="st3" d="M165.45,0.48l0.14,0.16l-0.2,0.22l-0.19,0.23l-0.18,0.24l-0.16,0.24l-0.15,0.25l-0.14,0.26l-0.13,0.26
		l-0.11,0.27l-0.1,0.27l-0.09,0.28l-0.08,0.28l-0.06,0.28l-0.05,0.29l-0.04,0.29l-0.02,0.29l-0.01,0.29l0,0.29l0.01,0.29l0.03,0.29
		l0.04,0.29l0.05,0.29l0.07,0.28l0.08,0.28l0.09,0.28l0.1,0.27l0.12,0.27l0.13,0.26l0.14,0.26l0.16,0.25l0.17,0.24l0.18,0.24
		l0.19,0.23l-0.15,0.15l-0.2-0.24l-0.19-0.25l-0.18-0.25l-0.16-0.26l-0.15-0.27l-0.13-0.27l-0.12-0.28l-0.11-0.28l-0.09-0.29
		l-0.08-0.29l-0.07-0.29l-0.05-0.3l-0.04-0.3l-0.03-0.3l-0.01-0.3l0-0.3l0.01-0.3l0.02-0.3l0.04-0.3l0.05-0.3l0.07-0.29l0.08-0.29
		l0.09-0.29l0.1-0.28l0.12-0.28l0.13-0.27l0.14-0.27l0.16-0.26l0.17-0.25l0.18-0.25l0.2-0.24L165.45,0.48z M165.29,9.35L165.29,9.35
		z M165.29,9.35l0.15-0.15l0.21,0.22l0.21,0.21l0.22,0.19l0.23,0.18l0.23,0.16l0.24,0.15l0.24,0.14l0.25,0.12l0.25,0.11l0.26,0.1
		l0.26,0.08l0.26,0.07l0.27,0.05l0.27,0.04l0.27,0.03l0.27,0.01l0.27,0l0.27-0.02l0.27-0.03l0.27-0.04l0.26-0.06l0.26-0.07
		l0.26-0.08l0.26-0.1l0.25-0.11l0.25-0.13l0.24-0.14l0.24-0.15l0.23-0.17l0.23-0.18l0.22-0.2l0.21-0.21l0.14,0.16l-0.22,0.22
		l-0.23,0.2l-0.24,0.19l-0.24,0.17l-0.25,0.16l-0.25,0.15l-0.26,0.13l-0.26,0.12l-0.27,0.1l-0.27,0.09l-0.27,0.07l-0.28,0.06
		l-0.28,0.04l-0.28,0.03l-0.28,0.02l-0.28,0l-0.28-0.01l-0.28-0.03l-0.28-0.04l-0.28-0.06l-0.27-0.07l-0.27-0.08l-0.27-0.1
		l-0.26-0.11l-0.26-0.13l-0.25-0.14l-0.25-0.16l-0.24-0.17l-0.24-0.18l-0.23-0.2l-0.22-0.21L165.29,9.35z M173.37,9.36L173.37,9.36z
		 M173.51,9.52l-0.14-0.16l0.2-0.22l0.19-0.23l0.18-0.24l0.17-0.25l0.15-0.25l0.14-0.26l0.13-0.26l0.11-0.27l0.1-0.27l0.09-0.28
		l0.08-0.28l0.06-0.28l0.05-0.29l0.04-0.29l0.02-0.29l0.01-0.29l0-0.29l-0.01-0.29l-0.03-0.29l-0.04-0.29l-0.05-0.29l-0.07-0.28
		l-0.08-0.28l-0.09-0.28l-0.1-0.27l-0.12-0.27l-0.13-0.26l-0.14-0.26l-0.16-0.25l-0.17-0.24l-0.18-0.24l-0.19-0.23l0.15-0.15
		l0.2,0.24l0.19,0.25l0.18,0.25l0.16,0.26l0.15,0.27l0.13,0.27l0.12,0.28l0.11,0.28l0.09,0.29l0.08,0.29l0.07,0.29l0.05,0.3
		l0.04,0.3l0.03,0.3l0.01,0.3l0,0.3l-0.01,0.3l-0.03,0.3l-0.04,0.3l-0.05,0.3l-0.07,0.29l-0.08,0.29l-0.09,0.29l-0.1,0.28
		l-0.12,0.28l-0.13,0.27l-0.14,0.27l-0.16,0.26l-0.17,0.25l-0.18,0.25l-0.2,0.24L173.51,9.52z"/>
	<path class="st3" d="M166.02,0.24l0.14,0.16l-0.17,0.19l-0.16,0.2l-0.15,0.2l-0.14,0.21l-0.13,0.21l-0.12,0.22l-0.11,0.22
		l-0.1,0.23L165,2.31l-0.07,0.24l-0.06,0.24l-0.05,0.24l-0.04,0.24l-0.03,0.24l-0.02,0.25l-0.01,0.25l0,0.25l0.01,0.25l0.02,0.25
		l0.03,0.25l0.04,0.24l0.06,0.24l0.07,0.24l0.08,0.24l0.09,0.23l0.1,0.23l0.11,0.22l0.12,0.22l0.13,0.21l0.14,0.21l0.15,0.2
		l0.17,0.2l-0.15,0.15l-0.17-0.2l-0.16-0.21L165.4,7.2l-0.14-0.22l-0.13-0.23l-0.12-0.23l-0.1-0.24l-0.09-0.24l-0.08-0.25
		l-0.07-0.25l-0.06-0.25l-0.05-0.25l-0.04-0.26l-0.02-0.26l-0.01-0.26l0-0.26l0.01-0.26l0.02-0.26l0.03-0.26l0.04-0.25l0.06-0.25
		l0.07-0.25l0.08-0.25l0.09-0.24l0.1-0.24l0.11-0.23l0.12-0.23l0.14-0.22l0.15-0.22l0.16-0.21l0.17-0.2L166.02,0.24z M165.88,7.83
		L165.88,7.83z M165.88,7.83l0.15-0.15l0.18,0.19l0.18,0.17l0.19,0.16l0.19,0.15l0.2,0.14l0.2,0.13l0.21,0.12l0.21,0.1l0.22,0.09
		l0.22,0.08l0.22,0.07l0.22,0.06l0.23,0.05l0.23,0.03l0.23,0.02l0.23,0.01l0.23,0l0.23-0.01l0.23-0.02l0.23-0.04l0.23-0.05
		l0.22-0.06L170.96,9l0.22-0.08l0.22-0.1l0.21-0.11l0.21-0.12l0.2-0.13l0.2-0.14l0.19-0.16l0.19-0.17l0.18-0.18l0.14,0.16
		l-0.19,0.19l-0.2,0.17l-0.2,0.16l-0.21,0.15l-0.21,0.14l-0.22,0.12l-0.22,0.11l-0.22,0.1l-0.23,0.09l-0.23,0.07l-0.23,0.06
		l-0.24,0.05l-0.24,0.04l-0.24,0.03l-0.24,0.01l-0.24,0l-0.24-0.01l-0.24-0.02l-0.24-0.04l-0.24-0.05l-0.23-0.06l-0.23-0.07
		l-0.23-0.09l-0.22-0.1l-0.22-0.11l-0.22-0.12l-0.21-0.13l-0.21-0.15l-0.2-0.16l-0.2-0.17l-0.19-0.18L165.88,7.83z M172.92,7.98
		L172.92,7.98z M172.92,7.98l-0.14-0.16l0.17-0.19l0.16-0.2l0.15-0.2l0.14-0.21l0.13-0.21l0.12-0.22l0.11-0.22l0.1-0.23l0.09-0.23
		l0.07-0.24l0.06-0.24l0.05-0.24l0.04-0.24l0.03-0.24l0.02-0.25l0.01-0.25l0-0.25l-0.01-0.25l-0.02-0.25l-0.03-0.24l-0.04-0.24
		l-0.06-0.24L174,2.5l-0.08-0.24l-0.09-0.23l-0.1-0.23l-0.11-0.22l-0.12-0.22l-0.13-0.21l-0.14-0.21l-0.15-0.2l-0.17-0.2l0.15-0.15
		l0.17,0.2l0.16,0.21l0.15,0.22l0.14,0.22l0.13,0.23l0.12,0.23l0.1,0.24l0.09,0.24l0.08,0.25l0.07,0.25l0.06,0.25l0.05,0.25
		l0.04,0.26l0.02,0.26l0.01,0.26l0,0.26l-0.01,0.26l-0.02,0.26l-0.03,0.26l-0.04,0.25l-0.06,0.25l-0.07,0.25l-0.08,0.25l-0.09,0.24
		l-0.1,0.24l-0.11,0.23l-0.12,0.23l-0.14,0.22l-0.15,0.22l-0.16,0.21l-0.17,0.2L172.92,7.98z"/>
	<path class="st2" d="M172.37,0.19c1.55,1.73,1.5,4.49-0.11,6.16c-1.61,1.67-4.16,1.62-5.71-0.12c-1.55-1.73-1.5-4.49,0.11-6.16"/>
</g>
</svg>
