<?xml version="1.0" encoding="UTF-8"?> <!-- Generator: Adobe Illustrator 25.1.0, SVG Export Plug-In . SVG Version: 6.00 Build 0) --> <svg xmlns="http://www.w3.org/2000/svg" xmlns:xlink="http://www.w3.org/1999/xlink" version="1.1" id="Layer_1" x="0px" y="0px" viewBox="0 0 472.7 472.7" style="enable-background:new 0 0 472.7 472.7;" xml:space="preserve"> <style type="text/css"> .st0{fill-rule:evenodd;clip-rule:evenodd;} </style> <g> <path class="st0" d="M11.8,315l29.6,31.5h-7.7L6.3,317v29.5H0v-62.7h6.3v29.5l27.4-29.5h7.7L11.8,315L11.8,315z M48.3,283.5 c0-1.3,0.4-2.3,1.3-3.1s2-1.2,3.3-1.2c1.4,0,2.5,0.4,3.3,1.2c0.8,0.8,1.2,1.8,1.2,3.1c0,1.2-0.4,2.3-1.2,3 c-0.8,0.8-1.9,1.2-3.3,1.2c-1.4,0-2.5-0.4-3.3-1.2C48.8,285.7,48.3,284.7,48.3,283.5L48.3,283.5z M56.1,297.9v48.6h-6.3v-48.6H56.1 L56.1,297.9z M91,297.2c6.2,0,11.3,1.6,15.4,4.9c4.1,3.3,6.5,7.6,7.4,13h-6.5c-0.7-3.9-2.5-6.9-5.4-9.1c-3-2.2-6.6-3.3-10.9-3.3 c-3.1,0-6,0.7-8.7,2.1c-2.6,1.4-4.7,3.6-6.3,6.5c-1.6,2.9-2.4,6.5-2.4,10.8S74.4,330,76,333c1.6,2.9,3.7,5.1,6.3,6.5 c2.6,1.4,5.5,2.1,8.7,2.1c4.3,0,8-1.1,10.9-3.3c3-2.2,4.8-5.3,5.4-9.1h6.5c-0.9,5.4-3.4,9.7-7.4,13c-4.1,3.3-9.2,4.9-15.4,4.9 c-4.6,0-8.7-1-12.3-3c-3.6-2-6.4-4.9-8.4-8.6c-2-3.8-3-8.2-3-13.3c0-5.1,1-9.5,3-13.3c2-3.8,4.8-6.6,8.4-8.6 C82.3,298.2,86.4,297.2,91,297.2L91,297.2z M151,346.5l-19.7-22.3v22.3H125v-65.9h6.3v38.6l19.3-21.4h7.7l-22.3,24l23,24.6H151 L151,346.5z M167.8,297.9l16.9,40.5l15.6-40.5h6.9l-28.6,71.6h-7.1l9.8-23.5l-20.5-48.1H167.8L167.8,297.9z M267.1,315 c0,6.5-1.3,12.1-3.8,16.8c-2.6,4.7-6.3,8.3-11.3,10.9c-5,2.5-10.9,3.8-17.9,3.8h-19v-62.7h19c10.6,0,18.7,2.8,24.4,8.3 C264.2,297.6,267.1,305.3,267.1,315L267.1,315z M233.6,340.9c8.8,0,15.6-2.3,20.2-6.8c4.6-4.5,6.9-10.9,6.9-19 c0-8.1-2.3-14.5-6.9-19c-4.6-4.5-11.4-6.8-20.2-6.8h-12.2v51.6H233.6L233.6,340.9z M320.4,297.9v48.6h-6.2v-12 c-1.2,4.2-3.5,7.4-6.8,9.6c-3.3,2.2-7,3.3-11.2,3.3c-5.7,0-10.3-1.8-13.8-5.4c-3.5-3.6-5.3-8.9-5.3-15.8v-28.3h6.2v27.8 c0,5.3,1.3,9.4,4,12.2c2.7,2.8,6.3,4.2,10.9,4.2c4.9,0,8.7-1.6,11.6-4.7c2.9-3.1,4.3-7.7,4.3-13.8v-25.8H320.4L320.4,297.9z M358.3,297c5.6,0,10.2,1.8,13.8,5.4c3.5,3.6,5.3,8.9,5.3,15.8v28.3h-6.1v-27.9c0-5.3-1.3-9.3-4-12.1c-2.7-2.8-6.3-4.2-10.9-4.2 c-4.9,0-8.7,1.6-11.6,4.7c-2.9,3.1-4.3,7.7-4.3,13.8v25.8H334v-48.6h6.3v11.9c1.2-4.2,3.5-7.3,6.8-9.5 C350.4,298.1,354.1,297,358.3,297L358.3,297z M416.5,346.5l-19.7-22.3v22.3h-6.3v-65.9h6.3v38.6l19.3-21.4h7.7l-22.3,24l23,24.6 H416.5L416.5,346.5z M433.3,297.9l16.9,40.5l15.6-40.5h6.9l-28.6,71.6H437l9.8-23.5l-20.5-48.1H433.3z"></path> <path class="st0" d="M104.7,379.7c1.5,0,2.7,0.4,3.7,1.1c1,0.7,1.7,1.7,2.1,3h-1.3c-0.3-0.9-0.9-1.6-1.6-2.1 c-0.8-0.5-1.7-0.8-2.8-0.8c-0.9,0-1.6,0.2-2.3,0.6c-0.7,0.4-1.2,1-1.6,1.8s-0.6,1.7-0.6,2.7s0.2,2,0.6,2.7c0.4,0.8,0.9,1.4,1.6,1.8 c0.7,0.4,1.5,0.6,2.3,0.6c1.1,0,2.1-0.3,2.8-0.8c0.8-0.5,1.3-1.2,1.6-2.1h1.3c-0.4,1.3-1.1,2.3-2.1,3c-1,0.7-2.2,1.1-3.7,1.1 c-1.1,0-2.2-0.3-3-0.8c-0.9-0.5-1.6-1.3-2.1-2.2c-0.5-1-0.7-2-0.7-3.3c0-1.2,0.2-2.3,0.7-3.3c0.5-1,1.2-1.7,2.1-2.2 C102.5,379.9,103.5,379.7,104.7,379.7L104.7,379.7z M117,382.5c0.9,0,1.7,0.2,2.5,0.6c0.7,0.4,1.3,1,1.7,1.7s0.6,1.6,0.6,2.6 c0,1-0.2,1.9-0.6,2.6c-0.4,0.7-1,1.3-1.7,1.7c-0.7,0.4-1.5,0.6-2.5,0.6c-0.9,0-1.7-0.2-2.5-0.6c-0.7-0.4-1.3-1-1.7-1.7 c-0.4-0.7-0.6-1.6-0.6-2.6c0-1,0.2-1.9,0.6-2.6c0.4-0.7,1-1.3,1.7-1.7C115.3,382.7,116.1,382.5,117,382.5L117,382.5z M117,383.6 c-0.6,0-1.2,0.1-1.8,0.4c-0.5,0.3-1,0.7-1.3,1.3c-0.3,0.6-0.5,1.3-0.5,2.1c0,0.8,0.2,1.6,0.5,2.1c0.3,0.6,0.8,1,1.3,1.3 c0.5,0.3,1.1,0.4,1.8,0.4c0.6,0,1.2-0.1,1.7-0.4c0.5-0.3,1-0.7,1.3-1.3c0.3-0.6,0.5-1.3,0.5-2.1c0-0.8-0.2-1.6-0.5-2.1 c-0.3-0.6-0.8-1-1.3-1.3C118.2,383.7,117.7,383.6,117,383.6L117,383.6z M129.2,382.5c0.9,0,1.7,0.2,2.3,0.6c0.7,0.4,1.2,1,1.6,1.7 s0.6,1.6,0.6,2.6c0,1-0.2,1.9-0.6,2.6c-0.4,0.7-0.9,1.3-1.6,1.7c-0.7,0.4-1.5,0.6-2.3,0.6c-1,0-1.8-0.3-2.5-0.8 c-0.7-0.5-1.2-1.2-1.4-2v7.2H124v-14.2h1.2v2.6c0.3-0.8,0.7-1.5,1.4-2C127.4,382.7,128.2,382.5,129.2,382.5L129.2,382.5z M128.8,383.6c-0.7,0-1.3,0.2-1.8,0.5c-0.5,0.3-1,0.8-1.3,1.3c-0.3,0.6-0.5,1.3-0.5,2c0,0.8,0.2,1.4,0.5,2c0.3,0.6,0.7,1,1.3,1.3 c0.5,0.3,1.2,0.5,1.8,0.5c1.1,0,2-0.3,2.6-1c0.6-0.7,1-1.6,1-2.8c0-1.2-0.3-2.1-1-2.8S129.9,383.6,128.8,383.6L128.8,383.6z M149.7,379.8v12.4h-1.2v-5.9h-6.7v5.9h-1.3v-12.4h1.3v5.5h6.7v-5.5H149.7L149.7,379.8z M152.7,382.6l3.3,8l3.1-8h1.4l-5.7,14.2 h-1.4l1.9-4.7l-4.1-9.5H152.7L152.7,382.6z M167.2,382.5c0.9,0,1.7,0.2,2.3,0.6c0.7,0.4,1.2,1,1.6,1.7c0.4,0.7,0.6,1.6,0.6,2.6 c0,1-0.2,1.9-0.6,2.6c-0.4,0.7-0.9,1.3-1.6,1.7c-0.7,0.4-1.5,0.6-2.3,0.6c-1,0-1.8-0.3-2.5-0.8c-0.7-0.5-1.2-1.2-1.4-2v7.2H162 v-14.2h1.2v2.6c0.3-0.8,0.7-1.5,1.4-2C165.4,382.7,166.2,382.5,167.2,382.5L167.2,382.5z M166.8,383.6c-0.7,0-1.3,0.2-1.8,0.5 c-0.5,0.3-1,0.8-1.3,1.3c-0.3,0.6-0.5,1.3-0.5,2c0,0.8,0.2,1.4,0.5,2c0.3,0.6,0.7,1,1.3,1.3c0.5,0.3,1.2,0.5,1.8,0.5 c1.1,0,2-0.3,2.6-1c0.6-0.7,1-1.6,1-2.8c0-1.2-0.3-2.1-1-2.8S167.9,383.6,166.8,383.6L166.8,383.6z M178.1,391.3 c0.9,0,1.6-0.2,2.2-0.7c0.6-0.4,0.9-1,1.1-1.8h1.3c-0.2,1-0.7,1.9-1.5,2.5c-0.8,0.6-1.8,1-3,1c-0.9,0-1.7-0.2-2.4-0.6 c-0.7-0.4-1.3-1-1.7-1.7c-0.4-0.7-0.6-1.6-0.6-2.6c0-1,0.2-1.9,0.6-2.6c0.4-0.7,1-1.3,1.7-1.7c0.7-0.4,1.5-0.6,2.4-0.6 c0.9,0,1.8,0.2,2.4,0.6c0.7,0.4,1.2,0.9,1.6,1.6c0.4,0.7,0.5,1.4,0.5,2.2c0,0.3,0,0.6-0.1,0.9h-8c0,0.8,0.2,1.5,0.5,2 c0.3,0.5,0.7,0.9,1.3,1.2C176.9,391.2,177.5,391.3,178.1,391.3L178.1,391.3z M178.1,383.5c-0.6,0-1.2,0.1-1.7,0.4 c-0.5,0.3-0.9,0.7-1.3,1.2c-0.3,0.5-0.5,1.2-0.5,2h6.8c0-0.8-0.1-1.5-0.4-2c-0.3-0.5-0.7-0.9-1.2-1.2 C179.3,383.6,178.8,383.5,178.1,383.5L178.1,383.5z M189,382.5c1,0,1.8,0.3,2.5,0.8c0.7,0.5,1.2,1.2,1.4,2v-6.1h1.2v13h-1.2v-2.6 c-0.2,0.8-0.7,1.5-1.4,2c-0.7,0.5-1.5,0.8-2.5,0.8c-0.9,0-1.6-0.2-2.3-0.6c-0.7-0.4-1.2-1-1.6-1.7c-0.4-0.7-0.6-1.6-0.6-2.6 c0-1,0.2-1.9,0.6-2.6c0.4-0.7,0.9-1.3,1.6-1.7C187.3,382.7,188.1,382.5,189,382.5L189,382.5z M189.3,383.6c-1.1,0-1.9,0.3-2.6,1 c-0.7,0.7-1,1.6-1,2.8c0,1.2,0.3,2.1,1,2.8c0.7,0.7,1.5,1,2.6,1c0.7,0,1.3-0.2,1.8-0.5c0.5-0.3,1-0.8,1.3-1.3 c0.3-0.6,0.5-1.3,0.5-2c0-0.8-0.2-1.4-0.5-2c-0.3-0.6-0.7-1-1.3-1.3C190.6,383.7,190,383.6,189.3,383.6L189.3,383.6z M204.3,382.5 c1,0,1.9,0.3,2.5,0.8c0.6,0.6,1,1.3,1.2,2.2h-1.2c-0.1-0.6-0.3-1.1-0.8-1.5c-0.4-0.4-1-0.6-1.8-0.6c-0.6,0-1.1,0.2-1.5,0.5 c-0.4,0.3-0.5,0.7-0.5,1.2c0,0.4,0.1,0.7,0.3,0.9c0.2,0.2,0.5,0.4,0.9,0.5s0.8,0.2,1.4,0.4c0.7,0.2,1.3,0.3,1.7,0.5 c0.4,0.2,0.8,0.4,1.1,0.8c0.3,0.4,0.5,0.9,0.5,1.5c0,0.8-0.3,1.4-0.9,1.9c-0.6,0.5-1.3,0.7-2.3,0.7c-1.1,0-2-0.3-2.7-0.8 c-0.7-0.5-1.1-1.3-1.3-2.2h1.2c0.1,0.6,0.3,1.2,0.8,1.6c0.5,0.4,1.1,0.6,2,0.6c0.6,0,1.1-0.2,1.4-0.5c0.3-0.3,0.5-0.7,0.5-1.2 c0-0.4-0.1-0.7-0.4-1c-0.2-0.2-0.5-0.4-0.9-0.6c-0.3-0.1-0.8-0.3-1.4-0.4c-0.7-0.2-1.2-0.3-1.7-0.5c-0.4-0.2-0.8-0.4-1.1-0.8 c-0.3-0.3-0.4-0.8-0.4-1.4c0-0.8,0.3-1.4,0.9-1.9C202.5,382.7,203.3,382.5,204.3,382.5L204.3,382.5z M215.1,382.4 c1.1,0,2,0.4,2.7,1.1c0.7,0.7,1,1.8,1,3.1v5.6h-1.2v-5.5c0-1-0.3-1.8-0.8-2.4c-0.5-0.6-1.3-0.8-2.2-0.8c-1,0-1.7,0.3-2.3,0.9 c-0.6,0.6-0.9,1.5-0.9,2.7v5.1h-1.3v-9.6h1.3v2.4c0.2-0.8,0.7-1.5,1.3-1.9C213.5,382.6,214.3,382.4,215.1,382.4L215.1,382.4z M225.7,391.3c0.9,0,1.6-0.2,2.2-0.7c0.6-0.4,0.9-1,1.1-1.8h1.3c-0.2,1-0.7,1.9-1.5,2.5c-0.8,0.6-1.8,1-3,1c-0.9,0-1.7-0.2-2.4-0.6 c-0.7-0.4-1.3-1-1.7-1.7c-0.4-0.7-0.6-1.6-0.6-2.6c0-1,0.2-1.9,0.6-2.6c0.4-0.7,1-1.3,1.7-1.7c0.7-0.4,1.5-0.6,2.4-0.6 c0.9,0,1.8,0.2,2.4,0.6c0.7,0.4,1.2,0.9,1.6,1.6c0.4,0.7,0.5,1.4,0.5,2.2c0,0.3,0,0.6-0.1,0.9h-8c0,0.8,0.2,1.5,0.5,2 c0.3,0.5,0.7,0.9,1.3,1.2C224.5,391.2,225.1,391.3,225.7,391.3L225.7,391.3z M225.7,383.5c-0.6,0-1.2,0.1-1.7,0.4 c-0.5,0.3-0.9,0.7-1.3,1.2c-0.3,0.5-0.5,1.2-0.5,2h6.8c0-0.8-0.1-1.5-0.4-2c-0.3-0.5-0.7-0.9-1.2-1.2 C226.9,383.6,226.3,383.5,225.7,383.5L225.7,383.5z M236.6,382.5c1,0,1.8,0.3,2.5,0.8c0.7,0.5,1.2,1.2,1.4,2v-2.6h1.2v9.6h-1.2 v-2.6c-0.3,0.8-0.7,1.5-1.4,2c-0.7,0.5-1.5,0.8-2.5,0.8c-0.9,0-1.6-0.2-2.3-0.6c-0.7-0.4-1.2-1-1.6-1.7c-0.4-0.7-0.6-1.6-0.6-2.6 c0-1,0.2-1.9,0.6-2.6c0.4-0.7,0.9-1.3,1.6-1.7C234.9,382.7,235.7,382.5,236.6,382.5L236.6,382.5z M236.9,383.6 c-1.1,0-1.9,0.3-2.6,1c-0.7,0.7-1,1.6-1,2.8c0,1.2,0.3,2.1,1,2.8c0.7,0.7,1.5,1,2.6,1c0.7,0,1.3-0.2,1.8-0.5c0.5-0.3,1-0.8,1.3-1.3 c0.3-0.6,0.5-1.3,0.5-2c0-0.8-0.2-1.4-0.5-2c-0.3-0.6-0.7-1-1.3-1.3C238.2,383.7,237.6,383.6,236.9,383.6L236.9,383.6z M249.5,392.2l-3.9-4.4v4.4h-1.3v-13h1.3v7.6l3.8-4.2h1.5l-4.4,4.8l4.5,4.9H249.5L249.5,392.2z M256.7,391.3c0.9,0,1.6-0.2,2.2-0.7 c0.6-0.4,0.9-1,1.1-1.8h1.3c-0.2,1-0.7,1.9-1.5,2.5c-0.8,0.6-1.8,1-3,1c-0.9,0-1.7-0.2-2.4-0.6c-0.7-0.4-1.3-1-1.7-1.7 c-0.4-0.7-0.6-1.6-0.6-2.6c0-1,0.2-1.9,0.6-2.6c0.4-0.7,1-1.3,1.7-1.7c0.7-0.4,1.5-0.6,2.4-0.6c0.9,0,1.8,0.2,2.4,0.6 c0.7,0.4,1.2,0.9,1.6,1.6c0.4,0.7,0.5,1.4,0.5,2.2c0,0.3,0,0.6-0.1,0.9h-8c0,0.8,0.2,1.5,0.5,2c0.3,0.5,0.7,0.9,1.3,1.2 C255.6,391.2,256.2,391.3,256.7,391.3L256.7,391.3z M256.8,383.5c-0.6,0-1.2,0.1-1.7,0.4c-0.5,0.3-0.9,0.7-1.3,1.2 c-0.3,0.5-0.5,1.2-0.5,2h6.8c0-0.8-0.1-1.5-0.4-2c-0.3-0.5-0.7-0.9-1.2-1.2C258,383.6,257.4,383.5,256.8,383.5L256.8,383.5z M264.8,384.6c0.3-0.7,0.7-1.2,1.4-1.6c0.6-0.4,1.4-0.6,2.3-0.6v1.3H268c-0.9,0-1.7,0.2-2.3,0.7c-0.6,0.5-0.9,1.3-0.9,2.4v5.3h-1.3 v-9.6h1.3V384.6L264.8,384.6z M278.7,382.5c1,0,1.8,0.3,2.5,0.8c0.7,0.5,1.2,1.2,1.4,2v-2.6h1.2v9.6h-1.2v-2.6 c-0.3,0.8-0.7,1.5-1.4,2c-0.7,0.5-1.5,0.8-2.5,0.8c-0.9,0-1.6-0.2-2.3-0.6c-0.7-0.4-1.2-1-1.6-1.7c-0.4-0.7-0.6-1.6-0.6-2.6 c0-1,0.2-1.9,0.6-2.6c0.4-0.7,0.9-1.3,1.6-1.7C277.1,382.7,277.8,382.5,278.7,382.5L278.7,382.5z M279,383.6c-1.1,0-1.9,0.3-2.6,1 c-0.7,0.7-1,1.6-1,2.8c0,1.2,0.3,2.1,1,2.8c0.7,0.7,1.5,1,2.6,1c0.7,0,1.3-0.2,1.8-0.5s1-0.8,1.3-1.3c0.3-0.6,0.5-1.3,0.5-2 c0-0.8-0.2-1.4-0.5-2c-0.3-0.6-0.7-1-1.3-1.3S279.7,383.6,279,383.6L279,383.6z M290.9,391.1v1.1h-1.1c-0.9,0-1.6-0.2-2.1-0.7 c-0.5-0.4-0.7-1.2-0.7-2.2v-5.7h-1.5v-1.1h1.5v-2.4h1.3v2.4h2.6v1.1h-2.6v5.7c0,0.7,0.1,1.1,0.4,1.4c0.2,0.3,0.7,0.4,1.3,0.4H290.9 L290.9,391.1z M302.7,382.5c0.9,0,1.7,0.2,2.3,0.6c0.7,0.4,1.2,1,1.6,1.7c0.4,0.7,0.6,1.6,0.6,2.6c0,1-0.2,1.9-0.6,2.6 c-0.4,0.7-0.9,1.3-1.6,1.7c-0.7,0.4-1.5,0.6-2.3,0.6c-1,0-1.8-0.3-2.5-0.8c-0.7-0.5-1.2-1.2-1.4-2v2.6h-1.2v-13h1.2v6.1 c0.3-0.8,0.7-1.5,1.4-2C300.8,382.7,301.7,382.5,302.7,382.5L302.7,382.5z M302.3,383.6c-0.7,0-1.3,0.2-1.8,0.5 c-0.5,0.3-1,0.8-1.3,1.3s-0.5,1.3-0.5,2c0,0.8,0.2,1.4,0.5,2c0.3,0.6,0.7,1,1.3,1.3c0.5,0.3,1.2,0.5,1.8,0.5c1.1,0,2-0.3,2.6-1 c0.6-0.7,1-1.6,1-2.8c0-1.2-0.3-2.1-1-2.8S303.4,383.6,302.3,383.6L302.3,383.6z M313.6,391.3c0.9,0,1.6-0.2,2.2-0.7 c0.6-0.4,0.9-1,1.1-1.8h1.3c-0.2,1-0.7,1.9-1.5,2.5c-0.8,0.6-1.8,1-3,1c-0.9,0-1.7-0.2-2.4-0.6c-0.7-0.4-1.3-1-1.7-1.7 c-0.4-0.7-0.6-1.6-0.6-2.6c0-1,0.2-1.9,0.6-2.6c0.4-0.7,1-1.3,1.7-1.7c0.7-0.4,1.5-0.6,2.4-0.6c0.9,0,1.8,0.2,2.4,0.6 c0.7,0.4,1.2,0.9,1.6,1.6c0.4,0.7,0.5,1.4,0.5,2.2c0,0.3,0,0.6-0.1,0.9h-8c0,0.8,0.2,1.5,0.5,2c0.3,0.5,0.7,0.9,1.3,1.2 C312.4,391.2,313,391.3,313.6,391.3L313.6,391.3z M313.6,383.5c-0.6,0-1.2,0.1-1.7,0.4c-0.5,0.3-0.9,0.7-1.3,1.2 c-0.3,0.5-0.5,1.2-0.5,2h6.8c0-0.8-0.1-1.5-0.4-2c-0.3-0.5-0.7-0.9-1.2-1.2C314.8,383.6,314.2,383.5,313.6,383.5L313.6,383.5z M323.3,382.5c1,0,1.9,0.3,2.5,0.8c0.6,0.6,1,1.3,1.2,2.2h-1.2c-0.1-0.6-0.3-1.1-0.8-1.5c-0.4-0.4-1-0.6-1.8-0.6 c-0.6,0-1.1,0.2-1.5,0.5c-0.4,0.3-0.5,0.7-0.5,1.2c0,0.4,0.1,0.7,0.3,0.9c0.2,0.2,0.5,0.4,0.9,0.5s0.8,0.2,1.4,0.4 c0.7,0.2,1.3,0.3,1.7,0.5c0.4,0.2,0.8,0.4,1.1,0.8c0.3,0.4,0.5,0.9,0.5,1.5c0,0.8-0.3,1.4-0.9,1.9c-0.6,0.5-1.3,0.7-2.3,0.7 c-1.1,0-2-0.3-2.7-0.8c-0.7-0.5-1.1-1.3-1.3-2.2h1.2c0.1,0.6,0.3,1.2,0.8,1.6c0.5,0.4,1.1,0.6,2,0.6c0.6,0,1.1-0.2,1.4-0.5 c0.3-0.3,0.5-0.7,0.5-1.2c0-0.4-0.1-0.7-0.4-1c-0.2-0.2-0.5-0.4-0.9-0.6c-0.3-0.1-0.8-0.3-1.4-0.4c-0.7-0.2-1.2-0.3-1.7-0.5 c-0.4-0.2-0.8-0.4-1.1-0.8c-0.3-0.3-0.4-0.8-0.4-1.4c0-0.8,0.3-1.4,0.9-1.9C321.5,382.7,322.3,382.5,323.3,382.5L323.3,382.5z M333.7,391.1v1.1h-1.1c-0.9,0-1.6-0.2-2.1-0.7c-0.5-0.4-0.7-1.2-0.7-2.2v-5.7h-1.5v-1.1h1.5v-2.4h1.3v2.4h2.6v1.1H331v5.7 c0,0.7,0.1,1.1,0.4,1.4c0.2,0.3,0.7,0.4,1.3,0.4H333.7L333.7,391.1z M341.6,384.6c0.3-0.7,0.7-1.2,1.4-1.6c0.6-0.4,1.4-0.6,2.3-0.6 v1.3h-0.4c-0.9,0-1.7,0.2-2.3,0.7c-0.6,0.5-0.9,1.3-0.9,2.4v5.3h-1.3v-9.6h1.3V384.6L341.6,384.6z M350.9,382.5 c1,0,1.8,0.3,2.5,0.8c0.7,0.5,1.2,1.2,1.4,2v-2.6h1.2v9.6h-1.2v-2.6c-0.3,0.8-0.7,1.5-1.4,2c-0.7,0.5-1.5,0.8-2.5,0.8 c-0.9,0-1.6-0.2-2.3-0.6c-0.7-0.4-1.2-1-1.6-1.7c-0.4-0.7-0.6-1.6-0.6-2.6c0-1,0.2-1.9,0.6-2.6c0.4-0.7,0.9-1.3,1.6-1.7 C349.2,382.7,350,382.5,350.9,382.5L350.9,382.5z M351.2,383.6c-1.1,0-1.9,0.3-2.6,1c-0.7,0.7-1,1.6-1,2.8c0,1.2,0.3,2.1,1,2.8 c0.7,0.7,1.5,1,2.6,1c0.7,0,1.3-0.2,1.8-0.5s1-0.8,1.3-1.3c0.3-0.6,0.5-1.3,0.5-2c0-0.8-0.2-1.4-0.5-2c-0.3-0.6-0.7-1-1.3-1.3 S351.9,383.6,351.2,383.6L351.2,383.6z M363.1,391.1v1.1h-1.1c-0.9,0-1.6-0.2-2.1-0.7c-0.5-0.4-0.7-1.2-0.7-2.2v-5.7h-1.5v-1.1h1.5 v-2.4h1.3v2.4h2.6v1.1h-2.6v5.7c0,0.7,0.1,1.1,0.4,1.4c0.2,0.3,0.7,0.4,1.3,0.4H363.1L363.1,391.1z M369.3,391.3 c0.9,0,1.6-0.2,2.2-0.7c0.6-0.4,0.9-1,1.1-1.8h1.3c-0.2,1-0.7,1.9-1.5,2.5c-0.8,0.6-1.8,1-3,1c-0.9,0-1.7-0.2-2.4-0.6 c-0.7-0.4-1.3-1-1.7-1.7c-0.4-0.7-0.6-1.6-0.6-2.6c0-1,0.2-1.9,0.6-2.6c0.4-0.7,1-1.3,1.7-1.7c0.7-0.4,1.5-0.6,2.4-0.6 c0.9,0,1.8,0.2,2.4,0.6c0.7,0.4,1.2,0.9,1.6,1.6c0.4,0.7,0.5,1.4,0.5,2.2c0,0.3,0,0.6-0.1,0.9h-8c0,0.8,0.2,1.5,0.5,2 c0.3,0.5,0.7,0.9,1.3,1.2C368.1,391.2,368.7,391.3,369.3,391.3L369.3,391.3z M369.3,383.5c-0.6,0-1.2,0.1-1.7,0.4 c-0.5,0.3-0.9,0.7-1.3,1.2c-0.3,0.5-0.5,1.2-0.5,2h6.8c0-0.8-0.1-1.5-0.4-2c-0.3-0.5-0.7-0.9-1.2-1.2 C370.5,383.6,369.9,383.5,369.3,383.5z"></path> <g> <path class="st0" d="M118.5,200.7l7.9-11.6c2.7-4,5.3-7.9,8-11.8l9.9-14.6c1.2-1.8,0.6-1.4,2.9-2.1c1.3-0.4,6.8-2.1,7.7-2.1 l0.6,60.4l11.1,4.1c12,4.4,21.3,8.1,34.1,11.9c15.9,4.8,31.8,8.9,48.6,12.7c19.3,4.4,32.9,6.1,52,9.2c16.6,2.6,41.1,3.9,57.8,2.2 c-0.3-0.6-5-4.6-7.7-8.7c-2.5-3.7-3.3-8.7,0.4-11.7c2.7-2.2,14.8-5.3,20.8-12.2c7.1-8.2-10.3-11.9-16.7-13.2 c-4.7-0.9-9.3-1.6-13.9-2.6c-21.9-4.8-46.9-14.6-64.7-26.5c-1-0.7-1.6-1.1-2.3-1.8l-4.3-4c-0.4-0.4-0.7-0.5-1.1-0.9 c-0.4-0.4-0.7-0.7-1.1-1.1l-13.4-11.4c-1.2-1.1-8.5-7-9.4-7.4c-1.1,2.5-30,50.2-32.6,54.5l-8.1,13.6c-0.7,1.1-2.1,3.8-2.8,4.5 l-8.2-71.5l50.3-4l-29.9-19.1c-0.6-0.4-1.1-0.6-1.6-1c-3.4-1.9-6.2-3.6-9.9-5.3c-4.2-2-3-1.6-7.5-0.1c-2.5,0.9-5,1.8-7.5,2.7 c-10.1,3.5-20,7.2-30,10.7c1-1.8,2.5-3.7,3.7-5.5l11.5-17.2c-5.1-1.1-14.3-5.5-18.1-9.1c-3.3-3.1-2.2-5.7-4.7-9 c-3.7-4.7-9.6-4-14.9-1.4c-4.2,2.1-7.2,6.9-9.8,10.7c-3.7,5.4-7.3,10.8-11,16.3c-1.8,2.7-3.7,5.3-5.4,8c-2.4,3.8-2.8,4.5-4.7,9 c-6.3,15-9.6,28,0.5,42.5c3.1,4.5,6,7.2,9.8,10.6C115.7,198.5,117.5,200.1,118.5,200.7L118.5,200.7z M244,232.9l23.3-35.7 c1.8,0.4,44.1,20.3,45.7,22.4c4.2,5.3-0.7,11-2.9,14c-2.6,3.6-8.7,7.9-16.3,9c-12.5,1.8-27.7-4.1-46.5-8.7c-0.2,0-1.6-0.4-1.8-0.4 C243.5,232.9,245.2,233.4,244,232.9z"></path> <path class="st0" d="M179.4,236.3c-0.1-1.9-4.6-3.3-7.2-4.4c-19.3-8.1-38.7-17.1-58.2-25.2c-3-1.3-9.7-4.4-12.3-5.3 c-5.7-1.9-8.3-14.8-9.3-20.7c-0.7-4.1-3.2-15.9-4.9-18.8c-3.5-5.9-9-1.5-10,1.9c-1.4,5-3.9,7.4-7.8,10.1c-2.2,1.5-3,5.6-2.4,9.3 c1.4,8.2,8.1,16.4,14.2,21.4c1.1,0.9,2,1.7,3.2,2.6c1.6,1.2,0.8,1.2,3.4,2.7c4.9,2.8,11.1,5.1,16.7,7.2 c11.6,4.3,23.7,8.1,35.9,11.7c6.1,1.8,12.4,3.6,18.6,5C162.8,234.6,177.2,238.6,179.4,236.3z"></path> <path class="st0" d="M403.2,221.3c-1.5-2.7-2.8-4-4.7-5.9c-4.5-4.6-15.6-8.3-21.5-10.4c-2.7-0.9-5.1-1.9-7.7-3 c-4.6-1.8-28.6-11.1-33-9.1c-1.5,4.7,7.5,9,10.9,10.4c5.6,2.2,10.9,3.1,17,4.5c5.7,1.4,11.4,3.1,16.6,5.2 c5.6,2.3,9.4,4.2,13.4,8.1c3,2.9,4.9,7.9,3.3,11.9c-2.4,6.3-11.4,7.7-18,8.9c-3,0.5-6.4,1.2-9.5,1.3c-2.2,0.1-6.9-0.9-4.5,4.8 c0.9,2.3,2.7,4.9,3.9,6.9c1.3,2.1,2.8,4.5,3.9,6.7c3.9-0.2,12.6-4.2,15.5-5.9c4.9-3,8.4-5.7,11.4-9.8c2.9-3.9,5.6-9.7,5.2-16.1 C405.3,226.7,404.5,223.7,403.2,221.3z"></path> <path class="st0" d="M189.2,113.5c0.3-3.4-1.3-3.9,1.1-11c1.1-3.1,2.7-6,4.3-8.7c1.6-2.7,3.4-5.3,5.1-7.5c1.2-1.6,4.9-7.1,6.9-5.8 c2.5,2.8-1.5,5.9-2.3,8.2l16.6,15.2c0.7,0.7,0.4,0.6,1.3,1l3.7-4c1.9,0.8,3.5,4.1,5.3,5.5l5.2-2.6c-0.7-4.4-27.9-31.1-34.2-27.7 c-1.9,1-6.6,6-7.9,7.7c-4.9,5.9-12.8,20.1-9.5,28.1C186,114.8,187,115.3,189.2,113.5z"></path> <path class="st0" d="M142.8,79.7c-4.5,0.6-4.6,1.5-7.4,4c-7.8,7-5.6,12-2.7,11.2c1.8-0.5,6.7-4.4,9.3-5.9c4.8-2.7,7.6-1.2,9.2,3.3 c1.3,3.7,0.8,9.8,4.3,10.9c5.8,1.9,4.5-7.1,3.9-10C157.9,85.1,152.4,78.4,142.8,79.7z"></path> <path class="st0" d="M300.1,162c-3.9,0.5-7.5,2.1-9.9,4c-2.6,2.1-3.1,6.3,5.2,4c1.2-0.3,4.3-1.9,4.9-0.2 c1.1,3.4-10.6,15.5-4.8,19.4c1.9,1.3,3.6-0.7,4.4-1.8c2.3-3.3,7.4-15.6,7.8-19.6C308.1,162.9,304.7,161.4,300.1,162z"></path> <path class="st0" d="M247.4,123.4c0.9,4.9-10.1,15.4-5,19.6c4.6,3.8,9.4-12,10.7-15.8c1.2-3.3,3.1-7.7,0-10.3 c-5-4-20.9,3.4-16.9,7C239.2,126.6,244.8,121.9,247.4,123.4z"></path> <path class="st0" d="M283.8,154.1c0.7,1.9-0.4,3.1-1.2,4.8c-0.8,1.6-1.4,3.2-2.3,4.7c-1.3,2.5-4.4,7.3-1.8,9.9 c1.7,1.7,3.1,1.2,4.4-0.4c2.8-3.5,5.1-9.9,6.6-14.3c1-3.1,3.2-7.8,0.6-10.5c-4.5-4.5-20.5,2.3-17.5,6.4c1,1.4,3.8,0.9,5.6,0.5 C280.2,154.6,281.8,153.5,283.8,154.1z"></path> <path class="st0" d="M265.8,139.2c1.6,4-9.3,15.2-5.3,19.4c3.3,3.4,5.8-2.2,7.1-4.7c1.6-3,2.7-6.6,4-9.9c1.1-3.2,3.1-7.8,0.5-10.5 c-4.3-4.5-20.4,2.3-17.5,6.4C256.6,142.6,263,138.5,265.8,139.2z"></path> </g> </g> </svg> 